<svg width="640" height="42" viewBox="0 0 640 42" fill="none" xmlns="http://www.w3.org/2000/svg">
    <path d="M21.682 32.684C21.538 32.972 21.106 33.998 20.386 35.762C19.666 37.49 18.64 38.894 17.308 39.974C15.976 41.054 14.428 41.594 12.664 41.594C11.728 41.594 10.792 41.504 9.856 41.324C8.956 41.18 8.218 40.982 7.642 40.73V36.896L11.476 36.95C13.132 36.95 14.356 36.626 15.148 35.978C15.94 35.294 16.624 34.088 17.2 32.36L3.592 4.226L0.676 3.578V0.877998H15.256V3.578L9.964 4.226L18.658 23.018L20.278 27.932L22.06 22.964L28.918 4.226L24.328 3.578V0.877998H35.884V3.578L33.076 4.226L21.682 32.684ZM59.5837 23.342C58.3237 24.062 56.7037 24.62 54.7237 25.016C52.7437 25.412 50.8717 25.61 49.1077 25.61C46.5877 25.61 44.5537 25.232 43.0057 24.476C41.4937 23.72 40.3777 22.46 39.6577 20.696C38.9377 18.896 38.5777 16.448 38.5777 13.352V4.28L35.2837 3.632V0.877998H48.8917V3.632L44.3017 4.28V11.732C44.3017 14.936 44.4997 17.24 44.8957 18.644C45.3277 20.048 46.0297 20.966 47.0017 21.398C47.9737 21.794 49.5397 21.992 51.6997 21.992C53.0677 21.992 54.5257 21.812 56.0737 21.452C57.6577 21.092 58.8277 20.696 59.5837 20.264V4.226L54.7777 3.578V0.877998H70.0597V3.578L65.3077 4.226V37.814L70.0597 38.408V41H53.9137V38.354L59.5837 37.814V23.342ZM88.1151 0.553999H94.0551L107.177 37.814L110.525 38.354V41H96.2691V38.354L100.751 37.814L98.2131 29.822H82.4451L79.9071 37.814L84.5511 38.354V41H71.7531V38.354L75.1011 37.814L88.1151 0.553999ZM91.5171 9.194L90.1671 4.442L88.8711 9.302L83.4171 26.636H97.1871L91.5171 9.194ZM130.256 41.594C126.296 41.594 122.912 40.748 120.104 39.056C117.332 37.328 115.226 34.916 113.786 31.82C112.346 28.724 111.626 25.088 111.626 20.912C111.626 16.88 112.472 13.316 114.164 10.22C115.856 7.124 118.178 4.73 121.13 3.038C124.082 1.31 127.394 0.445997 131.066 0.445997C133.838 0.445997 137.168 0.877997 141.056 1.742L142.838 2.066L142.298 11.786H138.68L137.33 4.928C136.826 4.496 135.944 4.136 134.684 3.848C133.46 3.524 131.948 3.362 130.148 3.362C127.844 3.362 125.792 4.028 123.992 5.36C122.192 6.656 120.77 8.582 119.726 11.138C118.718 13.694 118.214 16.754 118.214 20.318C118.214 23.702 118.664 26.78 119.564 29.552C120.464 32.324 121.832 34.538 123.668 36.194C125.504 37.814 127.772 38.624 130.472 38.624C132.38 38.624 133.838 38.462 134.846 38.138C135.89 37.814 136.772 37.346 137.492 36.734L139.76 31.442L143.162 31.874L141.866 39.542C141.11 39.578 139.994 39.83 138.518 40.298C137.222 40.694 135.962 41 134.738 41.216C133.55 41.468 132.056 41.594 130.256 41.594ZM160.783 3.74L151.495 4.064L149.605 15.35H146.041L146.959 0.877998H180.601L181.249 15.35H177.847L176.065 4.064L166.723 3.74V37.814L174.391 38.354V41H153.763V38.354L160.783 37.814V3.74ZM189.586 4.226L185.32 3.578V0.877998H200.008V3.578L195.364 4.226V18.752H214.372V4.226L209.998 3.578V0.877998H224.47V3.578L220.204 4.226V37.814L224.47 38.354V41H209.944V38.354L214.372 37.814V22.1H195.364V37.814L200.062 38.354V41H185.212V38.354L189.586 37.814V4.226ZM245.32 0.877998V3.578L240.028 4.226V31.334L244.456 24.692L260.008 5.684V4.226L255.202 3.578V0.877998H270.052V3.578L265.732 4.226V37.814L270.322 38.354V41H255.256V38.354L260.008 37.814V10.328L256.012 16.592L240.028 35.87V37.814L245.104 38.354V41H229.876V38.354L234.358 37.814V4.226L230.038 3.578V0.877998H245.32ZM293.799 19.994C295.239 20.534 296.679 21.74 298.119 23.612C299.559 25.448 301.287 27.95 303.303 31.118C304.671 33.35 305.733 34.988 306.489 36.032C307.245 37.04 307.893 37.616 308.433 37.76L310.485 38.354V41H303.789C302.961 41 302.025 40.298 300.981 38.894C299.973 37.454 298.659 35.276 297.039 32.36C295.203 29.084 293.673 26.6 292.449 24.908C291.225 23.216 290.055 22.37 288.939 22.37H285.483V37.76L290.289 38.408V41H275.493V38.3L279.867 37.76V4.226L275.493 3.578V0.877998H289.965V3.578L285.483 4.226V19.778H290.127L301.035 4.226L296.499 3.578V0.877998H309.783V3.578L305.517 4.226L293.799 19.994ZM328.904 0.877998V3.578L323.612 4.226V31.334L328.04 24.692L343.592 5.684V4.226L338.786 3.578V0.877998H353.636V3.578L349.316 4.226V37.814L353.906 38.354V41H338.84V38.354L343.592 37.814V10.328L339.596 16.592L323.612 35.87V37.814L328.688 38.354V41H313.46V38.354L317.942 37.814V4.226L313.622 3.578V0.877998H328.904ZM384.851 3.74L375.563 4.064L373.673 15.35H370.109L371.027 0.877998H404.669L405.317 15.35H401.915L400.133 4.064L390.791 3.74V37.814L398.459 38.354V41H377.831V38.354L384.851 37.814V3.74ZM427.262 32.684C427.118 32.972 426.686 33.998 425.966 35.762C425.246 37.49 424.22 38.894 422.888 39.974C421.556 41.054 420.008 41.594 418.244 41.594C417.308 41.594 416.372 41.504 415.436 41.324C414.536 41.18 413.798 40.982 413.222 40.73V36.896L417.056 36.95C418.712 36.95 419.936 36.626 420.728 35.978C421.52 35.294 422.204 34.088 422.78 32.36L409.172 4.226L406.256 3.578V0.877998H420.836V3.578L415.544 4.226L424.238 23.018L425.858 27.932L427.64 22.964L434.498 4.226L429.908 3.578V0.877998H441.464V3.578L438.656 4.226L427.262 32.684ZM447.668 4.226L443.456 3.578V0.877998H450.638C451.934 0.877998 453.212 0.823998 454.472 0.715997C456.416 0.571997 458.252 0.499997 459.98 0.499997C465.2 0.535998 468.89 1.508 471.05 3.416C473.21 5.324 474.29 8.204 474.29 12.056C474.29 14.936 473.624 17.438 472.292 19.562C470.96 21.686 469.106 23.306 466.73 24.422C464.39 25.538 461.69 26.096 458.63 26.096C457.586 26.096 456.524 26.078 455.444 26.042C454.364 25.97 453.698 25.916 453.446 25.88V37.76L460.844 38.354V41H443.186V38.354L447.668 37.814V4.226ZM453.446 22.91C454.454 23.09 456.182 23.18 458.63 23.18C461.474 23.18 463.778 22.316 465.542 20.588C467.342 18.86 468.242 16.034 468.242 12.11C468.242 9.014 467.468 6.8 465.92 5.468C464.372 4.1 461.96 3.416 458.684 3.416C457.532 3.416 456.308 3.488 455.012 3.632C454.22 3.704 453.698 3.74 453.446 3.74V22.91ZM482.736 4.226L478.47 3.578V0.877998H493.158V3.578L488.514 4.226V18.752H507.522V4.226L503.148 3.578V0.877998H517.62V3.578L513.354 4.226V37.814L517.62 38.354V41H503.094V38.354L507.522 37.814V22.1H488.514V37.814L493.212 38.354V41H478.362V38.354L482.736 37.814V4.226ZM538.471 0.877998V3.578L533.179 4.226V31.334L537.607 24.692L553.159 5.684V4.226L548.353 3.578V0.877998H563.203V3.578L558.883 4.226V37.814L563.473 38.354V41H548.407V38.354L553.159 37.814V10.328L549.163 16.592L533.179 35.87V37.814L538.255 38.354V41H523.027V38.354L527.509 37.814V4.226L523.189 3.578V0.877998H538.471ZM573.017 4.226L568.805 3.578V0.877998H575.987C577.283 0.877998 578.561 0.823998 579.821 0.715997C581.765 0.571997 583.601 0.499997 585.329 0.499997C590.549 0.535998 594.239 1.508 596.399 3.416C598.559 5.324 599.639 8.204 599.639 12.056C599.639 14.936 598.973 17.438 597.641 19.562C596.309 21.686 594.455 23.306 592.079 24.422C589.739 25.538 587.039 26.096 583.979 26.096C582.935 26.096 581.873 26.078 580.793 26.042C579.713 25.97 579.047 25.916 578.795 25.88V37.76L586.193 38.354V41H568.535V38.354L573.017 37.814V4.226ZM578.795 22.91C579.803 23.09 581.531 23.18 583.979 23.18C586.823 23.18 589.127 22.316 590.891 20.588C592.691 18.86 593.591 16.034 593.591 12.11C593.591 9.014 592.817 6.8 591.269 5.468C589.721 4.1 587.309 3.416 584.033 3.416C582.881 3.416 581.657 3.488 580.361 3.632C579.569 3.704 579.047 3.74 578.795 3.74V22.91ZM616.672 0.553999H622.612L635.734 37.814L639.082 38.354V41H624.826V38.354L629.308 37.814L626.77 29.822H611.002L608.464 37.814L613.108 38.354V41H600.31V38.354L603.658 37.814L616.672 0.553999ZM620.074 9.194L618.724 4.442L617.428 9.302L611.974 26.636H625.744L620.074 9.194Z" fill="#313131"/>
</svg>
