<svg width="482" height="40" viewBox="0 0 482 40" fill="none" xmlns="http://www.w3.org/2000/svg">
    <path d="M30.825 13.18C30.105 13.18 29.409 13.06 28.737 12.82C28.077 12.568 27.483 12.184 26.955 11.668C26.427 11.152 26.007 10.492 25.695 9.688C25.395 8.884 25.245 7.918 25.245 6.79V6.43C25.245 5.35 25.395 4.42 25.695 3.64C26.007 2.86 26.427 2.218 26.955 1.714C27.483 1.198 28.077 0.819999 28.737 0.579999C29.409 0.339999 30.105 0.219999 30.825 0.219999C31.545 0.219999 32.235 0.339999 32.895 0.579999C33.567 0.819999 34.167 1.198 34.695 1.714C35.223 2.218 35.637 2.86 35.937 3.64C36.249 4.42 36.405 5.35 36.405 6.43V6.79C36.405 7.918 36.249 8.884 35.937 9.688C35.637 10.492 35.223 11.152 34.695 11.668C34.167 12.184 33.567 12.568 32.895 12.82C32.235 13.06 31.545 13.18 30.825 13.18ZM30.825 11.668C31.485 11.668 32.097 11.506 32.661 11.182C33.237 10.858 33.705 10.336 34.065 9.616C34.425 8.896 34.605 7.954 34.605 6.79V6.43C34.605 5.326 34.425 4.432 34.065 3.748C33.705 3.052 33.237 2.542 32.661 2.218C32.097 1.894 31.485 1.732 30.825 1.732C30.177 1.732 29.565 1.894 28.989 2.218C28.413 2.542 27.945 3.052 27.585 3.748C27.225 4.432 27.045 5.326 27.045 6.43V6.79C27.045 7.954 27.225 8.896 27.585 9.616C27.945 10.336 28.413 10.858 28.989 11.182C29.565 11.506 30.177 11.668 30.825 11.668ZM38.9293 13V3.46H46.8493V13H45.2653V4.864H40.5133V13H38.9293ZM49.2722 13.18C49.1882 13.18 49.0982 13.174 49.0022 13.162C48.9182 13.15 48.8282 13.138 48.7322 13.126V11.542C48.7682 11.554 48.8582 11.56 49.0022 11.56C49.3622 11.56 49.6562 11.404 49.8842 11.092C50.1122 10.768 50.2742 10.204 50.3702 9.4C50.4782 8.584 50.5322 7.444 50.5322 5.98V3.46H57.3722V13H55.7882V4.864H52.1162V6.34C52.1162 7.672 52.0562 8.782 51.9362 9.67C51.8162 10.546 51.6362 11.242 51.3962 11.758C51.1682 12.274 50.8742 12.64 50.5142 12.856C50.1542 13.072 49.7402 13.18 49.2722 13.18ZM62.9695 13.18C62.2735 13.18 61.6795 13.054 61.1875 12.802C60.7075 12.538 60.3415 12.184 60.0895 11.74C59.8375 11.284 59.7115 10.774 59.7115 10.21C59.7115 9.262 59.9875 8.578 60.5395 8.158C61.1035 7.738 61.9075 7.528 62.9515 7.528H66.0475V6.88C66.0475 6.064 65.8615 5.5 65.4895 5.188C65.1295 4.876 64.5835 4.72 63.8515 4.72C63.1675 4.72 62.6695 4.852 62.3575 5.116C62.0455 5.368 61.8715 5.656 61.8355 5.98H60.2515C60.2875 5.464 60.4615 5.008 60.7735 4.612C61.0855 4.204 61.5115 3.88 62.0515 3.64C62.5915 3.4 63.2215 3.28 63.9415 3.28C64.6975 3.28 65.3515 3.4 65.9035 3.64C66.4555 3.868 66.8815 4.234 67.1815 4.738C67.4815 5.23 67.6315 5.884 67.6315 6.7V10.57C67.6315 11.074 67.6315 11.518 67.6315 11.902C67.6435 12.274 67.6735 12.64 67.7215 13H66.3355C66.2995 12.724 66.2755 12.466 66.2635 12.226C66.2515 11.974 66.2455 11.692 66.2455 11.38C65.9935 11.884 65.5855 12.31 65.0215 12.658C64.4575 13.006 63.7735 13.18 62.9695 13.18ZM63.3115 11.74C63.8155 11.74 64.2715 11.65 64.6795 11.47C65.0995 11.29 65.4295 11.026 65.6695 10.678C65.9215 10.33 66.0475 9.904 66.0475 9.4V8.752H63.2215C62.6335 8.752 62.1715 8.872 61.8355 9.112C61.4995 9.34 61.3315 9.706 61.3315 10.21C61.3315 10.654 61.4875 11.02 61.7995 11.308C62.1235 11.596 62.6275 11.74 63.3115 11.74ZM72.4315 13V4.864H69.1735V3.46H77.2735V4.864H74.0155V13H72.4315ZM79.0777 13V3.46H80.6617V10.66L85.5937 3.46H87.1777V13H85.5937V5.8L80.6617 13H79.0777ZM92.242 13V4.864H88.984V3.46H97.084V4.864H93.826V13H92.242ZM102.672 13.18C101.868 13.18 101.112 13.006 100.404 12.658C99.7085 12.31 99.1445 11.776 98.7125 11.056C98.2925 10.336 98.0825 9.424 98.0825 8.32V7.96C98.0825 6.904 98.2865 6.034 98.6945 5.35C99.1025 4.654 99.6425 4.138 100.314 3.802C100.986 3.454 101.712 3.28 102.492 3.28C103.896 3.28 104.982 3.664 105.75 4.432C106.518 5.2 106.902 6.286 106.902 7.69V8.698H99.6665C99.6665 9.442 99.8165 10.036 100.116 10.48C100.428 10.924 100.812 11.248 101.268 11.452C101.736 11.644 102.204 11.74 102.672 11.74C103.392 11.74 103.944 11.62 104.328 11.38C104.724 11.14 105.006 10.81 105.174 10.39H106.722C106.53 11.302 106.056 11.998 105.3 12.478C104.556 12.946 103.68 13.18 102.672 13.18ZM102.582 4.72C102.09 4.72 101.622 4.816 101.178 5.008C100.734 5.188 100.368 5.476 100.08 5.872C99.8045 6.268 99.6665 6.778 99.6665 7.402H105.408C105.396 6.742 105.258 6.22 104.994 5.836C104.742 5.44 104.406 5.158 103.986 4.99C103.566 4.81 103.098 4.72 102.582 4.72ZM113.654 13V3.46H117.794C118.586 3.46 119.234 3.574 119.738 3.802C120.242 4.018 120.614 4.324 120.854 4.72C121.094 5.104 121.214 5.554 121.214 6.07C121.214 6.49 121.076 6.892 120.8 7.276C120.536 7.648 120.194 7.906 119.774 8.05C120.362 8.194 120.806 8.47 121.106 8.878C121.418 9.274 121.574 9.742 121.574 10.282C121.574 11.11 121.298 11.77 120.746 12.262C120.194 12.754 119.33 13 118.154 13H113.654ZM115.238 11.596H118.154C118.826 11.596 119.3 11.476 119.576 11.236C119.852 10.996 119.99 10.654 119.99 10.21C119.99 9.754 119.852 9.406 119.576 9.166C119.3 8.914 118.826 8.788 118.154 8.788H115.238V11.596ZM115.238 7.492H117.794C118.478 7.492 118.952 7.372 119.216 7.132C119.492 6.892 119.63 6.562 119.63 6.142C119.63 5.746 119.492 5.434 119.216 5.206C118.952 4.978 118.478 4.864 117.794 4.864H115.238V7.492ZM127.072 13.18C126.28 13.18 125.596 13.066 125.02 12.838C124.444 12.61 123.994 12.28 123.67 11.848C123.346 11.416 123.16 10.9 123.112 10.3H124.696C124.756 10.612 124.888 10.876 125.092 11.092C125.296 11.308 125.566 11.47 125.902 11.578C126.238 11.686 126.628 11.74 127.072 11.74C127.9 11.74 128.5 11.602 128.872 11.326C129.256 11.038 129.448 10.696 129.448 10.3C129.448 9.832 129.292 9.466 128.98 9.202C128.668 8.926 128.128 8.788 127.36 8.788H125.722V7.492H127.252C127.912 7.492 128.38 7.366 128.656 7.114C128.944 6.862 129.088 6.508 129.088 6.052C129.088 5.692 128.92 5.38 128.584 5.116C128.248 4.852 127.744 4.72 127.072 4.72C126.34 4.72 125.806 4.84 125.47 5.08C125.146 5.308 124.948 5.638 124.876 6.07H123.292C123.34 5.53 123.52 5.05 123.832 4.63C124.144 4.21 124.576 3.88 125.128 3.64C125.68 3.4 126.328 3.28 127.072 3.28C128.296 3.28 129.202 3.538 129.79 4.054C130.378 4.57 130.672 5.236 130.672 6.052C130.672 6.508 130.558 6.91 130.33 7.258C130.102 7.594 129.736 7.858 129.232 8.05C129.904 8.23 130.372 8.518 130.636 8.914C130.9 9.31 131.032 9.772 131.032 10.3C131.032 10.816 130.882 11.296 130.582 11.74C130.282 12.172 129.838 12.52 129.25 12.784C128.674 13.048 127.948 13.18 127.072 13.18ZM133.289 13V3.46H134.873V7.438H139.805V3.46H141.389V13H139.805V8.842H134.873V13H133.289ZM148.235 13.18C147.431 13.18 146.675 13.006 145.967 12.658C145.271 12.298 144.707 11.758 144.275 11.038C143.855 10.318 143.645 9.412 143.645 8.32V7.96C143.645 6.928 143.855 6.064 144.275 5.368C144.707 4.672 145.271 4.15 145.967 3.802C146.675 3.454 147.431 3.28 148.235 3.28C149.051 3.28 149.807 3.454 150.503 3.802C151.199 4.15 151.757 4.672 152.177 5.368C152.609 6.064 152.825 6.928 152.825 7.96V8.32C152.825 9.412 152.609 10.318 152.177 11.038C151.757 11.758 151.199 12.298 150.503 12.658C149.807 13.006 149.051 13.18 148.235 13.18ZM148.235 11.74C148.727 11.74 149.195 11.632 149.639 11.416C150.095 11.188 150.467 10.822 150.755 10.318C151.055 9.814 151.205 9.148 151.205 8.32V7.96C151.205 7.192 151.055 6.574 150.755 6.106C150.467 5.626 150.095 5.278 149.639 5.062C149.195 4.834 148.727 4.72 148.235 4.72C147.755 4.72 147.287 4.834 146.831 5.062C146.375 5.278 145.997 5.626 145.697 6.106C145.409 6.574 145.265 7.192 145.265 7.96V8.32C145.265 9.148 145.409 9.814 145.697 10.318C145.997 10.822 146.375 11.188 146.831 11.416C147.287 11.632 147.755 11.74 148.235 11.74ZM158.758 13.18C157.942 13.18 157.204 13.006 156.544 12.658C155.896 12.298 155.38 11.758 154.996 11.038C154.624 10.318 154.438 9.412 154.438 8.32V7.96C154.438 6.928 154.642 6.064 155.05 5.368C155.458 4.672 155.992 4.15 156.652 3.802C157.312 3.454 158.014 3.28 158.758 3.28C159.514 3.28 160.162 3.418 160.702 3.694C161.254 3.958 161.698 4.324 162.034 4.792C162.37 5.248 162.598 5.764 162.718 6.34H161.098C160.906 5.884 160.636 5.5 160.288 5.188C159.952 4.876 159.442 4.72 158.758 4.72C158.29 4.72 157.852 4.834 157.444 5.062C157.036 5.278 156.7 5.626 156.436 6.106C156.184 6.574 156.058 7.192 156.058 7.96V8.32C156.058 9.136 156.184 9.796 156.436 10.3C156.7 10.804 157.036 11.17 157.444 11.398C157.852 11.626 158.29 11.74 158.758 11.74C159.346 11.74 159.838 11.596 160.234 11.308C160.642 11.02 160.93 10.624 161.098 10.12H162.718C162.574 10.744 162.316 11.29 161.944 11.758C161.572 12.214 161.116 12.568 160.576 12.82C160.036 13.06 159.43 13.18 158.758 13.18ZM169.377 13V3.46H170.961V7.438H175.893V3.46H177.477V13H175.893V8.842H170.961V13H169.377ZM183.081 13.18C182.385 13.18 181.791 13.054 181.299 12.802C180.819 12.538 180.453 12.184 180.201 11.74C179.949 11.284 179.823 10.774 179.823 10.21C179.823 9.262 180.099 8.578 180.651 8.158C181.215 7.738 182.019 7.528 183.063 7.528H186.159V6.88C186.159 6.064 185.973 5.5 185.601 5.188C185.241 4.876 184.695 4.72 183.963 4.72C183.279 4.72 182.781 4.852 182.469 5.116C182.157 5.368 181.983 5.656 181.947 5.98H180.363C180.399 5.464 180.573 5.008 180.885 4.612C181.197 4.204 181.623 3.88 182.163 3.64C182.703 3.4 183.333 3.28 184.053 3.28C184.809 3.28 185.463 3.4 186.015 3.64C186.567 3.868 186.993 4.234 187.293 4.738C187.593 5.23 187.743 5.884 187.743 6.7V10.57C187.743 11.074 187.743 11.518 187.743 11.902C187.755 12.274 187.785 12.64 187.833 13H186.447C186.411 12.724 186.387 12.466 186.375 12.226C186.363 11.974 186.357 11.692 186.357 11.38C186.105 11.884 185.697 12.31 185.133 12.658C184.569 13.006 183.885 13.18 183.081 13.18ZM183.423 11.74C183.927 11.74 184.383 11.65 184.791 11.47C185.211 11.29 185.541 11.026 185.781 10.678C186.033 10.33 186.159 9.904 186.159 9.4V8.752H183.333C182.745 8.752 182.283 8.872 181.947 9.112C181.611 9.34 181.443 9.706 181.443 10.21C181.443 10.654 181.599 11.02 181.911 11.308C182.235 11.596 182.739 11.74 183.423 11.74ZM197.219 13V4.864H193.961V3.46H202.061V4.864H198.803V13H197.219ZM207.649 13.18C206.845 13.18 206.089 13.006 205.381 12.658C204.685 12.31 204.121 11.776 203.689 11.056C203.269 10.336 203.059 9.424 203.059 8.32V7.96C203.059 6.904 203.263 6.034 203.671 5.35C204.079 4.654 204.619 4.138 205.291 3.802C205.963 3.454 206.689 3.28 207.469 3.28C208.873 3.28 209.959 3.664 210.727 4.432C211.495 5.2 211.879 6.286 211.879 7.69V8.698H204.643C204.643 9.442 204.793 10.036 205.093 10.48C205.405 10.924 205.789 11.248 206.245 11.452C206.713 11.644 207.181 11.74 207.649 11.74C208.369 11.74 208.921 11.62 209.305 11.38C209.701 11.14 209.983 10.81 210.151 10.39H211.699C211.507 11.302 211.033 11.998 210.277 12.478C209.533 12.946 208.657 13.18 207.649 13.18ZM207.559 4.72C207.067 4.72 206.599 4.816 206.155 5.008C205.711 5.188 205.345 5.476 205.057 5.872C204.781 6.268 204.643 6.778 204.643 7.402H210.385C210.373 6.742 210.235 6.22 209.971 5.836C209.719 5.44 209.383 5.158 208.963 4.99C208.543 4.81 208.075 4.72 207.559 4.72ZM213.505 13.18C213.421 13.18 213.331 13.174 213.235 13.162C213.151 13.15 213.061 13.138 212.965 13.126V11.542C213.001 11.554 213.091 11.56 213.235 11.56C213.595 11.56 213.889 11.404 214.117 11.092C214.345 10.768 214.507 10.204 214.603 9.4C214.711 8.584 214.765 7.444 214.765 5.98V3.46H221.605V13H220.021V4.864H216.349V6.34C216.349 7.672 216.289 8.782 216.169 9.67C216.049 10.546 215.869 11.242 215.629 11.758C215.401 12.274 215.107 12.64 214.747 12.856C214.387 13.072 213.973 13.18 213.505 13.18ZM228.444 13.18C227.64 13.18 226.884 13.006 226.176 12.658C225.48 12.31 224.916 11.776 224.484 11.056C224.064 10.336 223.854 9.424 223.854 8.32V7.96C223.854 6.904 224.058 6.034 224.466 5.35C224.874 4.654 225.414 4.138 226.086 3.802C226.758 3.454 227.484 3.28 228.264 3.28C229.668 3.28 230.754 3.664 231.522 4.432C232.29 5.2 232.674 6.286 232.674 7.69V8.698H225.438C225.438 9.442 225.588 10.036 225.888 10.48C226.2 10.924 226.584 11.248 227.04 11.452C227.508 11.644 227.976 11.74 228.444 11.74C229.164 11.74 229.716 11.62 230.1 11.38C230.496 11.14 230.778 10.81 230.946 10.39H232.494C232.302 11.302 231.828 11.998 231.072 12.478C230.328 12.946 229.452 13.18 228.444 13.18ZM228.354 4.72C227.862 4.72 227.394 4.816 226.95 5.008C226.506 5.188 226.14 5.476 225.852 5.872C225.576 6.268 225.438 6.778 225.438 7.402H231.18C231.168 6.742 231.03 6.22 230.766 5.836C230.514 5.44 230.178 5.158 229.758 4.99C229.338 4.81 228.87 4.72 228.354 4.72ZM234.925 13V3.46H241.405V4.864H236.509V13H234.925ZM243.205 16.6V3.46H244.681V5.26C245.005 4.624 245.455 4.138 246.031 3.802C246.619 3.454 247.297 3.28 248.065 3.28C249.265 3.28 250.225 3.676 250.945 4.468C251.665 5.248 252.025 6.412 252.025 7.96V8.32C252.025 9.4 251.857 10.3 251.521 11.02C251.197 11.74 250.735 12.28 250.135 12.64C249.547 13 248.857 13.18 248.065 13.18C247.249 13.18 246.565 13 246.013 12.64C245.473 12.28 245.065 11.83 244.789 11.29V16.6H243.205ZM247.705 11.776C248.485 11.776 249.133 11.482 249.649 10.894C250.177 10.306 250.441 9.448 250.441 8.32V7.96C250.441 6.916 250.177 6.112 249.649 5.548C249.133 4.972 248.485 4.684 247.705 4.684C247.129 4.684 246.619 4.804 246.175 5.044C245.743 5.284 245.401 5.614 245.149 6.034C244.909 6.442 244.789 6.904 244.789 7.42V8.86C244.789 9.436 244.909 9.946 245.149 10.39C245.401 10.822 245.743 11.164 246.175 11.416C246.619 11.656 247.129 11.776 247.705 11.776ZM256.997 13.18C256.301 13.18 255.707 13.054 255.215 12.802C254.735 12.538 254.369 12.184 254.117 11.74C253.865 11.284 253.739 10.774 253.739 10.21C253.739 9.262 254.015 8.578 254.567 8.158C255.131 7.738 255.935 7.528 256.979 7.528H260.075V6.88C260.075 6.064 259.889 5.5 259.517 5.188C259.157 4.876 258.611 4.72 257.879 4.72C257.195 4.72 256.697 4.852 256.385 5.116C256.073 5.368 255.899 5.656 255.863 5.98H254.279C254.315 5.464 254.489 5.008 254.801 4.612C255.113 4.204 255.539 3.88 256.079 3.64C256.619 3.4 257.249 3.28 257.969 3.28C258.725 3.28 259.379 3.4 259.931 3.64C260.483 3.868 260.909 4.234 261.209 4.738C261.509 5.23 261.659 5.884 261.659 6.7V10.57C261.659 11.074 261.659 11.518 261.659 11.902C261.671 12.274 261.701 12.64 261.749 13H260.363C260.327 12.724 260.303 12.466 260.291 12.226C260.279 11.974 260.273 11.692 260.273 11.38C260.021 11.884 259.613 12.31 259.049 12.658C258.485 13.006 257.801 13.18 256.997 13.18ZM257.339 11.74C257.843 11.74 258.299 11.65 258.707 11.47C259.127 11.29 259.457 11.026 259.697 10.678C259.949 10.33 260.075 9.904 260.075 9.4V8.752H257.249C256.661 8.752 256.199 8.872 255.863 9.112C255.527 9.34 255.359 9.706 255.359 10.21C255.359 10.654 255.515 11.02 255.827 11.308C256.151 11.596 256.655 11.74 257.339 11.74ZM264.457 13V3.46H266.149L269.551 9.4L272.953 3.46H274.537V13H272.953V6.07L270.127 10.93H268.867L266.041 6.07V13H264.457ZM277.412 13V3.46H279.104L282.506 9.4L285.908 3.46H287.492V13H285.908V6.07L283.082 10.93H281.822L278.996 6.07V13H277.412ZM290.367 13V3.46H291.951V7.06H293.877C295.077 7.06 295.959 7.324 296.523 7.852C297.099 8.38 297.387 9.112 297.387 10.048C297.387 10.648 297.261 11.17 297.009 11.614C296.757 12.058 296.373 12.4 295.857 12.64C295.341 12.88 294.681 13 293.877 13H290.367ZM291.951 11.596H293.787C294.531 11.596 295.053 11.464 295.353 11.2C295.653 10.936 295.803 10.546 295.803 10.03C295.803 9.514 295.653 9.124 295.353 8.86C295.053 8.596 294.531 8.464 293.787 8.464H291.951V11.596ZM298.863 13V3.46H300.447V13H298.863ZM306.935 15.25V11.596H308.105C308.285 11.356 308.441 10.954 308.573 10.39C308.705 9.814 308.807 9.142 308.879 8.374C308.963 7.606 309.005 6.808 309.005 5.98V3.46H315.665V11.596H317.015V15.25H315.503V13H308.447V15.25H306.935ZM309.725 11.596H314.081V4.864H310.553V6.34C310.553 7.348 310.481 8.326 310.337 9.274C310.205 10.21 310.001 10.984 309.725 11.596ZM318.815 13.18C318.731 13.18 318.641 13.174 318.545 13.162C318.461 13.15 318.371 13.138 318.275 13.126V11.542C318.311 11.554 318.401 11.56 318.545 11.56C318.905 11.56 319.199 11.404 319.427 11.092C319.655 10.768 319.817 10.204 319.913 9.4C320.021 8.584 320.075 7.444 320.075 5.98V3.46H326.915V13H325.331V4.864H321.659V6.34C321.659 7.672 321.599 8.782 321.479 9.67C321.359 10.546 321.179 11.242 320.939 11.758C320.711 12.274 320.417 12.64 320.057 12.856C319.697 13.072 319.283 13.18 318.815 13.18ZM329.074 13L331.666 9.22C330.874 9.04 330.304 8.716 329.956 8.248C329.608 7.768 329.434 7.156 329.434 6.412C329.434 5.788 329.56 5.26 329.812 4.828C330.064 4.384 330.454 4.048 330.982 3.82C331.51 3.58 332.194 3.46 333.034 3.46H337.174V13H335.59V9.364H333.16L330.838 13H329.074ZM331.018 6.412C331.018 6.916 331.162 7.3 331.45 7.564C331.75 7.828 332.248 7.96 332.944 7.96H335.59V4.864H332.944C332.248 4.864 331.75 4.996 331.45 5.26C331.162 5.524 331.018 5.908 331.018 6.412ZM348.52 13.18C347.716 13.18 346.96 13.006 346.252 12.658C345.556 12.298 344.992 11.758 344.56 11.038C344.14 10.318 343.93 9.412 343.93 8.32V7.96C343.93 6.928 344.14 6.064 344.56 5.368C344.992 4.672 345.556 4.15 346.252 3.802C346.96 3.454 347.716 3.28 348.52 3.28C349.336 3.28 350.092 3.454 350.788 3.802C351.484 4.15 352.042 4.672 352.462 5.368C352.894 6.064 353.11 6.928 353.11 7.96V8.32C353.11 9.412 352.894 10.318 352.462 11.038C352.042 11.758 351.484 12.298 350.788 12.658C350.092 13.006 349.336 13.18 348.52 13.18ZM348.52 11.74C349.012 11.74 349.48 11.632 349.924 11.416C350.38 11.188 350.752 10.822 351.04 10.318C351.34 9.814 351.49 9.148 351.49 8.32V7.96C351.49 7.192 351.34 6.574 351.04 6.106C350.752 5.626 350.38 5.278 349.924 5.062C349.48 4.834 349.012 4.72 348.52 4.72C348.04 4.72 347.572 4.834 347.116 5.062C346.66 5.278 346.282 5.626 345.982 6.106C345.694 6.574 345.55 7.192 345.55 7.96V8.32C345.55 9.148 345.694 9.814 345.982 10.318C346.282 10.822 346.66 11.188 347.116 11.416C347.572 11.632 348.04 11.74 348.52 11.74ZM355.353 16.6V3.46H356.829V5.26C357.153 4.624 357.603 4.138 358.179 3.802C358.767 3.454 359.445 3.28 360.213 3.28C361.413 3.28 362.373 3.676 363.093 4.468C363.813 5.248 364.173 6.412 364.173 7.96V8.32C364.173 9.4 364.005 10.3 363.669 11.02C363.345 11.74 362.883 12.28 362.283 12.64C361.695 13 361.005 13.18 360.213 13.18C359.397 13.18 358.713 13 358.161 12.64C357.621 12.28 357.213 11.83 356.937 11.29V16.6H355.353ZM359.853 11.776C360.633 11.776 361.281 11.482 361.797 10.894C362.325 10.306 362.589 9.448 362.589 8.32V7.96C362.589 6.916 362.325 6.112 361.797 5.548C361.281 4.972 360.633 4.684 359.853 4.684C359.277 4.684 358.767 4.804 358.323 5.044C357.891 5.284 357.549 5.614 357.297 6.034C357.057 6.442 356.937 6.904 356.937 7.42V8.86C356.937 9.436 357.057 9.946 357.297 10.39C357.549 10.822 357.891 11.164 358.323 11.416C358.767 11.656 359.277 11.776 359.853 11.776ZM366.427 13V3.46H372.907V4.864H368.011V13H366.427ZM377.073 13.18C376.377 13.18 375.783 13.054 375.291 12.802C374.811 12.538 374.445 12.184 374.193 11.74C373.941 11.284 373.815 10.774 373.815 10.21C373.815 9.262 374.091 8.578 374.643 8.158C375.207 7.738 376.011 7.528 377.055 7.528H380.151V6.88C380.151 6.064 379.965 5.5 379.593 5.188C379.233 4.876 378.687 4.72 377.955 4.72C377.271 4.72 376.773 4.852 376.461 5.116C376.149 5.368 375.975 5.656 375.939 5.98H374.355C374.391 5.464 374.565 5.008 374.877 4.612C375.189 4.204 375.615 3.88 376.155 3.64C376.695 3.4 377.325 3.28 378.045 3.28C378.801 3.28 379.455 3.4 380.007 3.64C380.559 3.868 380.985 4.234 381.285 4.738C381.585 5.23 381.735 5.884 381.735 6.7V10.57C381.735 11.074 381.735 11.518 381.735 11.902C381.747 12.274 381.777 12.64 381.825 13H380.439C380.403 12.724 380.379 12.466 380.367 12.226C380.355 11.974 380.349 11.692 380.349 11.38C380.097 11.884 379.689 12.31 379.125 12.658C378.561 13.006 377.877 13.18 377.073 13.18ZM377.415 11.74C377.919 11.74 378.375 11.65 378.783 11.47C379.203 11.29 379.533 11.026 379.773 10.678C380.025 10.33 380.151 9.904 380.151 9.4V8.752H377.325C376.737 8.752 376.275 8.872 375.939 9.112C375.603 9.34 375.435 9.706 375.435 10.21C375.435 10.654 375.591 11.02 375.903 11.308C376.227 11.596 376.731 11.74 377.415 11.74ZM384.533 13V3.46H386.117V7.438H391.049V3.46H392.633V13H391.049V8.842H386.117V13H384.533ZM395.519 13V3.46H397.103V10.66L402.035 3.46H403.619V13H402.035V5.8L397.103 13H395.519ZM409.745 13.18C408.953 13.18 408.269 13.066 407.693 12.838C407.117 12.61 406.667 12.28 406.343 11.848C406.019 11.416 405.833 10.9 405.785 10.3H407.369C407.429 10.612 407.561 10.876 407.765 11.092C407.969 11.308 408.239 11.47 408.575 11.578C408.911 11.686 409.301 11.74 409.745 11.74C410.573 11.74 411.173 11.602 411.545 11.326C411.929 11.038 412.121 10.696 412.121 10.3C412.121 9.832 411.965 9.466 411.653 9.202C411.341 8.926 410.801 8.788 410.033 8.788H408.395V7.492H409.925C410.585 7.492 411.053 7.366 411.329 7.114C411.617 6.862 411.761 6.508 411.761 6.052C411.761 5.692 411.593 5.38 411.257 5.116C410.921 4.852 410.417 4.72 409.745 4.72C409.013 4.72 408.479 4.84 408.143 5.08C407.819 5.308 407.621 5.638 407.549 6.07H405.965C406.013 5.53 406.193 5.05 406.505 4.63C406.817 4.21 407.249 3.88 407.801 3.64C408.353 3.4 409.001 3.28 409.745 3.28C410.969 3.28 411.875 3.538 412.463 4.054C413.051 4.57 413.345 5.236 413.345 6.052C413.345 6.508 413.231 6.91 413.003 7.258C412.775 7.594 412.409 7.858 411.905 8.05C412.577 8.23 413.045 8.518 413.309 8.914C413.573 9.31 413.705 9.772 413.705 10.3C413.705 10.816 413.555 11.296 413.255 11.74C412.955 12.172 412.511 12.52 411.923 12.784C411.347 13.048 410.621 13.18 409.745 13.18ZM418.68 13.18C417.984 13.18 417.39 13.054 416.898 12.802C416.418 12.538 416.052 12.184 415.8 11.74C415.548 11.284 415.422 10.774 415.422 10.21C415.422 9.262 415.698 8.578 416.25 8.158C416.814 7.738 417.618 7.528 418.662 7.528H421.758V6.88C421.758 6.064 421.572 5.5 421.2 5.188C420.84 4.876 420.294 4.72 419.562 4.72C418.878 4.72 418.38 4.852 418.068 5.116C417.756 5.368 417.582 5.656 417.546 5.98H415.962C415.998 5.464 416.172 5.008 416.484 4.612C416.796 4.204 417.222 3.88 417.762 3.64C418.302 3.4 418.932 3.28 419.652 3.28C420.408 3.28 421.062 3.4 421.614 3.64C422.166 3.868 422.592 4.234 422.892 4.738C423.192 5.23 423.342 5.884 423.342 6.7V10.57C423.342 11.074 423.342 11.518 423.342 11.902C423.354 12.274 423.384 12.64 423.432 13H422.046C422.01 12.724 421.986 12.466 421.974 12.226C421.962 11.974 421.956 11.692 421.956 11.38C421.704 11.884 421.296 12.31 420.732 12.658C420.168 13.006 419.484 13.18 418.68 13.18ZM419.022 11.74C419.526 11.74 419.982 11.65 420.39 11.47C420.81 11.29 421.14 11.026 421.38 10.678C421.632 10.33 421.758 9.904 421.758 9.4V8.752H418.932C418.344 8.752 417.882 8.872 417.546 9.112C417.21 9.34 417.042 9.706 417.042 10.21C417.042 10.654 417.198 11.02 417.51 11.308C417.834 11.596 418.338 11.74 419.022 11.74ZM433.898 15.25V13H426.14V3.46H427.724V11.596H432.296V3.46H433.88V11.596H435.41V15.25H433.898ZM437.302 13V3.46H438.886V10.66L443.818 3.46H445.402V13H443.818V5.8L438.886 13H437.302ZM448.289 13V3.46H449.873V10.66L454.805 3.46H456.389V13H454.805V5.8L449.873 13H448.289ZM0.968945 36V23.4H2.73295L6.94495 31.41L11.1569 23.4H12.8489V36H11.1569V26.46L7.53895 33.3H6.27895L2.66095 26.46V36H0.968945ZM20.0553 36.18C19.2513 36.18 18.4953 36.006 17.7873 35.658C17.0913 35.31 16.5273 34.776 16.0953 34.056C15.6753 33.336 15.4653 32.424 15.4653 31.32V30.96C15.4653 29.904 15.6693 29.034 16.0773 28.35C16.4853 27.654 17.0253 27.138 17.6973 26.802C18.3693 26.454 19.0953 26.28 19.8753 26.28C21.2793 26.28 22.3653 26.664 23.1333 27.432C23.9013 28.2 24.2853 29.286 24.2853 30.69V31.698H17.0493C17.0493 32.442 17.1993 33.036 17.4993 33.48C17.8113 33.924 18.1953 34.248 18.6513 34.452C19.1193 34.644 19.5873 34.74 20.0553 34.74C20.7753 34.74 21.3273 34.62 21.7113 34.38C22.1073 34.14 22.3893 33.81 22.5573 33.39H24.1053C23.9133 34.302 23.4393 34.998 22.6833 35.478C21.9393 35.946 21.0633 36.18 20.0553 36.18ZM19.9653 27.72C19.4733 27.72 19.0053 27.816 18.5613 28.008C18.1173 28.188 17.7513 28.476 17.4633 28.872C17.1873 29.268 17.0493 29.778 17.0493 30.402H22.7913C22.7793 29.742 22.6413 29.22 22.3773 28.836C22.1253 28.44 21.7893 28.158 21.3693 27.99C20.9493 27.81 20.4813 27.72 19.9653 27.72ZM25.1951 36L28.7951 31.086L25.3751 26.46H27.1391L30.0551 30.456H31.1531V26.46H32.7371V30.456H33.8171L36.7871 26.46H38.5151L35.0951 31.032L38.6951 36H36.8231L33.8171 31.824H32.7371V36H31.1531V31.824H30.0551L27.0311 36H25.1951ZM39.6774 38.25V34.596H40.8474C41.0274 34.356 41.1834 33.954 41.3154 33.39C41.4474 32.814 41.5494 32.142 41.6214 31.374C41.7054 30.606 41.7474 29.808 41.7474 28.98V26.46H48.4074V34.596H49.7574V38.25H48.2454V36H41.1894V38.25H39.6774ZM42.4674 34.596H46.8234V27.864H43.2954V29.34C43.2954 30.348 43.2234 31.326 43.0794 32.274C42.9474 33.21 42.7434 33.984 42.4674 34.596ZM52.74 39.78C52.56 39.78 52.38 39.762 52.2 39.726V38.286C52.38 38.322 52.56 38.34 52.74 38.34C52.98 38.34 53.178 38.28 53.334 38.16C53.502 38.052 53.67 37.83 53.838 37.494C54.006 37.158 54.21 36.66 54.45 36L50.4 26.46H52.164L55.26 34.2L58.068 26.46H59.76L56.16 36C55.824 36.9 55.5 37.626 55.188 38.178C54.888 38.73 54.546 39.132 54.162 39.384C53.79 39.648 53.316 39.78 52.74 39.78ZM61.5523 36V26.46H63.1363V30.438H68.0683V26.46H69.6523V36H68.0683V31.842H63.1363V36H61.5523ZM75.2566 36.18C74.5606 36.18 73.9666 36.054 73.4746 35.802C72.9946 35.538 72.6286 35.184 72.3766 34.74C72.1246 34.284 71.9986 33.774 71.9986 33.21C71.9986 32.262 72.2746 31.578 72.8266 31.158C73.3906 30.738 74.1946 30.528 75.2386 30.528H78.3346V29.88C78.3346 29.064 78.1486 28.5 77.7766 28.188C77.4166 27.876 76.8706 27.72 76.1386 27.72C75.4546 27.72 74.9566 27.852 74.6446 28.116C74.3326 28.368 74.1586 28.656 74.1226 28.98H72.5386C72.5746 28.464 72.7486 28.008 73.0606 27.612C73.3726 27.204 73.7986 26.88 74.3386 26.64C74.8786 26.4 75.5086 26.28 76.2286 26.28C76.9846 26.28 77.6386 26.4 78.1906 26.64C78.7426 26.868 79.1686 27.234 79.4686 27.738C79.7686 28.23 79.9186 28.884 79.9186 29.7V33.57C79.9186 34.074 79.9186 34.518 79.9186 34.902C79.9306 35.274 79.9606 35.64 80.0086 36H78.6226C78.5866 35.724 78.5626 35.466 78.5506 35.226C78.5386 34.974 78.5326 34.692 78.5326 34.38C78.2806 34.884 77.8726 35.31 77.3086 35.658C76.7446 36.006 76.0606 36.18 75.2566 36.18ZM75.5986 34.74C76.1026 34.74 76.5586 34.65 76.9666 34.47C77.3866 34.29 77.7166 34.026 77.9566 33.678C78.2086 33.33 78.3346 32.904 78.3346 32.4V31.752H75.5086C74.9206 31.752 74.4586 31.872 74.1226 32.112C73.7866 32.34 73.6186 32.706 73.6186 33.21C73.6186 33.654 73.7746 34.02 74.0866 34.308C74.4106 34.596 74.9146 34.74 75.5986 34.74ZM82.7164 39.6V26.46H84.1924V28.26C84.5164 27.624 84.9664 27.138 85.5424 26.802C86.1304 26.454 86.8084 26.28 87.5764 26.28C88.7764 26.28 89.7364 26.676 90.4564 27.468C91.1764 28.248 91.5364 29.412 91.5364 30.96V31.32C91.5364 32.4 91.3684 33.3 91.0324 34.02C90.7084 34.74 90.2464 35.28 89.6464 35.64C89.0584 36 88.3684 36.18 87.5764 36.18C86.7604 36.18 86.0764 36 85.5244 35.64C84.9844 35.28 84.5764 34.83 84.3004 34.29V39.6H82.7164ZM87.2164 34.776C87.9964 34.776 88.6444 34.482 89.1604 33.894C89.6884 33.306 89.9524 32.448 89.9524 31.32V30.96C89.9524 29.916 89.6884 29.112 89.1604 28.548C88.6444 27.972 87.9964 27.684 87.2164 27.684C86.6404 27.684 86.1304 27.804 85.6864 28.044C85.2544 28.284 84.9124 28.614 84.6604 29.034C84.4204 29.442 84.3004 29.904 84.3004 30.42V31.86C84.3004 32.436 84.4204 32.946 84.6604 33.39C84.9124 33.822 85.2544 34.164 85.6864 34.416C86.1304 34.656 86.6404 34.776 87.2164 34.776ZM97.7506 36.18C96.9466 36.18 96.1906 36.006 95.4826 35.658C94.7866 35.298 94.2226 34.758 93.7906 34.038C93.3706 33.318 93.1606 32.412 93.1606 31.32V30.96C93.1606 29.928 93.3706 29.064 93.7906 28.368C94.2226 27.672 94.7866 27.15 95.4826 26.802C96.1906 26.454 96.9466 26.28 97.7506 26.28C98.5666 26.28 99.3226 26.454 100.019 26.802C100.715 27.15 101.273 27.672 101.693 28.368C102.125 29.064 102.341 29.928 102.341 30.96V31.32C102.341 32.412 102.125 33.318 101.693 34.038C101.273 34.758 100.715 35.298 100.019 35.658C99.3226 36.006 98.5666 36.18 97.7506 36.18ZM97.7506 34.74C98.2426 34.74 98.7106 34.632 99.1546 34.416C99.6106 34.188 99.9826 33.822 100.271 33.318C100.571 32.814 100.721 32.148 100.721 31.32V30.96C100.721 30.192 100.571 29.574 100.271 29.106C99.9826 28.626 99.6106 28.278 99.1546 28.062C98.7106 27.834 98.2426 27.72 97.7506 27.72C97.2706 27.72 96.8026 27.834 96.3466 28.062C95.8906 28.278 95.5126 28.626 95.2126 29.106C94.9246 29.574 94.7806 30.192 94.7806 30.96V31.32C94.7806 32.148 94.9246 32.814 95.2126 33.318C95.5126 33.822 95.8906 34.188 96.3466 34.416C96.8026 34.632 97.2706 34.74 97.7506 34.74ZM103.328 38.25V34.596H104.498C104.678 34.356 104.834 33.954 104.966 33.39C105.098 32.814 105.2 32.142 105.272 31.374C105.356 30.606 105.398 29.808 105.398 28.98V26.46H112.058V34.596H113.408V38.25H111.896V36H104.84V38.25H103.328ZM106.118 34.596H110.474V27.864H106.946V29.34C106.946 30.348 106.874 31.326 106.73 32.274C106.598 33.21 106.394 33.984 106.118 34.596ZM115.306 36V26.46H116.89V30.438H121.822V26.46H123.406V36H121.822V31.842H116.89V36H115.306ZM130.253 36.18C129.449 36.18 128.693 36.006 127.985 35.658C127.289 35.298 126.725 34.758 126.293 34.038C125.873 33.318 125.663 32.412 125.663 31.32V30.96C125.663 29.928 125.873 29.064 126.293 28.368C126.725 27.672 127.289 27.15 127.985 26.802C128.693 26.454 129.449 26.28 130.253 26.28C131.069 26.28 131.825 26.454 132.521 26.802C133.217 27.15 133.775 27.672 134.195 28.368C134.627 29.064 134.843 29.928 134.843 30.96V31.32C134.843 32.412 134.627 33.318 134.195 34.038C133.775 34.758 133.217 35.298 132.521 35.658C131.825 36.006 131.069 36.18 130.253 36.18ZM130.253 34.74C130.745 34.74 131.213 34.632 131.657 34.416C132.113 34.188 132.485 33.822 132.773 33.318C133.073 32.814 133.223 32.148 133.223 31.32V30.96C133.223 30.192 133.073 29.574 132.773 29.106C132.485 28.626 132.113 28.278 131.657 28.062C131.213 27.834 130.745 27.72 130.253 27.72C129.773 27.72 129.305 27.834 128.849 28.062C128.393 28.278 128.015 28.626 127.715 29.106C127.427 29.574 127.283 30.192 127.283 30.96V31.32C127.283 32.148 127.427 32.814 127.715 33.318C128.015 33.822 128.393 34.188 128.849 34.416C129.305 34.632 129.773 34.74 130.253 34.74ZM137.086 36V26.46H143.566V27.864H138.67V36H137.086ZM149.149 36.18C148.345 36.18 147.589 36.006 146.881 35.658C146.185 35.298 145.621 34.758 145.189 34.038C144.769 33.318 144.559 32.412 144.559 31.32V30.96C144.559 29.928 144.769 29.064 145.189 28.368C145.621 27.672 146.185 27.15 146.881 26.802C147.589 26.454 148.345 26.28 149.149 26.28C149.965 26.28 150.721 26.454 151.417 26.802C152.113 27.15 152.671 27.672 153.091 28.368C153.523 29.064 153.739 29.928 153.739 30.96V31.32C153.739 32.412 153.523 33.318 153.091 34.038C152.671 34.758 152.113 35.298 151.417 35.658C150.721 36.006 149.965 36.18 149.149 36.18ZM149.149 34.74C149.641 34.74 150.109 34.632 150.553 34.416C151.009 34.188 151.381 33.822 151.669 33.318C151.969 32.814 152.119 32.148 152.119 31.32V30.96C152.119 30.192 151.969 29.574 151.669 29.106C151.381 28.626 151.009 28.278 150.553 28.062C150.109 27.834 149.641 27.72 149.149 27.72C148.669 27.72 148.201 27.834 147.745 28.062C147.289 28.278 146.911 28.626 146.611 29.106C146.323 29.574 146.179 30.192 146.179 30.96V31.32C146.179 32.148 146.323 32.814 146.611 33.318C146.911 33.822 147.289 34.188 147.745 34.416C148.201 34.632 148.669 34.74 149.149 34.74ZM160.482 36V26.46H164.622C165.414 26.46 166.062 26.574 166.566 26.802C167.07 27.018 167.442 27.324 167.682 27.72C167.922 28.104 168.042 28.554 168.042 29.07C168.042 29.49 167.904 29.892 167.628 30.276C167.364 30.648 167.022 30.906 166.602 31.05C167.19 31.194 167.634 31.47 167.934 31.878C168.246 32.274 168.402 32.742 168.402 33.282C168.402 34.11 168.126 34.77 167.574 35.262C167.022 35.754 166.158 36 164.982 36H160.482ZM162.066 34.596H164.982C165.654 34.596 166.128 34.476 166.404 34.236C166.68 33.996 166.818 33.654 166.818 33.21C166.818 32.754 166.68 32.406 166.404 32.166C166.128 31.914 165.654 31.788 164.982 31.788H162.066V34.596ZM162.066 30.492H164.622C165.306 30.492 165.78 30.372 166.044 30.132C166.32 29.892 166.458 29.562 166.458 29.142C166.458 28.746 166.32 28.434 166.044 28.206C165.78 27.978 165.306 27.864 164.622 27.864H162.066V30.492ZM173.378 36.18C172.682 36.18 172.088 36.054 171.596 35.802C171.116 35.538 170.75 35.184 170.498 34.74C170.246 34.284 170.12 33.774 170.12 33.21C170.12 32.262 170.396 31.578 170.948 31.158C171.512 30.738 172.316 30.528 173.36 30.528H176.456V29.88C176.456 29.064 176.27 28.5 175.898 28.188C175.538 27.876 174.992 27.72 174.26 27.72C173.576 27.72 173.078 27.852 172.766 28.116C172.454 28.368 172.28 28.656 172.244 28.98H170.66C170.696 28.464 170.87 28.008 171.182 27.612C171.494 27.204 171.92 26.88 172.46 26.64C173 26.4 173.63 26.28 174.35 26.28C175.106 26.28 175.76 26.4 176.312 26.64C176.864 26.868 177.29 27.234 177.59 27.738C177.89 28.23 178.04 28.884 178.04 29.7V33.57C178.04 34.074 178.04 34.518 178.04 34.902C178.052 35.274 178.082 35.64 178.13 36H176.744C176.708 35.724 176.684 35.466 176.672 35.226C176.66 34.974 176.654 34.692 176.654 34.38C176.402 34.884 175.994 35.31 175.43 35.658C174.866 36.006 174.182 36.18 173.378 36.18ZM173.72 34.74C174.224 34.74 174.68 34.65 175.088 34.47C175.508 34.29 175.838 34.026 176.078 33.678C176.33 33.33 176.456 32.904 176.456 32.4V31.752H173.63C173.042 31.752 172.58 31.872 172.244 32.112C171.908 32.34 171.74 32.706 171.74 33.21C171.74 33.654 171.896 34.02 172.208 34.308C172.532 34.596 173.036 34.74 173.72 34.74ZM184.527 36.18C183.711 36.18 182.973 36.006 182.313 35.658C181.665 35.298 181.149 34.758 180.765 34.038C180.393 33.318 180.207 32.412 180.207 31.32V30.96C180.207 29.928 180.411 29.064 180.819 28.368C181.227 27.672 181.761 27.15 182.421 26.802C183.081 26.454 183.783 26.28 184.527 26.28C185.283 26.28 185.931 26.418 186.471 26.694C187.023 26.958 187.467 27.324 187.803 27.792C188.139 28.248 188.367 28.764 188.487 29.34H186.867C186.675 28.884 186.405 28.5 186.057 28.188C185.721 27.876 185.211 27.72 184.527 27.72C184.059 27.72 183.621 27.834 183.213 28.062C182.805 28.278 182.469 28.626 182.205 29.106C181.953 29.574 181.827 30.192 181.827 30.96V31.32C181.827 32.136 181.953 32.796 182.205 33.3C182.469 33.804 182.805 34.17 183.213 34.398C183.621 34.626 184.059 34.74 184.527 34.74C185.115 34.74 185.607 34.596 186.003 34.308C186.411 34.02 186.699 33.624 186.867 33.12H188.487C188.343 33.744 188.085 34.29 187.713 34.758C187.341 35.214 186.885 35.568 186.345 35.82C185.805 36.06 185.199 36.18 184.527 36.18ZM190.646 36V26.46H192.23V30.438H193.58C193.652 29.514 193.892 28.746 194.3 28.134C194.708 27.522 195.23 27.06 195.866 26.748C196.502 26.436 197.192 26.28 197.936 26.28C198.752 26.28 199.49 26.454 200.15 26.802C200.822 27.15 201.356 27.672 201.752 28.368C202.148 29.064 202.346 29.928 202.346 30.96V31.32C202.346 32.412 202.148 33.318 201.752 34.038C201.356 34.758 200.822 35.298 200.15 35.658C199.49 36.006 198.752 36.18 197.936 36.18C197.18 36.18 196.484 36.024 195.848 35.712C195.212 35.4 194.69 34.926 194.282 34.29C193.886 33.642 193.652 32.826 193.58 31.842H192.23V36H190.646ZM197.936 34.74C198.416 34.74 198.866 34.632 199.286 34.416C199.718 34.188 200.066 33.822 200.33 33.318C200.594 32.814 200.726 32.148 200.726 31.32V30.96C200.726 30.192 200.594 29.574 200.33 29.106C200.066 28.626 199.718 28.278 199.286 28.062C198.866 27.834 198.416 27.72 197.936 27.72C197.456 27.72 197 27.834 196.568 28.062C196.148 28.278 195.806 28.626 195.542 29.106C195.278 29.574 195.146 30.192 195.146 30.96V31.32C195.146 32.148 195.278 32.814 195.542 33.318C195.806 33.822 196.148 34.188 196.568 34.416C197 34.632 197.456 34.74 197.936 34.74ZM204.603 36V26.46H206.187V30.456H207.447L211.011 26.46H212.883L208.743 31.032L213.063 36H211.047L207.447 31.824H206.187V36H204.603ZM214.957 36V26.46H216.541V33.66L221.473 26.46H223.057V36H221.473V28.8L216.541 36H214.957ZM225.943 36V26.46H227.527V30.438H232.459V26.46H234.043V36H232.459V31.842H227.527V36H225.943ZM240.619 36.18C239.803 36.18 239.065 36.006 238.405 35.658C237.757 35.298 237.241 34.758 236.857 34.038C236.485 33.318 236.299 32.412 236.299 31.32V30.96C236.299 29.928 236.503 29.064 236.911 28.368C237.319 27.672 237.853 27.15 238.513 26.802C239.173 26.454 239.875 26.28 240.619 26.28C241.375 26.28 242.023 26.418 242.563 26.694C243.115 26.958 243.559 27.324 243.895 27.792C244.231 28.248 244.459 28.764 244.579 29.34H242.959C242.767 28.884 242.497 28.5 242.149 28.188C241.813 27.876 241.303 27.72 240.619 27.72C240.151 27.72 239.713 27.834 239.305 28.062C238.897 28.278 238.561 28.626 238.297 29.106C238.045 29.574 237.919 30.192 237.919 30.96V31.32C237.919 32.136 238.045 32.796 238.297 33.3C238.561 33.804 238.897 34.17 239.305 34.398C239.713 34.626 240.151 34.74 240.619 34.74C241.207 34.74 241.699 34.596 242.095 34.308C242.503 34.02 242.791 33.624 242.959 33.12H244.579C244.435 33.744 244.177 34.29 243.805 34.758C243.433 35.214 242.977 35.568 242.437 35.82C241.897 36.06 241.291 36.18 240.619 36.18ZM246.738 36V26.46H248.322V30.456H249.582L253.146 26.46H255.018L250.878 31.032L255.198 36H253.182L249.582 31.824H248.322V36H246.738ZM260.7 36.18C259.896 36.18 259.14 36.006 258.432 35.658C257.736 35.298 257.172 34.758 256.74 34.038C256.32 33.318 256.11 32.412 256.11 31.32V30.96C256.11 29.928 256.32 29.064 256.74 28.368C257.172 27.672 257.736 27.15 258.432 26.802C259.14 26.454 259.896 26.28 260.7 26.28C261.516 26.28 262.272 26.454 262.968 26.802C263.664 27.15 264.222 27.672 264.642 28.368C265.074 29.064 265.29 29.928 265.29 30.96V31.32C265.29 32.412 265.074 33.318 264.642 34.038C264.222 34.758 263.664 35.298 262.968 35.658C262.272 36.006 261.516 36.18 260.7 36.18ZM260.7 34.74C261.192 34.74 261.66 34.632 262.104 34.416C262.56 34.188 262.932 33.822 263.22 33.318C263.52 32.814 263.67 32.148 263.67 31.32V30.96C263.67 30.192 263.52 29.574 263.22 29.106C262.932 28.626 262.56 28.278 262.104 28.062C261.66 27.834 261.192 27.72 260.7 27.72C260.22 27.72 259.752 27.834 259.296 28.062C258.84 28.278 258.462 28.626 258.162 29.106C257.874 29.574 257.73 30.192 257.73 30.96V31.32C257.73 32.148 257.874 32.814 258.162 33.318C258.462 33.822 258.84 34.188 259.296 34.416C259.752 34.632 260.22 34.74 260.7 34.74ZM267.533 36V26.46H274.013V27.864H269.117V36H267.533ZM279.596 36.18C278.792 36.18 278.036 36.006 277.328 35.658C276.632 35.298 276.068 34.758 275.636 34.038C275.216 33.318 275.006 32.412 275.006 31.32V30.96C275.006 29.928 275.216 29.064 275.636 28.368C276.068 27.672 276.632 27.15 277.328 26.802C278.036 26.454 278.792 26.28 279.596 26.28C280.412 26.28 281.168 26.454 281.864 26.802C282.56 27.15 283.118 27.672 283.538 28.368C283.97 29.064 284.186 29.928 284.186 30.96V31.32C284.186 32.412 283.97 33.318 283.538 34.038C283.118 34.758 282.56 35.298 281.864 35.658C281.168 36.006 280.412 36.18 279.596 36.18ZM279.596 34.74C280.088 34.74 280.556 34.632 281 34.416C281.456 34.188 281.828 33.822 282.116 33.318C282.416 32.814 282.566 32.148 282.566 31.32V30.96C282.566 30.192 282.416 29.574 282.116 29.106C281.828 28.626 281.456 28.278 281 28.062C280.556 27.834 280.088 27.72 279.596 27.72C279.116 27.72 278.648 27.834 278.192 28.062C277.736 28.278 277.358 28.626 277.058 29.106C276.77 29.574 276.626 30.192 276.626 30.96V31.32C276.626 32.148 276.77 32.814 277.058 33.318C277.358 33.822 277.736 34.188 278.192 34.416C278.648 34.632 279.116 34.74 279.596 34.74ZM293.107 36V27.864H289.849V26.46H297.949V27.864H294.691V36H293.107ZM301.365 39.78C301.185 39.78 301.005 39.762 300.825 39.726V38.286C301.005 38.322 301.185 38.34 301.365 38.34C301.605 38.34 301.803 38.28 301.959 38.16C302.127 38.052 302.295 37.83 302.463 37.494C302.631 37.158 302.835 36.66 303.075 36L299.025 26.46H300.789L303.885 34.2L306.693 26.46H308.385L304.785 36C304.449 36.9 304.125 37.626 303.813 38.178C303.513 38.73 303.171 39.132 302.787 39.384C302.415 39.648 301.941 39.78 301.365 39.78ZM310.177 39.6V26.46H311.653V28.26C311.977 27.624 312.427 27.138 313.003 26.802C313.591 26.454 314.269 26.28 315.037 26.28C316.237 26.28 317.197 26.676 317.917 27.468C318.637 28.248 318.997 29.412 318.997 30.96V31.32C318.997 32.4 318.829 33.3 318.493 34.02C318.169 34.74 317.707 35.28 317.107 35.64C316.519 36 315.829 36.18 315.037 36.18C314.221 36.18 313.537 36 312.985 35.64C312.445 35.28 312.037 34.83 311.761 34.29V39.6H310.177ZM314.677 34.776C315.457 34.776 316.105 34.482 316.621 33.894C317.149 33.306 317.413 32.448 317.413 31.32V30.96C317.413 29.916 317.149 29.112 316.621 28.548C316.105 27.972 315.457 27.684 314.677 27.684C314.101 27.684 313.591 27.804 313.147 28.044C312.715 28.284 312.373 28.614 312.121 29.034C311.881 29.442 311.761 29.904 311.761 30.42V31.86C311.761 32.436 311.881 32.946 312.121 33.39C312.373 33.822 312.715 34.164 313.147 34.416C313.591 34.656 314.101 34.776 314.677 34.776ZM321.252 36V26.46H322.836V30.438H327.768V26.46H329.352V36H327.768V31.842H322.836V36H321.252ZM332.238 36V26.46H333.822V33.66L338.754 26.46H340.338V36H338.754V28.8L333.822 36H332.238ZM343.224 39.6V26.46H344.7V28.26C345.024 27.624 345.474 27.138 346.05 26.802C346.638 26.454 347.316 26.28 348.084 26.28C349.284 26.28 350.244 26.676 350.964 27.468C351.684 28.248 352.044 29.412 352.044 30.96V31.32C352.044 32.4 351.876 33.3 351.54 34.02C351.216 34.74 350.754 35.28 350.154 35.64C349.566 36 348.876 36.18 348.084 36.18C347.268 36.18 346.584 36 346.032 35.64C345.492 35.28 345.084 34.83 344.808 34.29V39.6H343.224ZM347.724 34.776C348.504 34.776 349.152 34.482 349.668 33.894C350.196 33.306 350.46 32.448 350.46 31.32V30.96C350.46 29.916 350.196 29.112 349.668 28.548C349.152 27.972 348.504 27.684 347.724 27.684C347.148 27.684 346.638 27.804 346.194 28.044C345.762 28.284 345.42 28.614 345.168 29.034C344.928 29.442 344.808 29.904 344.808 30.42V31.86C344.808 32.436 344.928 32.946 345.168 33.39C345.42 33.822 345.762 34.164 346.194 34.416C346.638 34.656 347.148 34.776 347.724 34.776ZM357.016 36.18C356.32 36.18 355.726 36.054 355.234 35.802C354.754 35.538 354.388 35.184 354.136 34.74C353.884 34.284 353.758 33.774 353.758 33.21C353.758 32.262 354.034 31.578 354.586 31.158C355.15 30.738 355.954 30.528 356.998 30.528H360.094V29.88C360.094 29.064 359.908 28.5 359.536 28.188C359.176 27.876 358.63 27.72 357.898 27.72C357.214 27.72 356.716 27.852 356.404 28.116C356.092 28.368 355.918 28.656 355.882 28.98H354.298C354.334 28.464 354.508 28.008 354.82 27.612C355.132 27.204 355.558 26.88 356.098 26.64C356.638 26.4 357.268 26.28 357.988 26.28C358.744 26.28 359.398 26.4 359.95 26.64C360.502 26.868 360.928 27.234 361.228 27.738C361.528 28.23 361.678 28.884 361.678 29.7V33.57C361.678 34.074 361.678 34.518 361.678 34.902C361.69 35.274 361.72 35.64 361.768 36H360.382C360.346 35.724 360.322 35.466 360.31 35.226C360.298 34.974 360.292 34.692 360.292 34.38C360.04 34.884 359.632 35.31 359.068 35.658C358.504 36.006 357.82 36.18 357.016 36.18ZM357.358 34.74C357.862 34.74 358.318 34.65 358.726 34.47C359.146 34.29 359.476 34.026 359.716 33.678C359.968 33.33 360.094 32.904 360.094 32.4V31.752H357.268C356.68 31.752 356.218 31.872 355.882 32.112C355.546 32.34 355.378 32.706 355.378 33.21C355.378 33.654 355.534 34.02 355.846 34.308C356.17 34.596 356.674 34.74 357.358 34.74ZM368.976 36V26.46H376.896V36H375.312V27.864H370.56V36H368.976ZM383.729 36.18C382.925 36.18 382.169 36.006 381.461 35.658C380.765 35.298 380.201 34.758 379.769 34.038C379.349 33.318 379.139 32.412 379.139 31.32V30.96C379.139 29.928 379.349 29.064 379.769 28.368C380.201 27.672 380.765 27.15 381.461 26.802C382.169 26.454 382.925 26.28 383.729 26.28C384.545 26.28 385.301 26.454 385.997 26.802C386.693 27.15 387.251 27.672 387.671 28.368C388.103 29.064 388.319 29.928 388.319 30.96V31.32C388.319 32.412 388.103 33.318 387.671 34.038C387.251 34.758 386.693 35.298 385.997 35.658C385.301 36.006 384.545 36.18 383.729 36.18ZM383.729 34.74C384.221 34.74 384.689 34.632 385.133 34.416C385.589 34.188 385.961 33.822 386.249 33.318C386.549 32.814 386.699 32.148 386.699 31.32V30.96C386.699 30.192 386.549 29.574 386.249 29.106C385.961 28.626 385.589 28.278 385.133 28.062C384.689 27.834 384.221 27.72 383.729 27.72C383.249 27.72 382.781 27.834 382.325 28.062C381.869 28.278 381.491 28.626 381.191 29.106C380.903 29.574 380.759 30.192 380.759 30.96V31.32C380.759 32.148 380.903 32.814 381.191 33.318C381.491 33.822 381.869 34.188 382.325 34.416C382.781 34.632 383.249 34.74 383.729 34.74ZM395.062 36V26.46H396.646V34.596H400.12V26.46H401.704V34.596H405.178V26.46H406.762V36H395.062ZM412.352 36.18C411.656 36.18 411.062 36.054 410.57 35.802C410.09 35.538 409.724 35.184 409.472 34.74C409.22 34.284 409.094 33.774 409.094 33.21C409.094 32.262 409.37 31.578 409.922 31.158C410.486 30.738 411.29 30.528 412.334 30.528H415.43V29.88C415.43 29.064 415.244 28.5 414.872 28.188C414.512 27.876 413.966 27.72 413.234 27.72C412.55 27.72 412.052 27.852 411.74 28.116C411.428 28.368 411.254 28.656 411.218 28.98H409.634C409.67 28.464 409.844 28.008 410.156 27.612C410.468 27.204 410.894 26.88 411.434 26.64C411.974 26.4 412.604 26.28 413.324 26.28C414.08 26.28 414.734 26.4 415.286 26.64C415.838 26.868 416.264 27.234 416.564 27.738C416.864 28.23 417.014 28.884 417.014 29.7V33.57C417.014 34.074 417.014 34.518 417.014 34.902C417.026 35.274 417.056 35.64 417.104 36H415.718C415.682 35.724 415.658 35.466 415.646 35.226C415.634 34.974 415.628 34.692 415.628 34.38C415.376 34.884 414.968 35.31 414.404 35.658C413.84 36.006 413.156 36.18 412.352 36.18ZM412.694 34.74C413.198 34.74 413.654 34.65 414.062 34.47C414.482 34.29 414.812 34.026 415.052 33.678C415.304 33.33 415.43 32.904 415.43 32.4V31.752H412.604C412.016 31.752 411.554 31.872 411.218 32.112C410.882 32.34 410.714 32.706 410.714 33.21C410.714 33.654 410.87 34.02 411.182 34.308C411.506 34.596 412.01 34.74 412.694 34.74ZM418.822 36L422.404 31.158L419.002 26.46H420.838L423.358 29.934L425.878 26.46H427.642L424.24 31.068L427.822 36H425.95L423.286 32.274L420.622 36H418.822ZM429.709 36V26.46H431.401L434.803 32.4L438.205 26.46H439.789V36H438.205V29.07L435.379 33.93H434.119L431.293 29.07V36H429.709ZM445.382 36.18C444.686 36.18 444.092 36.054 443.6 35.802C443.12 35.538 442.754 35.184 442.502 34.74C442.25 34.284 442.124 33.774 442.124 33.21C442.124 32.262 442.4 31.578 442.952 31.158C443.516 30.738 444.32 30.528 445.364 30.528H448.46V29.88C448.46 29.064 448.274 28.5 447.902 28.188C447.542 27.876 446.996 27.72 446.264 27.72C445.58 27.72 445.082 27.852 444.77 28.116C444.458 28.368 444.284 28.656 444.248 28.98H442.664C442.7 28.464 442.874 28.008 443.186 27.612C443.498 27.204 443.924 26.88 444.464 26.64C445.004 26.4 445.634 26.28 446.354 26.28C447.11 26.28 447.764 26.4 448.316 26.64C448.868 26.868 449.294 27.234 449.594 27.738C449.894 28.23 450.044 28.884 450.044 29.7V33.57C450.044 34.074 450.044 34.518 450.044 34.902C450.056 35.274 450.086 35.64 450.134 36H448.748C448.712 35.724 448.688 35.466 448.676 35.226C448.664 34.974 448.658 34.692 448.658 34.38C448.406 34.884 447.998 35.31 447.434 35.658C446.87 36.006 446.186 36.18 445.382 36.18ZM445.724 34.74C446.228 34.74 446.684 34.65 447.092 34.47C447.512 34.29 447.842 34.026 448.082 33.678C448.334 33.33 448.46 32.904 448.46 32.4V31.752H445.634C445.046 31.752 444.584 31.872 444.248 32.112C443.912 32.34 443.744 32.706 443.744 33.21C443.744 33.654 443.9 34.02 444.212 34.308C444.536 34.596 445.04 34.74 445.724 34.74ZM454.844 36V27.864H451.586V26.46H459.686V27.864H456.428V36H454.844ZM463.856 36.18C463.16 36.18 462.566 36.054 462.074 35.802C461.594 35.538 461.228 35.184 460.976 34.74C460.724 34.284 460.598 33.774 460.598 33.21C460.598 32.262 460.874 31.578 461.426 31.158C461.99 30.738 462.794 30.528 463.838 30.528H466.934V29.88C466.934 29.064 466.748 28.5 466.376 28.188C466.016 27.876 465.47 27.72 464.738 27.72C464.054 27.72 463.556 27.852 463.244 28.116C462.932 28.368 462.758 28.656 462.722 28.98H461.138C461.174 28.464 461.348 28.008 461.66 27.612C461.972 27.204 462.398 26.88 462.938 26.64C463.478 26.4 464.108 26.28 464.828 26.28C465.584 26.28 466.238 26.4 466.79 26.64C467.342 26.868 467.768 27.234 468.068 27.738C468.368 28.23 468.518 28.884 468.518 29.7V33.57C468.518 34.074 468.518 34.518 468.518 34.902C468.53 35.274 468.56 35.64 468.608 36H467.222C467.186 35.724 467.162 35.466 467.15 35.226C467.138 34.974 467.132 34.692 467.132 34.38C466.88 34.884 466.472 35.31 465.908 35.658C465.344 36.006 464.66 36.18 463.856 36.18ZM464.198 34.74C464.702 34.74 465.158 34.65 465.566 34.47C465.986 34.29 466.316 34.026 466.556 33.678C466.808 33.33 466.934 32.904 466.934 32.4V31.752H464.108C463.52 31.752 463.058 31.872 462.722 32.112C462.386 32.34 462.218 32.706 462.218 33.21C462.218 33.654 462.374 34.02 462.686 34.308C463.01 34.596 463.514 34.74 464.198 34.74ZM471.316 36V26.46H473.008L476.41 32.4L479.812 26.46H481.396V36H479.812V29.07L476.986 33.93H475.726L472.9 29.07V36H471.316Z" fill="#313131"/>
</svg>
