<svg width="544" height="264" viewBox="0 0 544 264" fill="none" xmlns="http://www.w3.org/2000/svg">
    <path d="M45.94 9.42V12.42L40.84 13.2V50.4L46.42 51.06V54H29.5V51.06L34.48 50.4V12.96H15.28V50.46L20.86 51.06V54H4.06V51.06L8.92 50.46V13.14L3.82 12.42V9.42H45.94ZM56.6139 13.14L51.9339 12.42V9.42H59.9139C61.3539 9.42 62.7739 9.36 64.1739 9.24C66.3339 9.08 68.3739 9 70.2939 9C76.0939 9.04 80.1939 10.12 82.5939 12.24C84.9939 14.36 86.1939 17.56 86.1939 21.84C86.1939 25.04 85.4539 27.82 83.9739 30.18C82.4939 32.54 80.4339 34.34 77.7939 35.58C75.1939 36.82 72.1939 37.44 68.7939 37.44C67.6339 37.44 66.4539 37.42 65.2539 37.38C64.0539 37.3 63.3139 37.24 63.0339 37.2V50.4L71.2539 51.06V54H51.6339V51.06L56.6139 50.46V13.14ZM63.0339 33.9C64.1539 34.1 66.0739 34.2 68.7939 34.2C71.9539 34.2 74.5139 33.24 76.4739 31.32C78.4739 29.4 79.4739 26.26 79.4739 21.9C79.4739 18.46 78.6139 16 76.8939 14.52C75.1739 13 72.4939 12.24 68.8539 12.24C67.5739 12.24 66.2139 12.32 64.7739 12.48C63.8939 12.56 63.3139 12.6 63.0339 12.6V33.9ZM95.4588 13.14L90.5388 12.42V9.42H121.079L121.919 18.72H118.499L116.759 12.9L101.879 12.54V29.46L111.899 29.28L112.739 24.3H116.039V38.1H112.739L111.899 32.94L101.879 32.76V50.64L118.799 50.04L121.979 42.48L125.519 43.56L123.779 54H90.4788V51.06L95.4588 50.46V13.14ZM134.541 13.14L129.621 12.42V9.42H137.721C139.081 9.42 140.801 9.34 142.881 9.18C144.801 9.02 146.221 8.94 147.141 8.94C152.661 8.94 156.601 9.8 158.961 11.52C161.361 13.24 162.561 15.76 162.561 19.08C162.561 21.92 161.741 24.36 160.101 26.4C158.461 28.44 156.221 29.72 153.381 30.24C157.221 30.16 160.241 31.06 162.441 32.94C164.641 34.82 165.741 37.38 165.741 40.62C165.741 44.66 164.301 47.96 161.421 50.52C158.581 53.08 153.861 54.36 147.261 54.36C145.821 54.36 144.441 54.3 143.121 54.18C140.001 54.06 138.141 54 137.541 54H129.561V51.06L134.541 50.46V13.14ZM140.901 29.1C141.461 29.14 142.601 29.16 144.321 29.16H147.621C150.421 29.16 152.541 28.38 153.981 26.82C155.421 25.26 156.141 23.04 156.141 20.16C156.141 17.36 155.421 15.32 153.981 14.04C152.541 12.72 150.081 12.06 146.601 12.06C145.161 12.06 143.681 12.14 142.161 12.3L140.901 12.42V29.1ZM140.901 50.64C141.821 50.96 143.901 51.12 147.141 51.12C151.181 51.12 154.101 50.3 155.901 48.66C157.741 46.98 158.661 44.58 158.661 41.46C158.661 38.38 157.861 36.14 156.261 34.74C154.701 33.34 152.161 32.64 148.641 32.64C144.561 32.64 141.981 32.68 140.901 32.76V50.64ZM175.735 13.14L171.055 12.42V9.42H179.035C180.475 9.42 181.895 9.36 183.295 9.24C185.455 9.08 187.495 9 189.415 9C195.215 9.04 199.315 10.12 201.715 12.24C204.115 14.36 205.315 17.56 205.315 21.84C205.315 25.04 204.575 27.82 203.095 30.18C201.615 32.54 199.555 34.34 196.915 35.58C194.315 36.82 191.315 37.44 187.915 37.44C186.755 37.44 185.575 37.42 184.375 37.38C183.175 37.3 182.435 37.24 182.155 37.2V50.4L190.375 51.06V54H170.755V51.06L175.735 50.46V13.14ZM182.155 33.9C183.275 34.1 185.195 34.2 187.915 34.2C191.075 34.2 193.635 33.24 195.595 31.32C197.595 29.4 198.595 26.26 198.595 21.9C198.595 18.46 197.735 16 196.015 14.52C194.295 13 191.615 12.24 187.975 12.24C186.695 12.24 185.335 12.32 183.895 12.48C183.015 12.56 182.435 12.6 182.155 12.6V33.9ZM224.24 9.06H230.84L245.42 50.46L249.14 51.06V54H233.3V51.06L238.28 50.46L235.46 41.58H217.94L215.12 50.46L220.28 51.06V54H206.06V51.06L209.78 50.46L224.24 9.06ZM228.02 18.66L226.52 13.38L225.08 18.78L219.02 38.04H234.32L228.02 18.66ZM265.783 12.6L255.463 12.96L253.363 25.5H249.403L250.423 9.42H287.803L288.523 25.5H284.743L282.763 12.96L272.383 12.6V50.46L280.903 51.06V54H257.983V51.06L265.783 50.46V12.6ZM310.026 9.42V12.42L304.146 13.14V43.26L309.066 35.88L326.346 14.76V13.14L321.006 12.42V9.42H337.506V12.42L332.706 13.14V50.46L337.806 51.06V54H321.066V51.06L326.346 50.46V19.92L321.906 26.88L304.146 48.3V50.46L309.786 51.06V54H292.866V51.06L297.846 50.46V13.14L293.046 12.42V9.42H310.026ZM357.951 12.6L347.631 12.96L345.531 25.5H341.571L342.591 9.42H379.971L380.691 25.5H376.911L374.931 12.96L364.551 12.6V50.46L373.071 51.06V54H350.151V51.06L357.951 50.46V12.6ZM389.834 13.14L384.914 12.42V9.42H415.454L416.294 18.72H412.874L411.134 12.9L396.254 12.54V29.46L406.274 29.28L407.114 24.3H410.414V38.1H407.114L406.274 32.94L396.254 32.76V50.64L413.174 50.04L416.354 42.48L419.894 43.56L418.154 54H384.854V51.06L389.834 50.46V13.14ZM23.98 110.76C23.82 111.08 23.34 112.22 22.54 114.18C21.74 116.1 20.6 117.66 19.12 118.86C17.64 120.06 15.92 120.66 13.96 120.66C12.92 120.66 11.88 120.56 10.84 120.36C9.84 120.2 9.02 119.98 8.38 119.7V115.44L12.64 115.5C14.48 115.5 15.84 115.14 16.72 114.42C17.6 113.66 18.36 112.32 19 110.4L3.88 79.14L0.64 78.42V75.42H16.84V78.42L10.96 79.14L20.62 100.02L22.42 105.48L24.4 99.96L32.02 79.14L26.92 78.42V75.42H39.76V78.42L36.64 79.14L23.98 110.76ZM46.533 79.14L41.613 78.42V75.42H72.153L72.993 84.72H69.573L67.833 78.9L52.953 78.54V95.46L62.973 95.28L63.813 90.3H67.113V104.1H63.813L62.973 98.94L52.953 98.76V116.64L69.873 116.04L73.053 108.48L76.593 109.56L74.853 120H41.553V117.06L46.533 116.46V79.14ZM82.315 76.86C82.955 76.82 84.235 76.58 86.155 76.14C87.955 75.74 89.495 75.44 90.775 75.24C92.055 75.04 93.295 74.94 94.495 74.94C99.495 74.94 103.335 75.78 106.015 77.46C108.695 79.14 110.035 81.68 110.035 85.08C110.035 88.28 109.015 90.84 106.975 92.76C104.975 94.68 102.555 95.92 99.715 96.48C103.435 96.56 106.295 97.58 108.295 99.54C110.335 101.46 111.355 103.92 111.355 106.92C111.355 111.24 110.015 114.56 107.335 116.88C104.695 119.2 100.475 120.36 94.675 120.36C92.275 120.36 90.155 120.16 88.315 119.76C86.475 119.36 85.015 119 83.935 118.68C82.895 118.32 82.255 118.1 82.015 118.02L83.095 107.64H86.095L87.775 115.44C89.695 116.48 92.375 117 95.815 117C98.495 117 100.515 116.2 101.875 114.6C103.275 113 103.975 110.6 103.975 107.4C103.975 104.92 103.235 102.84 101.755 101.16C100.275 99.48 97.735 98.64 94.135 98.64H89.935V95.28H93.415C95.095 95.28 96.675 94.94 98.155 94.26C99.675 93.58 100.895 92.54 101.815 91.14C102.735 89.7 103.195 87.96 103.195 85.92C103.195 83.24 102.435 81.28 100.915 80.04C99.435 78.8 97.375 78.18 94.735 78.18C92.975 78.18 91.475 78.4 90.235 78.84C89.035 79.28 88.235 79.84 87.835 80.52L86.695 86.1H82.915L82.315 76.86ZM155.659 116.4C155.659 116.92 155.439 119.48 154.999 124.08C154.559 128.68 154.319 131.04 154.279 131.16H150.439C150.359 129.68 150.179 127.52 149.899 124.68C149.659 121.84 149.479 120.28 149.359 120H121.939C121.779 120.16 121.379 121.68 120.739 124.56C120.139 127.44 119.679 129.66 119.359 131.22H115.459C115.499 129.62 115.579 127.22 115.699 124.02C115.859 120.86 115.999 118.32 116.119 116.4H120.499C121.459 115.2 122.499 113.24 123.619 110.52C124.779 107.76 125.819 104.04 126.739 99.36C127.659 94.64 128.119 89.12 128.119 82.8V79.14L121.939 78.42V75.42H155.899V78.42L150.259 79.14V116.4H155.659ZM131.839 83.16C131.879 88.84 131.539 94 130.819 98.64C130.099 103.24 129.239 107.04 128.239 110.04C127.279 113.04 126.399 115.16 125.599 116.4H143.899L143.959 78.9H131.839V83.16ZM166.301 79.14L161.561 78.42V75.42H177.881V78.42L172.721 79.14V95.28H193.841V79.14L188.981 78.42V75.42H205.061V78.42L200.321 79.14V116.46L205.061 117.06V120H188.921V117.06L193.841 116.46V99H172.721V116.46L177.941 117.06V120H161.441V117.06L166.301 116.46V79.14ZM230.269 92.94C235.149 92.94 238.889 94.1 241.489 96.42C244.089 98.7 245.389 101.9 245.389 106.02C245.389 110.62 243.929 114.18 241.009 116.7C238.089 119.22 234.229 120.48 229.429 120.48C228.789 120.48 228.109 120.46 227.389 120.42C226.709 120.38 226.009 120.34 225.289 120.3C222.969 120.1 220.909 120 219.109 120H210.949V117.06L215.989 116.46V79.08L211.129 78.3V75.42H228.229V78.3L222.349 79.08V93L230.269 92.94ZM267.949 75.42V78.42L262.369 79.14V116.46L267.949 117.12V120H250.309V117.06L255.889 116.46V79.14L250.309 78.42V75.42H267.949ZM222.349 116.7C223.389 116.9 224.289 117.04 225.049 117.12C225.849 117.2 226.929 117.24 228.289 117.24C231.649 117.24 234.209 116.3 235.969 114.42C237.769 112.54 238.669 109.86 238.669 106.38C238.669 103.06 237.789 100.58 236.029 98.94C234.269 97.26 231.749 96.42 228.469 96.42L222.349 96.48V116.7ZM291.276 75.42V78.42L285.396 79.14V109.26L290.316 101.88L307.596 80.76V79.14L302.256 78.42V75.42H318.756V78.42L313.956 79.14V116.46L319.056 117.06V120H302.316V117.06L307.596 116.46V85.92L303.156 92.88L285.396 114.3V116.46L291.036 117.06V120H274.116V117.06L279.096 116.46V79.14L274.296 78.42V75.42H291.276ZM290.016 61.02C290.656 61.02 290.976 61.8 290.976 63.36C290.976 65.04 291.416 66.34 292.296 67.26C293.216 68.18 294.796 68.64 297.036 68.64C299.276 68.64 300.836 68.18 301.716 67.26C302.636 66.34 303.096 65.04 303.096 63.36C303.096 61.8 303.396 61.02 303.996 61.02H308.496L308.556 62.34C308.556 65.34 307.556 67.62 305.556 69.18C303.596 70.7 300.756 71.46 297.036 71.46C293.356 71.46 290.516 70.68 288.516 69.12C286.516 67.56 285.516 65.3 285.516 62.34L285.576 61.02H290.016ZM369.339 75.42L369.759 91.2H365.739L363.999 79.02L350.799 78.54V116.4L361.239 117.06V120H337.719V117.06L344.319 116.4V79.2L337.899 78.36V75.42H369.339ZM391.549 120.66C387.469 120.66 384.009 119.72 381.169 117.84C378.369 115.96 376.249 113.32 374.809 109.92C373.369 106.48 372.649 102.5 372.649 97.98C372.649 93.38 373.509 89.34 375.229 85.86C376.989 82.38 379.389 79.7 382.429 77.82C385.469 75.9 388.889 74.94 392.689 74.94C398.929 74.94 403.689 76.92 406.969 80.88C410.289 84.8 411.949 90.24 411.949 97.2C411.949 101.88 411.049 106 409.249 109.56C407.489 113.08 405.049 115.82 401.929 117.78C398.849 119.7 395.389 120.66 391.549 120.66ZM392.329 78.06C388.449 78.06 385.389 79.76 383.149 83.16C380.909 86.52 379.789 91.46 379.789 97.98C379.789 103.98 380.869 108.74 383.029 112.26C385.229 115.74 388.289 117.48 392.209 117.48C396.049 117.48 399.089 115.74 401.329 112.26C403.609 108.78 404.749 103.78 404.749 97.26C404.749 91.22 403.669 86.52 401.509 83.16C399.349 79.76 396.289 78.06 392.329 78.06ZM421.77 79.14L417.09 78.42V75.42H425.07C426.51 75.42 427.93 75.36 429.33 75.24C431.49 75.08 433.53 75 435.45 75C441.25 75.04 445.35 76.12 447.75 78.24C450.15 80.36 451.35 83.56 451.35 87.84C451.35 91.04 450.61 93.82 449.13 96.18C447.65 98.54 445.59 100.34 442.95 101.58C440.35 102.82 437.35 103.44 433.95 103.44C432.79 103.44 431.61 103.42 430.41 103.38C429.21 103.3 428.47 103.24 428.19 103.2V116.4L436.41 117.06V120H416.79V117.06L421.77 116.46V79.14ZM428.19 99.9C429.31 100.1 431.23 100.2 433.95 100.2C437.11 100.2 439.67 99.24 441.63 97.32C443.63 95.4 444.63 92.26 444.63 87.9C444.63 84.46 443.77 82 442.05 80.52C440.33 79 437.65 78.24 434.01 78.24C432.73 78.24 431.37 78.32 429.93 78.48C429.05 78.56 428.47 78.6 428.19 78.6V99.9ZM473.815 120.66C469.735 120.66 466.275 119.72 463.435 117.84C460.635 115.96 458.515 113.32 457.075 109.92C455.635 106.48 454.915 102.5 454.915 97.98C454.915 93.38 455.775 89.34 457.495 85.86C459.255 82.38 461.655 79.7 464.695 77.82C467.735 75.9 471.155 74.94 474.955 74.94C481.195 74.94 485.955 76.92 489.235 80.88C492.555 84.8 494.215 90.24 494.215 97.2C494.215 101.88 493.315 106 491.515 109.56C489.755 113.08 487.315 115.82 484.195 117.78C481.115 119.7 477.655 120.66 473.815 120.66ZM474.595 78.06C470.715 78.06 467.655 79.76 465.415 83.16C463.175 86.52 462.055 91.46 462.055 97.98C462.055 103.98 463.135 108.74 465.295 112.26C467.495 115.74 470.555 117.48 474.475 117.48C478.315 117.48 481.355 115.74 483.595 112.26C485.875 108.78 487.015 103.78 487.015 97.26C487.015 91.22 485.935 86.52 483.775 83.16C481.615 79.76 478.555 78.06 474.595 78.06ZM537.456 116.4C537.456 116.92 537.236 119.48 536.796 124.08C536.356 128.68 536.116 131.04 536.076 131.16H532.236C532.156 129.68 531.976 127.52 531.696 124.68C531.456 121.84 531.276 120.28 531.156 120H503.736C503.576 120.16 503.176 121.68 502.536 124.56C501.936 127.44 501.476 129.66 501.156 131.22H497.256C497.296 129.62 497.376 127.22 497.496 124.02C497.656 120.86 497.796 118.32 497.916 116.4H502.296C503.256 115.2 504.296 113.24 505.416 110.52C506.576 107.76 507.616 104.04 508.536 99.36C509.456 94.64 509.916 89.12 509.916 82.8V79.14L503.736 78.42V75.42H537.696V78.42L532.056 79.14V116.4H537.456ZM513.636 83.16C513.676 88.84 513.336 94 512.616 98.64C511.896 103.24 511.036 107.04 510.036 110.04C509.076 113.04 508.196 115.16 507.396 116.4H525.696L525.756 78.9H513.636V83.16Z" fill="#313131"/>
    <path d="M99.8572 145.14L94.9372 144.42V141.42H103.037C104.397 141.42 106.117 141.34 108.197 141.18C110.117 141.02 111.537 140.94 112.457 140.94C117.977 140.94 121.917 141.8 124.277 143.52C126.677 145.24 127.877 147.76 127.877 151.08C127.877 153.92 127.057 156.36 125.417 158.4C123.777 160.44 121.537 161.72 118.697 162.24C122.537 162.16 125.557 163.06 127.757 164.94C129.957 166.82 131.057 169.38 131.057 172.62C131.057 176.66 129.617 179.96 126.737 182.52C123.897 185.08 119.177 186.36 112.577 186.36C111.137 186.36 109.757 186.3 108.437 186.18C105.317 186.06 103.457 186 102.857 186H94.8772V183.06L99.8572 182.46V145.14ZM106.217 161.1C106.777 161.14 107.917 161.16 109.637 161.16H112.937C115.737 161.16 117.857 160.38 119.297 158.82C120.737 157.26 121.457 155.04 121.457 152.16C121.457 149.36 120.737 147.32 119.297 146.04C117.857 144.72 115.397 144.06 111.917 144.06C110.477 144.06 108.997 144.14 107.477 144.3L106.217 144.42V161.1ZM106.217 182.64C107.137 182.96 109.217 183.12 112.457 183.12C116.497 183.12 119.417 182.3 121.217 180.66C123.057 178.98 123.977 176.58 123.977 173.46C123.977 170.38 123.177 168.14 121.577 166.74C120.017 165.34 117.477 164.64 113.957 164.64C109.877 164.64 107.297 164.68 106.217 164.76V182.64ZM170.11 186.66C165.71 186.66 161.95 185.72 158.83 183.84C155.75 181.92 153.41 179.24 151.81 175.8C150.21 172.36 149.41 168.32 149.41 163.68C149.41 159.2 150.35 155.24 152.23 151.8C154.11 148.36 156.69 145.7 159.97 143.82C163.25 141.9 166.93 140.94 171.01 140.94C174.09 140.94 177.79 141.42 182.11 142.38L184.09 142.74L183.49 153.54H179.47L177.97 145.92C177.41 145.44 176.43 145.04 175.03 144.72C173.67 144.36 171.99 144.18 169.99 144.18C167.43 144.18 165.15 144.92 163.15 146.4C161.15 147.84 159.57 149.98 158.41 152.82C157.29 155.66 156.73 159.06 156.73 163.02C156.73 166.78 157.23 170.2 158.23 173.28C159.23 176.36 160.75 178.82 162.79 180.66C164.83 182.46 167.35 183.36 170.35 183.36C172.47 183.36 174.09 183.18 175.21 182.82C176.37 182.46 177.35 181.94 178.15 181.26L180.67 175.38L184.45 175.86L183.01 184.38C182.17 184.42 180.93 184.7 179.29 185.22C177.85 185.66 176.45 186 175.09 186.24C173.77 186.52 172.11 186.66 170.11 186.66ZM204.029 144.6L193.709 144.96L191.609 157.5H187.649L188.669 141.42H226.049L226.769 157.5H222.989L221.009 144.96L210.629 144.6V182.46L219.149 183.06V186H196.229V183.06L204.029 182.46V144.6ZM249.112 186.66C245.032 186.66 241.572 185.72 238.732 183.84C235.932 181.96 233.812 179.32 232.372 175.92C230.932 172.48 230.212 168.5 230.212 163.98C230.212 159.38 231.072 155.34 232.792 151.86C234.552 148.38 236.952 145.7 239.992 143.82C243.032 141.9 246.452 140.94 250.252 140.94C256.492 140.94 261.252 142.92 264.532 146.88C267.852 150.8 269.512 156.24 269.512 163.2C269.512 167.88 268.612 172 266.812 175.56C265.052 179.08 262.612 181.82 259.492 183.78C256.412 185.7 252.952 186.66 249.112 186.66ZM249.892 144.06C246.012 144.06 242.952 145.76 240.712 149.16C238.472 152.52 237.352 157.46 237.352 163.98C237.352 169.98 238.432 174.74 240.592 178.26C242.792 181.74 245.852 183.48 249.772 183.48C253.612 183.48 256.652 181.74 258.892 178.26C261.172 174.78 262.312 169.78 262.312 163.26C262.312 157.22 261.232 152.52 259.072 149.16C256.912 145.76 253.852 144.06 249.892 144.06ZM289.233 150.54C289.233 157.74 288.813 164.1 287.973 169.62C287.173 175.1 285.953 179.26 284.313 182.1C283.473 183.54 282.513 184.6 281.433 185.28C280.353 185.96 279.073 186.3 277.593 186.3C275.673 186.3 274.253 186.2 273.333 186L272.913 181.14C273.833 181.26 275.333 181.32 277.413 181.32C278.173 181.32 278.833 181.16 279.393 180.84C279.953 180.48 280.473 179.88 280.953 179.04C283.993 174.32 285.513 164.6 285.513 149.88V145.14L278.613 144.42V141.42H313.293V144.42L307.713 145.14V182.46L313.653 183.06V186H295.173V183.06L301.353 182.4L301.413 145.14H289.233V150.54ZM335.752 141.42V144.42L329.872 145.14V175.26L334.792 167.88L352.072 146.76V145.14L346.732 144.42V141.42H363.232V144.42L358.432 145.14V182.46L363.532 183.06V186H346.792V183.06L352.072 182.46V151.92L347.632 158.88L329.872 180.3V182.46L335.512 183.06V186H318.592V183.06L323.572 182.46V145.14L318.772 144.42V141.42H335.752ZM412.717 182.4C412.717 182.88 412.477 185.42 411.997 190.02C411.517 194.66 411.237 197.04 411.157 197.16H407.317C407.317 196.4 407.197 194.42 406.957 191.22C406.717 188.06 406.537 186.32 406.417 186H368.617V183.06L374.197 182.34V145.14L369.157 144.42V141.42H386.377V144.42L380.497 145.14V182.58H399.397V145.14L394.777 144.42V141.42H410.677V144.42L405.757 145.14V182.4H412.717ZM437.187 176.76C437.027 177.08 436.547 178.22 435.747 180.18C434.947 182.1 433.807 183.66 432.327 184.86C430.847 186.06 429.127 186.66 427.167 186.66C426.127 186.66 425.087 186.56 424.047 186.36C423.047 186.2 422.227 185.98 421.587 185.7V181.44L425.847 181.5C427.687 181.5 429.047 181.14 429.927 180.42C430.807 179.66 431.567 178.32 432.207 176.4L417.087 145.14L413.847 144.42V141.42H430.047V144.42L424.167 145.14L433.827 166.02L435.627 171.48L437.607 165.96L445.227 145.14L440.127 144.42V141.42H452.967V144.42L449.847 145.14L437.187 176.76Z" fill="#313131"/>
    <path d="M39.4322 208.86C40.0722 208.82 41.3522 208.58 43.2722 208.14C45.0722 207.74 46.6122 207.44 47.8922 207.24C49.1722 207.04 50.4122 206.94 51.6122 206.94C56.6122 206.94 60.4522 207.78 63.1322 209.46C65.8122 211.14 67.1522 213.68 67.1522 217.08C67.1522 220.28 66.1322 222.84 64.0922 224.76C62.0922 226.68 59.6722 227.92 56.8322 228.48C60.5522 228.56 63.4122 229.58 65.4122 231.54C67.4522 233.46 68.4722 235.92 68.4722 238.92C68.4722 243.24 67.1322 246.56 64.4522 248.88C61.8122 251.2 57.5922 252.36 51.7922 252.36C49.3922 252.36 47.2722 252.16 45.4322 251.76C43.5922 251.36 42.1322 251 41.0522 250.68C40.0122 250.32 39.3722 250.1 39.1322 250.02L40.2122 239.64H43.2122L44.8922 247.44C46.8122 248.48 49.4922 249 52.9322 249C55.6122 249 57.6322 248.2 58.9922 246.6C60.3922 245 61.0922 242.6 61.0922 239.4C61.0922 236.92 60.3522 234.84 58.8722 233.16C57.3922 231.48 54.8522 230.64 51.2522 230.64H47.0522V227.28H50.5322C52.2122 227.28 53.7922 226.94 55.2722 226.26C56.7922 225.58 58.0122 224.54 58.9322 223.14C59.8522 221.7 60.3122 219.96 60.3122 217.92C60.3122 215.24 59.5522 213.28 58.0322 212.04C56.5522 210.8 54.4922 210.18 51.8522 210.18C50.0922 210.18 48.5922 210.4 47.3522 210.84C46.1522 211.28 45.3522 211.84 44.9522 212.52L43.8122 218.1H40.0322L39.4322 208.86ZM79.2361 211.14L74.3161 210.42V207.42H104.856L105.696 216.72H102.276L100.536 210.9L85.6561 210.54V227.46L95.6761 227.28L96.5161 222.3H99.8161V236.1H96.5161L95.6761 230.94L85.6561 230.76V248.64L102.576 248.04L105.756 240.48L109.296 241.56L107.556 252H74.2561V249.06L79.2361 248.46V211.14ZM120.418 211.14L113.878 210.42V207.42H129.778L138.238 234.42L140.218 242.04L142.018 234.42L150.418 207.42H166.198V210.42L159.598 211.14L164.398 248.4L169.618 249.06V252H152.338V249.06L157.798 248.46L155.098 221.52L153.838 209.94L151.318 218.58L141.298 249.96H137.398L127.678 221.22L124.138 209.88L123.058 221.52L120.658 248.46L126.598 249.06V252H110.938V249.06L116.038 248.46L120.418 211.14ZM177.852 211.14L173.112 210.42V207.42H189.432V210.42L184.272 211.14V227.28H205.392V211.14L200.532 210.42V207.42H216.612V210.42L211.872 211.14V248.46L216.612 249.06V252H200.472V249.06L205.392 248.46V231H184.272V248.46L189.492 249.06V252H172.992V249.06L177.852 248.46V211.14ZM240.62 252.66C236.54 252.66 233.08 251.72 230.24 249.84C227.44 247.96 225.32 245.32 223.88 241.92C222.44 238.48 221.72 234.5 221.72 229.98C221.72 225.38 222.58 221.34 224.3 217.86C226.06 214.38 228.46 211.7 231.5 209.82C234.54 207.9 237.96 206.94 241.76 206.94C248 206.94 252.76 208.92 256.04 212.88C259.36 216.8 261.02 222.24 261.02 229.2C261.02 233.88 260.12 238 258.32 241.56C256.56 245.08 254.12 247.82 251 249.78C247.92 251.7 244.46 252.66 240.62 252.66ZM241.4 210.06C237.52 210.06 234.46 211.76 232.22 215.16C229.98 218.52 228.86 223.46 228.86 229.98C228.86 235.98 229.94 240.74 232.1 244.26C234.3 247.74 237.36 249.48 241.28 249.48C245.12 249.48 248.16 247.74 250.4 244.26C252.68 240.78 253.82 235.78 253.82 229.26C253.82 223.22 252.74 218.52 250.58 215.16C248.42 211.76 245.36 210.06 241.4 210.06ZM296.28 207.42L296.7 223.2H292.68L290.94 211.02L277.74 210.54V248.4L288.18 249.06V252H264.66V249.06L271.26 248.4V211.2L264.84 210.36V207.42H296.28ZM318.491 252.66C314.411 252.66 310.951 251.72 308.111 249.84C305.311 247.96 303.191 245.32 301.751 241.92C300.311 238.48 299.591 234.5 299.591 229.98C299.591 225.38 300.451 221.34 302.171 217.86C303.931 214.38 306.331 211.7 309.371 209.82C312.411 207.9 315.831 206.94 319.631 206.94C325.871 206.94 330.631 208.92 333.911 212.88C337.231 216.8 338.891 222.24 338.891 229.2C338.891 233.88 337.991 238 336.191 241.56C334.431 245.08 331.991 247.82 328.871 249.78C325.791 251.7 322.331 252.66 318.491 252.66ZM319.271 210.06C315.391 210.06 312.331 211.76 310.091 215.16C307.851 218.52 306.731 223.46 306.731 229.98C306.731 235.98 307.811 240.74 309.971 244.26C312.171 247.74 315.231 249.48 319.151 249.48C322.991 249.48 326.031 247.74 328.271 244.26C330.551 240.78 331.691 235.78 331.691 229.26C331.691 223.22 330.611 218.52 328.451 215.16C326.291 211.76 323.231 210.06 319.271 210.06ZM374.65 207.42V210.42L369.31 211.2V248.46H385.09V211.14L380.47 210.42V207.42H395.95V210.42L391.27 211.14V248.46H406.75V211.14L402.25 210.42V207.42H418.03V210.42L413.11 211.14V248.4L418.69 249.06V252H357.37V249.06L363.01 248.46V211.14L358.03 210.42V207.42H374.65ZM438.349 207.06H444.949L459.529 248.46L463.249 249.06V252H447.409V249.06L452.389 248.46L449.569 239.58H432.049L429.229 248.46L434.389 249.06V252H420.169V249.06L423.889 248.46L438.349 207.06ZM442.129 216.66L440.629 211.38L439.189 216.78L433.129 236.04H448.429L442.129 216.66ZM470.352 211.14L465.672 210.42V207.42H473.652C475.092 207.42 476.512 207.36 477.912 207.24C480.072 207.08 482.112 207 484.032 207C489.832 207.04 493.932 208.12 496.332 210.24C498.732 212.36 499.932 215.56 499.932 219.84C499.932 223.04 499.192 225.82 497.712 228.18C496.232 230.54 494.172 232.34 491.532 233.58C488.932 234.82 485.932 235.44 482.532 235.44C481.372 235.44 480.192 235.42 478.992 235.38C477.792 235.3 477.052 235.24 476.772 235.2V248.4L484.992 249.06V252H465.372V249.06L470.352 248.46V211.14ZM476.772 231.9C477.892 232.1 479.812 232.2 482.532 232.2C485.692 232.2 488.252 231.24 490.212 229.32C492.212 227.4 493.212 224.26 493.212 219.9C493.212 216.46 492.352 214 490.632 212.52C488.912 211 486.232 210.24 482.592 210.24C481.312 210.24 479.952 210.32 478.512 210.48C477.632 210.56 477.052 210.6 476.772 210.6V231.9ZM518.857 207.06H525.457L540.037 248.46L543.757 249.06V252H527.917V249.06L532.897 248.46L530.077 239.58H512.557L509.737 248.46L514.897 249.06V252H500.677V249.06L504.397 248.46L518.857 207.06ZM522.637 216.66L521.137 211.38L519.697 216.78L513.637 236.04H528.937L522.637 216.66Z" fill="#313131"/>
</svg>
