<svg width="738" height="183" viewBox="0 0 738 183" fill="none" xmlns="http://www.w3.org/2000/svg">
    <path d="M16.38 16.1497C15.54 16.6297 14.46 17.0017 13.14 17.2657C11.82 17.5297 10.572 17.6617 9.396 17.6617C7.716 17.6617 6.36 17.4097 5.328 16.9057C4.32 16.4017 3.576 15.5617 3.096 14.3857C2.616 13.1857 2.376 11.5537 2.376 9.48969V3.44169L0.18 3.00969V1.17369H9.252V3.00969L6.192 3.44169V8.40969C6.192 10.5457 6.324 12.0817 6.588 13.0177C6.876 13.9537 7.344 14.5657 7.992 14.8537C8.64 15.1177 9.684 15.2497 11.124 15.2497C12.036 15.2497 13.008 15.1297 14.04 14.8897C15.096 14.6497 15.876 14.3857 16.38 14.0977V3.40569L13.176 2.97369V1.17369H23.364V2.97369L20.196 3.40569V25.7977L23.364 26.1937V27.9217H12.6V26.1577L16.38 25.7977V16.1497ZM35.4009 3.08169L29.2089 3.29769L27.9489 10.8217H25.5729L26.1849 1.17369H48.6129L49.0449 10.8217H46.7769L45.5889 3.29769L39.3609 3.08169V25.7977L44.4729 26.1577V27.9217H30.7209V26.1577L35.4009 25.7977V3.08169ZM62.4507 28.3177C60.0027 28.3177 57.9267 27.7537 56.2227 26.6257C54.5427 25.4977 53.2707 23.9137 52.4067 21.8737C51.5427 19.8097 51.1107 17.4217 51.1107 14.7097C51.1107 11.9497 51.6267 9.52569 52.6587 7.43769C53.7147 5.34969 55.1547 3.74169 56.9787 2.61369C58.8027 1.46169 60.8547 0.88569 63.1347 0.88569C66.8787 0.88569 69.7347 2.07369 71.7027 4.44969C73.6947 6.80169 74.6907 10.0657 74.6907 14.2417C74.6907 17.0497 74.1507 19.5217 73.0707 21.6577C72.0147 23.7697 70.5507 25.4137 68.6787 26.5897C66.8307 27.7417 64.7547 28.3177 62.4507 28.3177ZM62.9187 2.75769C60.5907 2.75769 58.7547 3.77769 57.4107 5.81769C56.0667 7.83369 55.3947 10.7977 55.3947 14.7097C55.3947 18.3097 56.0427 21.1657 57.3387 23.2777C58.6587 25.3657 60.4947 26.4097 62.8467 26.4097C65.1507 26.4097 66.9747 25.3657 68.3187 23.2777C69.6867 21.1897 70.3707 18.1897 70.3707 14.2777C70.3707 10.6537 69.7227 7.83369 68.4267 5.81769C67.1307 3.77769 65.2947 2.75769 62.9187 2.75769ZM84.3992 12.1537C84.7832 12.0817 85.4792 12.0097 86.4872 11.9377C87.5192 11.8417 88.3952 11.7937 89.1152 11.7937C92.1392 11.7937 94.4192 12.4657 95.9552 13.8097C97.5152 15.1537 98.2952 17.0737 98.2952 19.5697C98.2952 22.3537 97.4192 24.4897 95.6672 25.9777C93.9392 27.4657 91.6352 28.2097 88.7552 28.2097L86.4152 28.1017C84.2072 27.9817 82.9592 27.9217 82.6712 27.9217H76.9832V26.1577L80.5832 25.7977V3.40569L77.0192 2.97369V1.17369H96.4232L96.7832 7.94169H94.3352L93.2192 3.33369L84.3992 3.04569V12.1537ZM84.3992 25.9057C84.5192 25.9297 84.8672 25.9897 85.4432 26.0857C86.0432 26.1817 86.8832 26.2297 87.9632 26.2297C90.0272 26.2297 91.5872 25.6777 92.6432 24.5737C93.7232 23.4697 94.2632 21.8857 94.2632 19.8217C94.2632 15.8857 92.1872 13.9177 88.0352 13.9177C87.3392 13.9177 86.6312 13.9417 85.9112 13.9897C85.2152 14.0377 84.7112 14.0857 84.3992 14.1337V25.9057ZM112.776 11.6857C115.704 11.6857 117.948 12.3817 119.508 13.7737C121.068 15.1417 121.848 17.0617 121.848 19.5337C121.848 22.2937 120.972 24.4297 119.22 25.9417C117.468 27.4537 115.152 28.2097 112.272 28.2097C111.888 28.2097 111.48 28.1977 111.048 28.1737C110.64 28.1497 110.22 28.1257 109.788 28.1017C108.396 27.9817 107.16 27.9217 106.08 27.9217H101.184V26.1577L104.208 25.7977V3.36969L101.292 2.90169V1.17369H111.552V2.90169L108.024 3.36969V11.7217L112.776 11.6857ZM135.384 1.17369V2.97369L132.036 3.40569V25.7977L135.384 26.1937V27.9217H124.8V26.1577L128.148 25.7977V3.40569L124.8 2.97369V1.17369H135.384ZM108.024 25.9417C108.648 26.0617 109.188 26.1457 109.644 26.1937C110.124 26.2417 110.772 26.2657 111.588 26.2657C113.604 26.2657 115.14 25.7017 116.196 24.5737C117.276 23.4457 117.816 21.8377 117.816 19.7497C117.816 17.7577 117.288 16.2697 116.232 15.2857C115.176 14.2777 113.664 13.7737 111.696 13.7737L108.024 13.8097V25.9417ZM172.827 1.17369V2.97369L169.767 3.44169V25.7617L173.115 26.1577V27.9217H162.963V26.1577L165.951 25.7617V3.29769H154.431V25.7977L157.779 26.1577V27.9217H147.699V26.1577L150.615 25.7977V3.40569L147.555 2.97369V1.17369H172.827ZM187.08 28.3177C184.632 28.3177 182.556 27.7537 180.852 26.6257C179.172 25.4977 177.9 23.9137 177.036 21.8737C176.172 19.8097 175.74 17.4217 175.74 14.7097C175.74 11.9497 176.256 9.52569 177.288 7.43769C178.344 5.34969 179.784 3.74169 181.608 2.61369C183.432 1.46169 185.484 0.88569 187.764 0.88569C191.508 0.88569 194.364 2.07369 196.332 4.44969C198.324 6.80169 199.32 10.0657 199.32 14.2417C199.32 17.0497 198.78 19.5217 197.7 21.6577C196.644 23.7697 195.18 25.4137 193.308 26.5897C191.46 27.7417 189.384 28.3177 187.08 28.3177ZM187.548 2.75769C185.22 2.75769 183.384 3.77769 182.04 5.81769C180.696 7.83369 180.024 10.7977 180.024 14.7097C180.024 18.3097 180.672 21.1657 181.968 23.2777C183.288 25.3657 185.124 26.4097 187.476 26.4097C189.78 26.4097 191.604 25.3657 192.948 23.2777C194.316 21.1897 195 18.1897 195 14.2777C195 10.6537 194.352 7.83369 193.056 5.81769C191.76 3.77769 189.924 2.75769 187.548 2.75769ZM225.264 25.7617C225.264 26.0737 225.132 27.6097 224.868 30.3697C224.604 33.1297 224.46 34.5457 224.436 34.6177H222.132C222.084 33.7297 221.976 32.4337 221.808 30.7297C221.664 29.0257 221.556 28.0897 221.484 27.9217H205.032C204.936 28.0177 204.696 28.9297 204.312 30.6577C203.952 32.3857 203.676 33.7177 203.484 34.6537H201.144C201.168 33.6937 201.216 32.2537 201.288 30.3337C201.384 28.4377 201.468 26.9137 201.54 25.7617H204.168C204.744 25.0417 205.368 23.8657 206.04 22.2337C206.736 20.5777 207.36 18.3457 207.912 15.5377C208.464 12.7057 208.74 9.39369 208.74 5.60169V3.40569L205.032 2.97369V1.17369H225.408V2.97369L222.024 3.40569V25.7617H225.264ZM210.972 5.81769C210.996 9.22569 210.792 12.3217 210.36 15.1057C209.928 17.8657 209.412 20.1457 208.812 21.9457C208.236 23.7457 207.708 25.0177 207.228 25.7617H218.208L218.244 3.26169H210.972V5.81769ZM251.702 25.7617C251.702 26.0737 251.57 27.6097 251.306 30.3697C251.042 33.1297 250.898 34.5457 250.874 34.6177H248.57C248.522 33.7297 248.414 32.4337 248.246 30.7297C248.102 29.0257 247.994 28.0897 247.922 27.9217H231.47C231.374 28.0177 231.134 28.9297 230.75 30.6577C230.39 32.3857 230.114 33.7177 229.922 34.6537H227.582C227.606 33.6937 227.654 32.2537 227.726 30.3337C227.822 28.4377 227.906 26.9137 227.978 25.7617H230.606C231.182 25.0417 231.806 23.8657 232.478 22.2337C233.174 20.5777 233.798 18.3457 234.35 15.5377C234.902 12.7057 235.178 9.39369 235.178 5.60169V3.40569L231.47 2.97369V1.17369H251.846V2.97369L248.462 3.40569V25.7617H251.702ZM237.41 5.81769C237.434 9.22569 237.23 12.3217 236.798 15.1057C236.366 17.8657 235.85 20.1457 235.25 21.9457C234.674 23.7457 234.146 25.0177 233.666 25.7617H244.646L244.682 3.26169H237.41V5.81769ZM258.015 3.40569L255.063 2.97369V1.17369H273.387L273.891 6.75369H271.839L270.795 3.26169L261.867 3.04569V13.1977L267.879 13.0897L268.383 10.1017H270.363V18.3817H268.383L267.879 15.2857L261.867 15.1777V25.9057L272.019 25.5457L273.927 21.0097L276.051 21.6577L275.007 27.9217H255.027V26.1577L258.015 25.7977V3.40569ZM281.536 3.40569L278.728 2.97369V1.17369H283.516C284.38 1.17369 285.232 1.13769 286.072 1.06569C287.368 0.96969 288.592 0.92169 289.744 0.92169C293.224 0.945691 295.684 1.59369 297.124 2.86569C298.564 4.13769 299.284 6.05769 299.284 8.62569C299.284 10.5457 298.84 12.2137 297.952 13.6297C297.064 15.0457 295.828 16.1257 294.244 16.8697C292.684 17.6137 290.884 17.9857 288.844 17.9857C288.148 17.9857 287.44 17.9737 286.72 17.9497C286 17.9017 285.556 17.8657 285.388 17.8417V25.7617L290.32 26.1577V27.9217H278.548V26.1577L281.536 25.7977V3.40569ZM285.388 15.8617C286.06 15.9817 287.212 16.0417 288.844 16.0417C290.74 16.0417 292.276 15.4657 293.452 14.3137C294.652 13.1617 295.252 11.2777 295.252 8.66169C295.252 6.59769 294.736 5.12169 293.704 4.23369C292.672 3.32169 291.064 2.86569 288.88 2.86569C288.112 2.86569 287.296 2.91369 286.432 3.00969C285.904 3.05769 285.556 3.08169 285.388 3.08169V15.8617ZM326.371 13.9537C327.331 14.3137 328.291 15.1177 329.251 16.3657C330.211 17.6137 331.339 19.2817 332.635 21.3697C333.547 22.8097 334.255 23.8777 334.759 24.5737C335.287 25.2697 335.731 25.6657 336.091 25.7617L337.495 26.1577V27.9217H332.995C332.443 27.9217 331.831 27.4537 331.159 26.5177C330.511 25.5817 329.623 24.1297 328.495 22.1617C327.247 19.9777 326.215 18.3217 325.399 17.1937C324.583 16.0657 323.803 15.5017 323.059 15.5017H320.791V25.7617L323.959 26.1937V27.9217H314.095V26.1577L317.119 25.7977V15.5017H314.851C314.107 15.5017 313.315 16.0777 312.475 17.2297C311.635 18.3577 310.615 20.0017 309.415 22.1617C308.287 24.1297 307.387 25.5817 306.715 26.5177C306.043 27.4537 305.431 27.9217 304.879 27.9217H300.451V26.1577L301.783 25.7617C302.143 25.6657 302.575 25.2697 303.079 24.5737C303.607 23.8777 304.327 22.8097 305.239 21.3697C306.535 19.2577 307.663 17.5777 308.623 16.3297C309.607 15.0817 310.579 14.2777 311.539 13.9177L303.799 3.40569L300.955 2.97369V1.17369H309.667V2.97369L306.859 3.40569L313.987 13.7737H317.119V3.40569L314.131 2.97369V1.17369H323.887V2.97369L320.791 3.40569V13.7737H323.923L331.015 3.44169L328.207 2.97369V1.17369H336.991V2.97369L334.111 3.40569L326.371 13.9537ZM348.151 0.957691H352.111L360.859 25.7977L363.091 26.1577V27.9217H353.587V26.1577L356.575 25.7977L354.883 20.4697H344.371L342.679 25.7977L345.775 26.1577V27.9217H337.243V26.1577L339.475 25.7977L348.151 0.957691ZM350.419 6.71769L349.519 3.54969L348.655 6.78969L345.019 18.3457H354.199L350.419 6.71769ZM373.077 3.08169L366.885 3.29769L365.625 10.8217H363.249L363.861 1.17369H386.289L386.721 10.8217H384.453L383.265 3.29769L377.037 3.08169V25.7977L382.149 26.1577V27.9217H368.397V26.1577L373.077 25.7977V3.08169ZM400.847 11.6857C403.775 11.6857 406.019 12.3817 407.579 13.7737C409.139 15.1417 409.919 17.0617 409.919 19.5337C409.919 22.2937 409.043 24.4297 407.291 25.9417C405.539 27.4537 403.223 28.2097 400.343 28.2097C399.959 28.2097 399.551 28.1977 399.119 28.1737C398.711 28.1497 398.291 28.1257 397.859 28.1017C396.467 27.9817 395.231 27.9217 394.151 27.9217H389.255V26.1577L392.279 25.7977V3.36969L389.363 2.90169V1.17369H399.623V2.90169L396.095 3.36969V11.7217L400.847 11.6857ZM396.095 25.9417C396.719 26.0617 397.259 26.1457 397.715 26.1937C398.195 26.2417 398.843 26.2657 399.659 26.2657C401.675 26.2657 403.211 25.7017 404.267 24.5737C405.347 23.4457 405.887 21.8377 405.887 19.7497C405.887 17.7577 405.359 16.2697 404.303 15.2857C403.247 14.2777 401.735 13.7737 399.767 13.7737L396.095 13.8097V25.9417ZM5.904 52.4057L1.98 51.9737V50.1737H11.52L16.596 66.3737L17.784 70.9457L18.864 66.3737L23.904 50.1737H33.372V51.9737L29.412 52.4057L32.292 74.7617L35.424 75.1577V76.9217H25.056V75.1577L28.332 74.7977L26.712 58.6337L25.956 51.6857L24.444 56.8697L18.432 75.6977H16.092L10.26 58.4537L8.136 51.6497L7.488 58.6337L6.048 74.7977L9.612 75.1577V76.9217H0.216V75.1577L3.276 74.7977L5.904 52.4057ZM40.2924 52.4057L37.3404 51.9737V50.1737H55.6644L56.1684 55.7537H54.1164L53.0724 52.2617L44.1444 52.0457V62.1977L50.1564 62.0897L50.6604 59.1017H52.6404V67.3817H50.6604L50.1564 64.2857L44.1444 64.1777V74.9057L54.2964 74.5457L56.2044 70.0097L58.3284 70.6577L57.2844 76.9217H37.3044V75.1577L40.2924 74.7977V52.4057ZM85.2697 62.9537C86.2297 63.3137 87.1897 64.1177 88.1497 65.3657C89.1097 66.6137 90.2377 68.2817 91.5337 70.3697C92.4457 71.8097 93.1537 72.8777 93.6577 73.5737C94.1857 74.2697 94.6297 74.6657 94.9897 74.7617L96.3937 75.1577V76.9217H91.8937C91.3417 76.9217 90.7297 76.4537 90.0577 75.5177C89.4097 74.5817 88.5217 73.1297 87.3937 71.1617C86.1457 68.9777 85.1137 67.3217 84.2977 66.1937C83.4817 65.0657 82.7017 64.5017 81.9577 64.5017H79.6897V74.7617L82.8577 75.1937V76.9217H72.9937V75.1577L76.0177 74.7977V64.5017H73.7497C73.0057 64.5017 72.2137 65.0777 71.3737 66.2297C70.5337 67.3577 69.5137 69.0017 68.3137 71.1617C67.1857 73.1297 66.2857 74.5817 65.6137 75.5177C64.9417 76.4537 64.3297 76.9217 63.7777 76.9217H59.3497V75.1577L60.6817 74.7617C61.0417 74.6657 61.4737 74.2697 61.9777 73.5737C62.5057 72.8777 63.2257 71.8097 64.1377 70.3697C65.4337 68.2577 66.5617 66.5777 67.5217 65.3297C68.5057 64.0817 69.4777 63.2777 70.4377 62.9177L62.6977 52.4057L59.8537 51.9737V50.1737H68.5657V51.9737L65.7577 52.4057L72.8857 62.7737H76.0177V52.4057L73.0297 51.9737V50.1737H82.7857V51.9737L79.6897 52.4057V62.7737H82.8217L89.9137 52.4417L87.1057 51.9737V50.1737H95.8897V51.9737L93.0097 52.4057L85.2697 62.9537ZM121.377 74.7617C121.377 75.0737 121.245 76.6097 120.981 79.3697C120.717 82.1297 120.573 83.5457 120.549 83.6177H118.245C118.197 82.7297 118.089 81.4337 117.921 79.7297C117.777 78.0257 117.669 77.0897 117.597 76.9217H101.145C101.049 77.0177 100.809 77.9297 100.425 79.6577C100.065 81.3857 99.7894 82.7177 99.5974 83.6537H97.2574C97.2814 82.6937 97.3294 81.2537 97.4014 79.3337C97.4974 77.4377 97.5814 75.9137 97.6534 74.7617H100.281C100.857 74.0417 101.481 72.8657 102.153 71.2337C102.849 69.5777 103.473 67.3457 104.025 64.5377C104.577 61.7057 104.853 58.3937 104.853 54.6017V52.4057L101.145 51.9737V50.1737H121.521V51.9737L118.137 52.4057V74.7617H121.377ZM107.085 54.8177C107.109 58.2257 106.905 61.3217 106.473 64.1057C106.041 66.8657 105.525 69.1457 104.925 70.9457C104.349 72.7457 103.821 74.0177 103.341 74.7617H114.321L114.357 52.2617H107.085V54.8177ZM136.835 71.3777C136.739 71.5697 136.451 72.2537 135.971 73.4297C135.491 74.5817 134.807 75.5177 133.919 76.2377C133.031 76.9577 131.999 77.3177 130.823 77.3177C130.199 77.3177 129.575 77.2577 128.951 77.1377C128.351 77.0417 127.859 76.9097 127.475 76.7417V74.1857L130.031 74.2217C131.135 74.2217 131.951 74.0057 132.479 73.5737C133.007 73.1177 133.463 72.3137 133.847 71.1617L124.775 52.4057L122.831 51.9737V50.1737H132.551V51.9737L129.023 52.4057L134.819 64.9337L135.899 68.2097L137.087 64.8977L141.659 52.4057L138.599 51.9737V50.1737H146.303V51.9737L144.431 52.4057L136.835 71.3777ZM150.439 52.4057L147.595 51.9737V50.1737H157.387V51.9737L154.291 52.4057V62.0897H166.963V52.4057L164.047 51.9737V50.1737H173.695V51.9737L170.851 52.4057V74.7977L173.695 75.1577V76.9217H164.011V75.1577L166.963 74.7977V64.3217H154.291V74.7977L157.423 75.1577V76.9217H147.523V75.1577L150.439 74.7977V52.4057ZM185.975 49.9577H189.935L198.683 74.7977L200.915 75.1577V76.9217H191.411V75.1577L194.399 74.7977L192.707 69.4697H182.195L180.503 74.7977L183.599 75.1577V76.9217H175.067V75.1577L177.299 74.7977L185.975 49.9577ZM188.243 55.7177L187.343 52.5497L186.479 55.7897L182.843 67.3457H192.023L188.243 55.7177ZM205.177 52.4057L202.369 51.9737V50.1737H207.157C208.021 50.1737 208.873 50.1377 209.713 50.0657C211.009 49.9697 212.233 49.9217 213.385 49.9217C216.865 49.9457 219.325 50.5937 220.765 51.8657C222.205 53.1377 222.925 55.0577 222.925 57.6257C222.925 59.5457 222.481 61.2137 221.593 62.6297C220.705 64.0457 219.469 65.1257 217.885 65.8697C216.325 66.6137 214.525 66.9857 212.485 66.9857C211.789 66.9857 211.081 66.9737 210.361 66.9497C209.641 66.9017 209.197 66.8657 209.029 66.8417V74.7617L213.961 75.1577V76.9217H202.189V75.1577L205.177 74.7977V52.4057ZM209.029 64.8617C209.701 64.9817 210.853 65.0417 212.485 65.0417C214.381 65.0417 215.917 64.4657 217.093 63.3137C218.293 62.1617 218.893 60.2777 218.893 57.6617C218.893 55.5977 218.377 54.1217 217.345 53.2337C216.313 52.3217 214.705 51.8657 212.521 51.8657C211.753 51.8657 210.937 51.9137 210.073 52.0097C209.545 52.0577 209.197 52.0817 209.029 52.0817V64.8617ZM236.404 77.3177C233.956 77.3177 231.88 76.7537 230.176 75.6257C228.496 74.4977 227.224 72.9137 226.36 70.8737C225.496 68.8097 225.064 66.4217 225.064 63.7097C225.064 60.9497 225.58 58.5257 226.612 56.4377C227.668 54.3497 229.108 52.7417 230.932 51.6137C232.756 50.4617 234.808 49.8857 237.088 49.8857C240.832 49.8857 243.688 51.0737 245.656 53.4497C247.648 55.8017 248.644 59.0657 248.644 63.2417C248.644 66.0497 248.104 68.5217 247.024 70.6577C245.968 72.7697 244.504 74.4137 242.632 75.5897C240.784 76.7417 238.708 77.3177 236.404 77.3177ZM236.872 51.7577C234.544 51.7577 232.708 52.7777 231.364 54.8177C230.02 56.8337 229.348 59.7977 229.348 63.7097C229.348 67.3097 229.996 70.1657 231.292 72.2777C232.612 74.3657 234.448 75.4097 236.8 75.4097C239.104 75.4097 240.928 74.3657 242.272 72.2777C243.64 70.1897 244.324 67.1897 244.324 63.2777C244.324 59.6537 243.676 56.8337 242.38 54.8177C241.084 52.7777 239.248 51.7577 236.872 51.7577ZM274.588 74.7617C274.588 75.0737 274.456 76.6097 274.192 79.3697C273.928 82.1297 273.784 83.5457 273.76 83.6177H271.456C271.408 82.7297 271.3 81.4337 271.132 79.7297C270.988 78.0257 270.88 77.0897 270.808 76.9217H254.356C254.26 77.0177 254.02 77.9297 253.636 79.6577C253.276 81.3857 253 82.7177 252.808 83.6537H250.468C250.492 82.6937 250.54 81.2537 250.612 79.3337C250.708 77.4377 250.792 75.9137 250.864 74.7617H253.492C254.068 74.0417 254.692 72.8657 255.364 71.2337C256.06 69.5777 256.684 67.3457 257.236 64.5377C257.788 61.7057 258.064 58.3937 258.064 54.6017V52.4057L254.356 51.9737V50.1737H274.732V51.9737L271.348 52.4057V74.7617H274.588ZM260.296 54.8177C260.32 58.2257 260.116 61.3217 259.684 64.1057C259.252 66.8657 258.736 69.1457 258.136 70.9457C257.56 72.7457 257.032 74.0177 256.552 74.7617H267.532L267.568 52.2617H260.296V54.8177ZM280.974 52.4057L278.13 51.9737V50.1737H287.922V51.9737L284.826 52.4057V62.0897H297.498V52.4057L294.582 51.9737V50.1737H304.23V51.9737L301.386 52.4057V74.7977L304.23 75.1577V76.9217H294.546V75.1577L297.498 74.7977V64.3217H284.826V74.7977L287.958 75.1577V76.9217H278.058V75.1577L280.974 74.7977V52.4057ZM319.354 60.6857C322.282 60.6857 324.526 61.3817 326.086 62.7737C327.646 64.1417 328.426 66.0617 328.426 68.5337C328.426 71.2937 327.55 73.4297 325.798 74.9417C324.046 76.4537 321.73 77.2097 318.85 77.2097C318.466 77.2097 318.058 77.1977 317.626 77.1737C317.218 77.1497 316.798 77.1257 316.366 77.1017C314.974 76.9817 313.738 76.9217 312.658 76.9217H307.762V75.1577L310.786 74.7977V52.3697L307.87 51.9017V50.1737H318.13V51.9017L314.602 52.3697V60.7217L319.354 60.6857ZM341.962 50.1737V51.9737L338.614 52.4057V74.7977L341.962 75.1937V76.9217H331.378V75.1577L334.726 74.7977V52.4057L331.378 51.9737V50.1737H341.962ZM314.602 74.9417C315.226 75.0617 315.766 75.1457 316.222 75.1937C316.702 75.2417 317.35 75.2657 318.166 75.2657C320.182 75.2657 321.718 74.7017 322.774 73.5737C323.854 72.4457 324.394 70.8377 324.394 68.7497C324.394 66.7577 323.866 65.2697 322.81 64.2857C321.754 63.2777 320.242 62.7737 318.274 62.7737L314.602 62.8097V74.9417ZM355.958 50.1737V51.9737L352.43 52.4057V70.4777L355.382 66.0497L365.75 53.3777V52.4057L362.546 51.9737V50.1737H372.446V51.9737L369.566 52.4057V74.7977L372.626 75.1577V76.9217H362.582V75.1577L365.75 74.7977V56.4737L363.086 60.6497L352.43 73.5017V74.7977L355.814 75.1577V76.9217H345.662V75.1577L348.65 74.7977V52.4057L345.77 51.9737V50.1737H355.958ZM355.202 41.5337C355.586 41.5337 355.778 42.0017 355.778 42.9377C355.778 43.9457 356.042 44.7257 356.57 45.2777C357.122 45.8297 358.07 46.1057 359.414 46.1057C360.758 46.1057 361.694 45.8297 362.222 45.2777C362.774 44.7257 363.05 43.9457 363.05 42.9377C363.05 42.0017 363.23 41.5337 363.59 41.5337H366.29L366.326 42.3257C366.326 44.1257 365.726 45.4937 364.526 46.4297C363.35 47.3417 361.646 47.7977 359.414 47.7977C357.206 47.7977 355.502 47.3297 354.302 46.3937C353.102 45.4577 352.502 44.1017 352.502 42.3257L352.538 41.5337H355.202ZM387.46 52.4057L384.508 51.9737V50.1737H389.368C390.184 50.1737 391.216 50.1257 392.464 50.0297C393.616 49.9337 394.468 49.8857 395.02 49.8857C398.332 49.8857 400.696 50.4017 402.112 51.4337C403.552 52.4657 404.272 53.9777 404.272 55.9697C404.272 57.6737 403.78 59.1377 402.796 60.3617C401.812 61.5857 400.468 62.3537 398.764 62.6657C401.068 62.6177 402.88 63.1577 404.2 64.2857C405.52 65.4137 406.18 66.9497 406.18 68.8937C406.18 71.3177 405.316 73.2977 403.588 74.8337C401.884 76.3697 399.052 77.1377 395.092 77.1377C394.228 77.1377 393.4 77.1017 392.608 77.0297C390.736 76.9577 389.62 76.9217 389.26 76.9217H384.472V75.1577L387.46 74.7977V52.4057ZM391.276 61.9817C391.612 62.0057 392.296 62.0177 393.328 62.0177H395.308C396.988 62.0177 398.26 61.5497 399.124 60.6137C399.988 59.6777 400.42 58.3457 400.42 56.6177C400.42 54.9377 399.988 53.7137 399.124 52.9457C398.26 52.1537 396.784 51.7577 394.696 51.7577C393.832 51.7577 392.944 51.8057 392.032 51.9017L391.276 51.9737V61.9817ZM391.276 74.9057C391.828 75.0977 393.076 75.1937 395.02 75.1937C397.444 75.1937 399.196 74.7017 400.276 73.7177C401.38 72.7097 401.932 71.2697 401.932 69.3977C401.932 67.5497 401.452 66.2057 400.492 65.3657C399.556 64.5257 398.032 64.1057 395.92 64.1057C393.472 64.1057 391.924 64.1297 391.276 64.1777V74.9057ZM417.901 49.9577H421.861L430.609 74.7977L432.841 75.1577V76.9217H423.337V75.1577L426.325 74.7977L424.633 69.4697H414.121L412.429 74.7977L415.525 75.1577V76.9217H406.993V75.1577L409.225 74.7977L417.901 49.9577ZM420.169 55.7177L419.269 52.5497L418.405 55.7897L414.769 67.3457H423.949L420.169 55.7177ZM445.995 77.3177C443.355 77.3177 441.099 76.7537 439.227 75.6257C437.379 74.4737 435.975 72.8657 435.015 70.8017C434.055 68.7377 433.575 66.3137 433.575 63.5297C433.575 60.8417 434.139 58.4657 435.267 56.4017C436.395 54.3377 437.943 52.7417 439.911 51.6137C441.879 50.4617 444.087 49.8857 446.535 49.8857C448.383 49.8857 450.603 50.1737 453.195 50.7497L454.383 50.9657L454.023 57.4457H451.611L450.711 52.8737C450.375 52.5857 449.787 52.3457 448.947 52.1537C448.131 51.9377 447.123 51.8297 445.923 51.8297C444.387 51.8297 443.019 52.2737 441.819 53.1617C440.619 54.0257 439.671 55.3097 438.975 57.0137C438.303 58.7177 437.967 60.7577 437.967 63.1337C437.967 65.3897 438.267 67.4417 438.867 69.2897C439.467 71.1377 440.379 72.6137 441.603 73.7177C442.827 74.7977 444.339 75.3377 446.139 75.3377C447.411 75.3377 448.383 75.2297 449.055 75.0137C449.751 74.7977 450.339 74.4857 450.819 74.0777L452.331 70.5497L454.599 70.8377L453.735 75.9497C453.231 75.9737 452.487 76.1417 451.503 76.4537C450.639 76.7177 449.799 76.9217 448.983 77.0657C448.191 77.2337 447.195 77.3177 445.995 77.3177ZM470.306 62.0897C470.546 59.5697 471.23 57.3857 472.358 55.5377C473.486 53.6897 474.902 52.2857 476.606 51.3257C478.334 50.3417 480.194 49.8617 482.186 49.8857C484.538 49.8857 486.542 50.4377 488.198 51.5417C489.878 52.6217 491.15 54.1457 492.014 56.1137C492.878 58.0577 493.31 60.3257 493.31 62.9177C493.31 65.8217 492.794 68.3657 491.762 70.5497C490.754 72.7097 489.362 74.3657 487.586 75.5177C485.834 76.6697 483.866 77.2457 481.682 77.2457C479.258 77.2457 477.194 76.7177 475.49 75.6617C473.786 74.5817 472.49 73.0697 471.602 71.1257C470.714 69.1577 470.258 66.8657 470.234 64.2497H464.474V74.7617L467.57 75.1577V76.9217H457.67V75.1577L460.622 74.7617V52.4057L457.742 51.9737V50.1737H467.426V51.9737L464.438 52.4057V62.0897H470.306ZM481.934 51.8297C479.654 51.8297 477.83 52.8257 476.462 54.8177C475.094 56.8097 474.41 59.7977 474.41 63.7817C474.41 67.2617 475.058 70.0457 476.354 72.1337C477.674 74.2217 479.522 75.2657 481.898 75.2657C484.178 75.2657 485.942 74.2577 487.19 72.2417C488.462 70.2017 489.098 67.2017 489.098 63.2417C489.098 59.7617 488.474 56.9897 487.226 54.9257C485.978 52.8617 484.214 51.8297 481.934 51.8297ZM508.617 62.9177C509.577 63.2777 510.537 64.0817 511.497 65.3297C512.457 66.5537 513.609 68.2217 514.953 70.3337C515.865 71.8217 516.573 72.9137 517.077 73.6097C517.581 74.2817 518.013 74.6657 518.373 74.7617L519.741 75.1577V76.9217H515.277C514.725 76.9217 514.101 76.4537 513.405 75.5177C512.733 74.5577 511.857 73.1057 510.777 71.1617C509.553 68.9777 508.533 67.3217 507.717 66.1937C506.901 65.0657 506.121 64.5017 505.377 64.5017H503.073V74.7617L506.277 75.1937V76.9217H496.413V75.1217L499.329 74.7617V52.4057L496.413 51.9737V50.1737H506.061V51.9737L503.073 52.4057V62.7737H506.169L513.441 52.4057L510.417 51.9737V50.1737H519.273V51.9737L516.429 52.4057L508.617 62.9177ZM532.021 50.1737V51.9737L528.493 52.4057V70.4777L531.445 66.0497L541.813 53.3777V52.4057L538.609 51.9737V50.1737H548.509V51.9737L545.629 52.4057V74.7977L548.689 75.1577V76.9217H538.645V75.1577L541.813 74.7977V56.4737L539.149 60.6497L528.493 73.5017V74.7977L531.877 75.1577V76.9217H521.725V75.1577L524.713 74.7977V52.4057L521.833 51.9737V50.1737H532.021ZM555.052 52.4057L552.208 51.9737V50.1737H562V51.9737L558.904 52.4057V62.0897H571.576V52.4057L568.66 51.9737V50.1737H578.308V51.9737L575.464 52.4057V74.7977L578.308 75.1577V76.9217H568.624V75.1577L571.576 74.7977V64.3217H558.904V74.7977L562.036 75.1577V76.9217H552.136V75.1577L555.052 74.7977V52.4057ZM593.756 77.3177C591.116 77.3177 588.86 76.7537 586.988 75.6257C585.14 74.4737 583.736 72.8657 582.776 70.8017C581.816 68.7377 581.336 66.3137 581.336 63.5297C581.336 60.8417 581.9 58.4657 583.028 56.4017C584.156 54.3377 585.704 52.7417 587.672 51.6137C589.64 50.4617 591.848 49.8857 594.296 49.8857C596.144 49.8857 598.364 50.1737 600.956 50.7497L602.144 50.9657L601.784 57.4457H599.372L598.472 52.8737C598.136 52.5857 597.548 52.3457 596.708 52.1537C595.892 51.9377 594.884 51.8297 593.684 51.8297C592.148 51.8297 590.78 52.2737 589.58 53.1617C588.38 54.0257 587.432 55.3097 586.736 57.0137C586.064 58.7177 585.728 60.7577 585.728 63.1337C585.728 65.3897 586.028 67.4417 586.628 69.2897C587.228 71.1377 588.14 72.6137 589.364 73.7177C590.588 74.7977 592.1 75.3377 593.9 75.3377C595.172 75.3377 596.144 75.2297 596.816 75.0137C597.512 74.7977 598.1 74.4857 598.58 74.0777L600.092 70.5497L602.36 70.8377L601.496 75.9497C600.992 75.9737 600.248 76.1417 599.264 76.4537C598.4 76.7177 597.56 76.9217 596.744 77.0657C595.952 77.2337 594.956 77.3177 593.756 77.3177ZM617.672 62.9177C618.632 63.2777 619.592 64.0817 620.552 65.3297C621.512 66.5537 622.664 68.2217 624.008 70.3337C624.92 71.8217 625.628 72.9137 626.132 73.6097C626.636 74.2817 627.068 74.6657 627.428 74.7617L628.796 75.1577V76.9217H624.332C623.78 76.9217 623.156 76.4537 622.46 75.5177C621.788 74.5577 620.912 73.1057 619.832 71.1617C618.608 68.9777 617.588 67.3217 616.772 66.1937C615.956 65.0657 615.176 64.5017 614.432 64.5017H612.128V74.7617L615.332 75.1937V76.9217H605.468V75.1217L608.384 74.7617V52.4057L605.468 51.9737V50.1737H615.116V51.9737L612.128 52.4057V62.7737H615.224L622.496 52.4057L619.472 51.9737V50.1737H628.328V51.9737L625.484 52.4057L617.672 62.9177ZM641.076 50.1737V51.9737L637.548 52.4057V70.4777L640.5 66.0497L650.868 53.3777V52.4057L647.664 51.9737V50.1737H657.564V51.9737L654.684 52.4057V74.7977L657.744 75.1577V76.9217H647.7V75.1577L650.868 74.7977V56.4737L648.204 60.6497L637.548 73.5017V74.7977L640.932 75.1577V76.9217H630.78V75.1577L633.768 74.7977V52.4057L630.888 51.9737V50.1737H641.076ZM671.451 50.1737V51.9737L667.923 52.4057V70.4777L670.875 66.0497L681.243 53.3777V52.4057L678.039 51.9737V50.1737H687.939V51.9737L685.059 52.4057V74.7977L688.119 75.1577V76.9217H678.075V75.1577L681.243 74.7977V56.4737L678.579 60.6497L667.923 73.5017V74.7977L671.307 75.1577V76.9217H661.155V75.1577L664.143 74.7977V52.4057L661.263 51.9737V50.1737H671.451ZM670.695 41.5337C671.079 41.5337 671.271 42.0017 671.271 42.9377C671.271 43.9457 671.535 44.7257 672.063 45.2777C672.615 45.8297 673.563 46.1057 674.907 46.1057C676.251 46.1057 677.187 45.8297 677.715 45.2777C678.267 44.7257 678.543 43.9457 678.543 42.9377C678.543 42.0017 678.723 41.5337 679.083 41.5337H681.783L681.819 42.3257C681.819 44.1257 681.219 45.4937 680.019 46.4297C678.843 47.3417 677.139 47.7977 674.907 47.7977C672.699 47.7977 670.995 47.3297 669.795 46.3937C668.595 45.4577 667.995 44.1017 667.995 42.3257L668.031 41.5337H670.695ZM10.44 101.082L4.248 101.298L2.988 108.822H0.612L1.224 99.1737H23.652L24.084 108.822H21.816L20.628 101.298L14.4 101.082V123.798L19.512 124.158V125.922H5.76V124.158L10.44 123.798V101.082ZM38.7138 120.378C38.6178 120.57 38.3298 121.254 37.8498 122.43C37.3698 123.582 36.6858 124.518 35.7978 125.238C34.9098 125.958 33.8778 126.318 32.7018 126.318C32.0778 126.318 31.4538 126.258 30.8298 126.138C30.2298 126.042 29.7378 125.91 29.3538 125.742V123.186L31.9098 123.222C33.0138 123.222 33.8298 123.006 34.3578 122.574C34.8858 122.118 35.3418 121.314 35.7258 120.162L26.6538 101.406L24.7098 100.974V99.1737H34.4298V100.974L30.9018 101.406L36.6978 113.934L37.7778 117.21L38.9658 113.898L43.5378 101.406L40.4778 100.974V99.1737H48.1818V100.974L46.3098 101.406L38.7138 120.378ZM52.3176 101.406L49.5096 100.974V99.1737H54.2976C55.1616 99.1737 56.0136 99.1377 56.8536 99.0657C58.1496 98.9697 59.3736 98.9217 60.5256 98.9217C64.0056 98.9457 66.4656 99.5937 67.9056 100.866C69.3456 102.138 70.0656 104.058 70.0656 106.626C70.0656 108.546 69.6216 110.214 68.7336 111.63C67.8456 113.046 66.6096 114.126 65.0256 114.87C63.4656 115.614 61.6656 115.986 59.6256 115.986C58.9296 115.986 58.2216 115.974 57.5016 115.95C56.7816 115.902 56.3376 115.866 56.1696 115.842V123.762L61.1016 124.158V125.922H49.3296V124.158L52.3176 123.798V101.406ZM56.1696 113.862C56.8416 113.982 57.9936 114.042 59.6256 114.042C61.5216 114.042 63.0576 113.466 64.2336 112.314C65.4336 111.162 66.0336 109.278 66.0336 106.662C66.0336 104.598 65.5176 103.122 64.4856 102.234C63.4536 101.322 61.8456 100.866 59.6616 100.866C58.8936 100.866 58.0776 100.914 57.2136 101.01C56.6856 101.058 56.3376 101.082 56.1696 101.082V113.862ZM75.6965 101.406L72.8525 100.974V99.1737H82.6445V100.974L79.5485 101.406V111.09H92.2205V101.406L89.3045 100.974V99.1737H98.9525V100.974L96.1085 101.406V123.798L98.9525 124.158V125.922H89.2685V124.158L92.2205 123.798V113.322H79.5485V123.798L82.6805 124.158V125.922H72.7805V124.158L75.6965 123.798V101.406ZM112.853 99.1737V100.974L109.325 101.406V119.478L112.277 115.05L122.645 102.378V101.406L119.441 100.974V99.1737H129.341V100.974L126.461 101.406V123.798L129.521 124.158V125.922H119.477V124.158L122.645 123.798V105.474L119.981 109.65L109.325 122.502V123.798L112.709 124.158V125.922H102.557V124.158L105.545 123.798V101.406L102.665 100.974V99.1737H112.853ZM135.884 101.406L133.076 100.974V99.1737H137.864C138.728 99.1737 139.58 99.1377 140.42 99.0657C141.716 98.9697 142.94 98.9217 144.092 98.9217C147.572 98.9457 150.032 99.5937 151.472 100.866C152.912 102.138 153.632 104.058 153.632 106.626C153.632 108.546 153.188 110.214 152.3 111.63C151.412 113.046 150.176 114.126 148.592 114.87C147.032 115.614 145.232 115.986 143.192 115.986C142.496 115.986 141.788 115.974 141.068 115.95C140.348 115.902 139.904 115.866 139.736 115.842V123.762L144.668 124.158V125.922H132.896V124.158L135.884 123.798V101.406ZM139.736 113.862C140.408 113.982 141.56 114.042 143.192 114.042C145.088 114.042 146.624 113.466 147.8 112.314C149 111.162 149.6 109.278 149.6 106.662C149.6 104.598 149.084 103.122 148.052 102.234C147.02 101.322 145.412 100.866 143.228 100.866C142.46 100.866 141.644 100.914 140.78 101.01C140.252 101.058 139.904 101.082 139.736 101.082V113.862ZM190.054 99.1737V100.974L186.994 101.442V123.762L190.342 124.158V125.922H180.19V124.158L183.178 123.762V101.298H171.658V123.798L175.006 124.158V125.922H164.926V124.158L167.842 123.798V101.406L164.782 100.974V99.1737H190.054ZM204.306 126.318C201.858 126.318 199.782 125.754 198.078 124.626C196.398 123.498 195.126 121.914 194.262 119.874C193.398 117.81 192.966 115.422 192.966 112.71C192.966 109.95 193.482 107.526 194.514 105.438C195.57 103.35 197.01 101.742 198.834 100.614C200.658 99.4617 202.71 98.8857 204.99 98.8857C208.734 98.8857 211.59 100.074 213.558 102.45C215.55 104.802 216.546 108.066 216.546 112.242C216.546 115.05 216.006 117.522 214.926 119.658C213.87 121.77 212.406 123.414 210.534 124.59C208.686 125.742 206.61 126.318 204.306 126.318ZM204.774 100.758C202.446 100.758 200.61 101.778 199.266 103.818C197.922 105.834 197.25 108.798 197.25 112.71C197.25 116.31 197.898 119.166 199.194 121.278C200.514 123.366 202.35 124.41 204.702 124.41C207.006 124.41 208.83 123.366 210.174 121.278C211.542 119.19 212.226 116.19 212.226 112.278C212.226 108.654 211.578 105.834 210.282 103.818C208.986 101.778 207.15 100.758 204.774 100.758ZM231.331 126.318C228.691 126.318 226.435 125.754 224.563 124.626C222.715 123.474 221.311 121.866 220.351 119.802C219.391 117.738 218.911 115.314 218.911 112.53C218.911 109.842 219.475 107.466 220.603 105.402C221.731 103.338 223.279 101.742 225.247 100.614C227.215 99.4617 229.423 98.8857 231.871 98.8857C233.719 98.8857 235.939 99.1737 238.531 99.7497L239.719 99.9657L239.359 106.446H236.947L236.047 101.874C235.711 101.586 235.123 101.346 234.283 101.154C233.467 100.938 232.459 100.83 231.259 100.83C229.723 100.83 228.355 101.274 227.155 102.162C225.955 103.026 225.007 104.31 224.311 106.014C223.639 107.718 223.303 109.758 223.303 112.134C223.303 114.39 223.603 116.442 224.203 118.29C224.803 120.138 225.715 121.614 226.939 122.718C228.163 123.798 229.675 124.338 231.475 124.338C232.747 124.338 233.719 124.23 234.391 124.014C235.087 123.798 235.675 123.486 236.155 123.078L237.667 119.55L239.935 119.838L239.071 124.95C238.567 124.974 237.823 125.142 236.839 125.454C235.975 125.718 235.135 125.922 234.319 126.066C233.527 126.234 232.531 126.318 231.331 126.318ZM245.886 101.406L242.934 100.974V99.1737H261.258L261.762 104.754H259.71L258.666 101.262L249.738 101.046V111.198L255.75 111.09L256.254 108.102H258.234V116.382H256.254L255.75 113.286L249.738 113.178V123.906L259.89 123.546L261.798 119.01L263.922 119.658L262.878 125.922H242.898V124.158L245.886 123.798V101.406ZM275.131 101.082L268.939 101.298L267.679 108.822H265.303L265.915 99.1737H288.343L288.775 108.822H286.507L285.319 101.298L279.091 101.082V123.798L284.203 124.158V125.922H270.451V124.158L275.131 123.798V101.082ZM301.677 99.1737V100.974L298.149 101.406V119.478L301.101 115.05L311.469 102.378V101.406L308.265 100.974V99.1737H318.165V100.974L315.285 101.406V123.798L318.345 124.158V125.922H308.301V124.158L311.469 123.798V105.474L308.805 109.65L298.149 122.502V123.798L301.533 124.158V125.922H291.381V124.158L294.369 123.798V101.406L291.489 100.974V99.1737H301.677ZM330.432 101.082L324.24 101.298L322.98 108.822H320.604L321.216 99.1737H343.644L344.076 108.822H341.808L340.62 101.298L334.392 101.082V123.798L339.504 124.158V125.922H325.752V124.158L330.432 123.798V101.082ZM349.562 101.406L346.61 100.974V99.1737H364.934L365.438 104.754H363.386L362.342 101.262L353.414 101.046V111.198L359.426 111.09L359.93 108.102H361.91V116.382H359.93L359.426 113.286L353.414 113.178V123.906L363.566 123.546L365.474 119.01L367.598 119.658L366.554 125.922H346.574V124.158L349.562 123.798V101.406ZM387.566 104.646C387.566 108.966 387.314 112.782 386.81 116.094C386.33 119.382 385.598 121.878 384.614 123.582C384.11 124.446 383.534 125.082 382.886 125.49C382.238 125.898 381.47 126.102 380.582 126.102C379.43 126.102 378.578 126.042 378.026 125.922L377.774 123.006C378.326 123.078 379.226 123.114 380.474 123.114C380.93 123.114 381.326 123.018 381.662 122.826C381.998 122.61 382.31 122.25 382.598 121.746C384.422 118.914 385.334 113.082 385.334 104.25V101.406L381.194 100.974V99.1737H402.002V100.974L398.654 101.406V123.798L402.218 124.158V125.922H391.13V124.158L394.838 123.762L394.874 101.406H387.566V104.646ZM408.062 101.406L405.11 100.974V99.1737H423.434L423.938 104.754H421.886L420.842 101.262L411.914 101.046V111.198L417.926 111.09L418.43 108.102H420.41V116.382H418.43L417.926 113.286L411.914 113.178V123.906L422.066 123.546L423.974 119.01L426.098 119.658L425.054 125.922H405.074V124.158L408.062 123.798V101.406ZM440.871 111.918C441.831 112.278 442.791 113.082 443.751 114.33C444.711 115.554 445.863 117.222 447.207 119.334C448.119 120.822 448.827 121.914 449.331 122.61C449.835 123.282 450.267 123.666 450.627 123.762L451.995 124.158V125.922H447.531C446.979 125.922 446.355 125.454 445.659 124.518C444.987 123.558 444.111 122.106 443.031 120.162C441.807 117.978 440.787 116.322 439.971 115.194C439.155 114.066 438.375 113.502 437.631 113.502H435.327V123.762L438.531 124.194V125.922H428.667V124.122L431.583 123.762V101.406L428.667 100.974V99.1737H438.315V100.974L435.327 101.406V111.774H438.423L445.695 101.406L442.671 100.974V99.1737H451.527V100.974L448.683 101.406L440.871 111.918ZM480.079 123.762C480.079 124.05 479.935 125.574 479.647 128.334C479.359 131.118 479.191 132.546 479.143 132.618H476.839C476.839 132.162 476.767 130.974 476.623 129.054C476.479 127.158 476.371 126.114 476.299 125.922H453.619V124.158L456.967 123.726V101.406L453.943 100.974V99.1737H464.275V100.974L460.747 101.406V123.87H472.087V101.406L469.315 100.974V99.1737H478.855V100.974L475.903 101.406V123.762H480.079ZM493.033 99.1737V100.974L489.505 101.406V119.478L492.457 115.05L502.825 102.378V101.406L499.621 100.974V99.1737H509.521V100.974L506.641 101.406V123.798L509.701 124.158V125.922H499.657V124.158L502.825 123.798V105.474L500.161 109.65L489.505 122.502V123.798L492.889 124.158V125.922H482.737V124.158L485.725 123.798V101.406L482.845 100.974V99.1737H493.033ZM525.748 111.09C525.988 108.57 526.672 106.386 527.8 104.538C528.928 102.69 530.344 101.286 532.048 100.326C533.776 99.3417 535.636 98.8617 537.628 98.8857C539.98 98.8857 541.984 99.4377 543.64 100.542C545.32 101.622 546.592 103.146 547.456 105.114C548.32 107.058 548.752 109.326 548.752 111.918C548.752 114.822 548.236 117.366 547.204 119.55C546.196 121.71 544.804 123.366 543.028 124.518C541.276 125.67 539.308 126.246 537.124 126.246C534.7 126.246 532.636 125.718 530.932 124.662C529.228 123.582 527.932 122.07 527.044 120.126C526.156 118.158 525.7 115.866 525.676 113.25H519.916V123.762L523.012 124.158V125.922H513.112V124.158L516.064 123.762V101.406L513.184 100.974V99.1737H522.868V100.974L519.88 101.406V111.09H525.748ZM537.376 100.83C535.096 100.83 533.272 101.826 531.904 103.818C530.536 105.81 529.852 108.798 529.852 112.782C529.852 116.262 530.5 119.046 531.796 121.134C533.116 123.222 534.964 124.266 537.34 124.266C539.62 124.266 541.384 123.258 542.632 121.242C543.904 119.202 544.54 116.202 544.54 112.242C544.54 108.762 543.916 105.99 542.668 103.926C541.42 101.862 539.656 100.83 537.376 100.83ZM563.314 101.406L560.47 100.974V99.1737H570.262V100.974L567.166 101.406V111.09H579.838V101.406L576.922 100.974V99.1737H586.57V100.974L583.726 101.406V123.798L586.57 124.158V125.922H576.886V124.158L579.838 123.798V113.322H567.166V123.798L570.298 124.158V125.922H560.398V124.158L563.314 123.798V101.406ZM598.85 98.9577H602.81L611.558 123.798L613.79 124.158V125.922H604.286V124.158L607.274 123.798L605.582 118.47H595.07L593.378 123.798L596.474 124.158V125.922H587.942V124.158L590.174 123.798L598.85 98.9577ZM601.118 104.718L600.218 101.55L599.354 104.79L595.718 116.346H604.898L601.118 104.718ZM632.319 101.082L626.127 101.298L624.867 108.822H622.491L623.103 99.1737H645.531L645.963 108.822H643.695L642.507 101.298L636.279 101.082V123.798L641.391 124.158V125.922H627.639V124.158L632.319 123.798V101.082ZM651.449 101.406L648.497 100.974V99.1737H666.821L667.325 104.754H665.273L664.229 101.262L655.301 101.046V111.198L661.313 111.09L661.817 108.102H663.797V116.382H661.817L661.313 113.286L655.301 113.178V123.906L665.453 123.546L667.361 119.01L669.485 119.658L668.441 125.922H648.461V124.158L651.449 123.798V101.406ZM676.158 101.406L672.234 100.974V99.1737H681.774L686.85 115.374L688.038 119.946L689.118 115.374L694.158 99.1737H703.626V100.974L699.666 101.406L702.546 123.762L705.678 124.158V125.922H695.31V124.158L698.586 123.798L696.966 107.634L696.21 100.686L694.698 105.87L688.686 124.698H686.346L680.514 107.454L678.39 100.65L677.742 107.634L676.302 123.798L679.866 124.158V125.922H670.47V124.158L673.53 123.798L676.158 101.406ZM719.69 120.378C719.594 120.57 719.306 121.254 718.826 122.43C718.346 123.582 717.662 124.518 716.774 125.238C715.886 125.958 714.854 126.318 713.678 126.318C713.054 126.318 712.43 126.258 711.806 126.138C711.206 126.042 710.714 125.91 710.33 125.742V123.186L712.886 123.222C713.99 123.222 714.806 123.006 715.334 122.574C715.862 122.118 716.318 121.314 716.702 120.162L707.63 101.406L705.686 100.974V99.1737H715.406V100.974L711.878 101.406L717.674 113.934L718.754 117.21L719.942 113.898L724.514 101.406L721.454 100.974V99.1737H729.158V100.974L727.286 101.406L719.69 120.378ZM734.518 111.414C733.894 111.414 733.354 111.21 732.898 110.802C732.466 110.37 732.25 109.818 732.25 109.146C732.25 108.378 732.514 107.754 733.042 107.274C733.57 106.77 734.206 106.518 734.95 106.518C735.694 106.518 736.258 106.734 736.642 107.166C737.026 107.598 737.218 108.138 737.218 108.786C737.218 109.578 736.954 110.214 736.426 110.694C735.922 111.174 735.286 111.414 734.518 111.414ZM734.518 126.282C733.894 126.282 733.354 126.066 732.898 125.634C732.466 125.202 732.25 124.65 732.25 123.978C732.25 123.234 732.514 122.61 733.042 122.106C733.57 121.602 734.206 121.35 734.95 121.35C735.67 121.35 736.222 121.578 736.606 122.034C737.014 122.466 737.218 123.006 737.218 123.654C737.218 124.446 736.954 125.082 736.426 125.562C735.922 126.042 735.286 126.282 734.518 126.282Z" fill="#313131"/>
    <path d="M12.06 155.914L6.912 164.194L12.06 172.222L9.972 173.302L2.016 165.49V162.862L9.972 154.87L12.06 155.914ZM22.32 155.914L16.668 164.194L22.32 172.222L20.232 173.302L11.772 165.49V162.862L20.232 154.87L22.32 155.914ZM52.3637 148.174V150.406L49.4837 150.874V172.366L52.5797 172.762V174.922H41.4917V172.762L44.2277 172.402V150.658H34.2197V172.402L37.2437 172.762V174.922H26.1917V172.762L28.9997 172.402V150.874L26.0837 150.406V148.174H52.3637ZM64.5899 153.718C64.5899 157.894 64.3619 161.65 63.9059 164.986C63.4739 168.298 62.8019 170.794 61.8899 172.474C60.9299 174.25 59.5499 175.138 57.7499 175.138C56.5259 175.138 55.6019 175.066 54.9779 174.922L54.6539 171.682C55.6139 171.778 56.5259 171.826 57.3899 171.826C57.8699 171.826 58.2779 171.718 58.6139 171.502C58.9739 171.286 59.2859 170.902 59.5499 170.35C60.3179 169.006 60.9059 166.954 61.3139 164.194C61.7459 161.434 61.9619 157.714 61.9619 153.034V150.874L57.6419 150.406V148.174H79.9259V150.406L76.6139 150.874V172.402L80.1059 172.762V174.922H67.6859V172.762L71.3939 172.366L71.4299 150.874H64.5899V153.718ZM93.6745 175.318C89.7625 175.318 86.8345 174.094 84.8905 171.646C82.9465 169.198 81.9745 165.862 81.9745 161.638C81.9745 158.878 82.4785 156.454 83.4865 154.366C84.5185 152.278 85.9585 150.67 87.8065 149.542C89.6545 148.414 91.7785 147.85 94.1785 147.85C98.1385 147.85 101.103 149.026 103.071 151.378C105.063 153.706 106.059 156.97 106.059 161.17C106.059 163.954 105.531 166.426 104.475 168.586C103.443 170.722 101.991 172.378 100.119 173.554C98.2465 174.73 96.0985 175.318 93.6745 175.318ZM94.0345 150.046C92.0665 150.046 90.5305 151.018 89.4265 152.962C88.3225 154.906 87.7705 157.786 87.7705 161.602C87.7705 165.37 88.2985 168.238 89.3545 170.206C90.4345 172.15 91.9705 173.122 93.9625 173.122C95.9065 173.122 97.4305 172.102 98.5345 170.062C99.6385 167.998 100.191 165.034 100.191 161.17C100.191 157.426 99.6625 154.642 98.6065 152.818C97.5505 150.97 96.0265 150.046 94.0345 150.046ZM132.934 172.366C132.934 173.086 132.826 174.814 132.61 177.55C132.394 180.31 132.262 181.798 132.214 182.014H129.298C129.274 181.39 129.13 180.106 128.866 178.162C128.602 176.218 128.398 175.138 128.254 174.922H112.414C112.246 175.138 111.946 176.146 111.514 177.946C111.106 179.746 110.83 181.114 110.686 182.05H107.698L107.734 180.43C107.854 176.398 107.962 173.71 108.058 172.366H110.65C111.226 171.574 111.85 170.362 112.522 168.73C113.194 167.098 113.782 164.914 114.286 162.178C114.79 159.442 115.042 156.25 115.042 152.602V150.874L111.298 150.406V148.174H133.006V150.406L129.55 150.874V172.366H132.934ZM117.67 152.818C117.694 156.106 117.514 159.094 117.13 161.782C116.746 164.446 116.29 166.654 115.762 168.406C115.234 170.158 114.73 171.478 114.25 172.366H124.33L124.366 150.622H117.67V152.818ZM147.147 175.318C143.235 175.318 140.307 174.094 138.363 171.646C136.419 169.198 135.447 165.862 135.447 161.638C135.447 158.878 135.951 156.454 136.959 154.366C137.991 152.278 139.431 150.67 141.279 149.542C143.127 148.414 145.251 147.85 147.651 147.85C151.611 147.85 154.575 149.026 156.543 151.378C158.535 153.706 159.531 156.97 159.531 161.17C159.531 163.954 159.003 166.426 157.947 168.586C156.915 170.722 155.463 172.378 153.591 173.554C151.719 174.73 149.571 175.318 147.147 175.318ZM147.507 150.046C145.539 150.046 144.003 151.018 142.899 152.962C141.795 154.906 141.243 157.786 141.243 161.602C141.243 165.37 141.771 168.238 142.827 170.206C143.907 172.15 145.443 173.122 147.435 173.122C149.379 173.122 150.903 172.102 152.007 170.062C153.111 167.998 153.663 165.034 153.663 161.17C153.663 157.426 153.135 154.642 152.079 152.818C151.023 150.97 149.499 150.046 147.507 150.046ZM170.711 150.55L165.563 150.73L164.159 158.578H161.135L161.747 148.174H184.967L185.399 158.578H182.555L181.151 150.73L176.075 150.55V172.402L181.115 172.762V174.922H166.103V172.762L170.711 172.402V150.55ZM190.436 150.874L187.628 150.406V148.174H192.992C193.808 148.174 194.864 148.126 196.16 148.03C196.472 148.006 196.844 147.982 197.276 147.958C197.708 147.934 198.212 147.922 198.788 147.922C202.412 147.922 204.944 148.438 206.384 149.47C207.848 150.478 208.58 151.99 208.58 154.006C208.58 155.782 208.04 157.27 206.96 158.47C205.904 159.646 204.512 160.366 202.784 160.63C205.16 160.606 207.02 161.146 208.364 162.25C209.732 163.354 210.416 164.89 210.416 166.858C210.416 169.354 209.54 171.358 207.788 172.87C206.036 174.382 203.108 175.138 199.004 175.138C197.924 175.138 196.928 175.102 196.016 175.03C195.776 175.03 195.368 175.006 194.792 174.958C194.216 174.934 193.628 174.922 193.028 174.922H187.592V172.762L190.436 172.402V150.874ZM195.656 159.838C195.92 159.862 196.46 159.874 197.276 159.874H198.968C200.432 159.874 201.524 159.418 202.244 158.506C202.964 157.594 203.324 156.31 203.324 154.654C203.324 153.07 202.952 151.918 202.208 151.198C201.464 150.478 200.228 150.118 198.5 150.118C198.044 150.118 197.096 150.166 195.656 150.262V159.838ZM195.656 172.546C196.208 172.762 197.264 172.87 198.824 172.87C200.864 172.87 202.34 172.39 203.252 171.43C204.164 170.47 204.62 169.078 204.62 167.254C204.62 165.502 204.2 164.254 203.36 163.51C202.544 162.742 201.236 162.358 199.436 162.358C197.42 162.358 196.16 162.382 195.656 162.43V172.546ZM224.35 175.318C220.438 175.318 217.51 174.094 215.566 171.646C213.622 169.198 212.65 165.862 212.65 161.638C212.65 158.878 213.154 156.454 214.162 154.366C215.194 152.278 216.634 150.67 218.482 149.542C220.33 148.414 222.454 147.85 224.854 147.85C228.814 147.85 231.778 149.026 233.746 151.378C235.738 153.706 236.734 156.97 236.734 161.17C236.734 163.954 236.206 166.426 235.15 168.586C234.118 170.722 232.666 172.378 230.794 173.554C228.922 174.73 226.774 175.318 224.35 175.318ZM224.71 150.046C222.742 150.046 221.206 151.018 220.102 152.962C218.998 154.906 218.446 157.786 218.446 161.602C218.446 165.37 218.974 168.238 220.03 170.206C221.11 172.15 222.646 173.122 224.638 173.122C226.582 173.122 228.106 172.102 229.21 170.062C230.314 167.998 230.866 165.034 230.866 161.17C230.866 157.426 230.338 154.642 229.282 152.818C228.226 150.97 226.702 150.046 224.71 150.046ZM242.046 150.874L239.346 150.406V148.174H244.782C245.286 148.174 246.066 148.15 247.122 148.102C248.514 148.006 249.774 147.958 250.902 147.958C253.398 147.958 255.366 148.27 256.806 148.894C258.27 149.494 259.302 150.37 259.902 151.522C260.526 152.65 260.838 154.09 260.838 155.842C260.838 158.866 259.89 161.218 257.994 162.898C256.122 164.578 253.518 165.418 250.182 165.418C248.862 165.418 247.914 165.382 247.338 165.31V172.402L252.162 172.762V174.922H239.202V172.762L242.046 172.402V150.874ZM247.302 163.006C247.854 163.126 248.79 163.186 250.11 163.186C251.718 163.186 253.002 162.634 253.962 161.53C254.946 160.402 255.438 158.542 255.438 155.95C255.438 153.934 254.994 152.47 254.106 151.558C253.242 150.622 251.91 150.154 250.11 150.154C249.438 150.154 248.742 150.202 248.022 150.298C247.686 150.346 247.446 150.37 247.302 150.37V163.006ZM265.847 150.874L263.183 150.406V148.174H274.127V150.406L271.103 150.874V159.91H282.047V150.874L279.275 150.406V148.174H290.075V150.406L287.339 150.874V172.402L290.075 172.762V174.922H279.239V172.762L282.047 172.402V162.646H271.103V172.402L274.127 172.762V174.922H263.111V172.762L265.847 172.402V150.874ZM301.449 148.03H306.957L315.273 172.402L317.361 172.762V174.922H306.741V172.762L309.441 172.402L308.037 167.722H298.713L297.309 172.438L300.225 172.762V174.922H291.045L291.009 172.762L293.169 172.402L301.449 148.03ZM303.933 154.114L303.285 151.306L302.601 154.15L299.397 165.202H307.317L303.933 154.114ZM328.958 163.438C328.358 163.798 327.794 164.542 327.266 165.67C326.762 166.774 326.162 168.274 325.466 170.17C324.866 171.802 324.374 173.002 323.99 173.77C323.63 174.538 323.282 174.922 322.946 174.922H316.862V172.798L318.158 172.402C318.494 172.306 318.83 171.982 319.166 171.43C319.502 170.878 319.934 170.038 320.462 168.91C321.278 167.182 322.022 165.802 322.694 164.77C323.366 163.738 324.158 163.018 325.07 162.61C323.39 162.178 322.094 161.302 321.182 159.982C320.27 158.662 319.814 157.138 319.814 155.41C319.814 152.698 320.642 150.778 322.298 149.65C323.954 148.498 326.498 147.922 329.93 147.922C330.794 147.922 331.85 147.97 333.098 148.066C333.362 148.066 333.77 148.09 334.322 148.138C334.874 148.162 335.378 148.174 335.834 148.174H341.45V150.406L338.57 150.874V172.402L341.666 172.798V174.922H330.038V172.798L333.314 172.402V163.438H328.958ZM333.314 150.37C333.146 150.346 332.81 150.31 332.306 150.262C331.826 150.19 331.154 150.154 330.29 150.154C328.682 150.154 327.446 150.538 326.582 151.306C325.742 152.05 325.322 153.382 325.322 155.302C325.322 157.27 325.742 158.758 326.582 159.766C327.446 160.75 328.694 161.242 330.326 161.242C331.862 161.242 332.858 161.194 333.314 161.098V150.37ZM377.235 172.366C377.235 173.086 377.127 174.814 376.911 177.55C376.695 180.31 376.563 181.798 376.515 182.014H373.599C373.575 181.39 373.431 180.106 373.167 178.162C372.903 176.218 372.699 175.138 372.555 174.922H356.715C356.547 175.138 356.247 176.146 355.815 177.946C355.407 179.746 355.131 181.114 354.987 182.05H351.999L352.035 180.43C352.155 176.398 352.263 173.71 352.359 172.366H354.951C355.527 171.574 356.151 170.362 356.823 168.73C357.495 167.098 358.083 164.914 358.587 162.178C359.091 159.442 359.343 156.25 359.343 152.602V150.874L355.599 150.406V148.174H377.307V150.406L373.851 150.874V172.366H377.235ZM361.971 152.818C361.995 156.106 361.815 159.094 361.431 161.782C361.047 164.446 360.591 166.654 360.063 168.406C359.535 170.158 359.031 171.478 358.551 172.366H368.631L368.667 150.622H361.971V152.818ZM382.916 150.874L380.036 150.406V148.174H399.224L399.692 154.222H397.172L395.984 150.658L388.208 150.334V160.018L393.212 159.91L393.788 156.958H396.092V165.67H393.788L393.212 162.574L388.208 162.466V172.618L396.92 172.186L399.008 167.578L401.708 168.334L400.772 174.922H380.072V172.762L382.916 172.402V150.874ZM411.798 159.298C412.038 159.25 412.722 159.19 413.85 159.118C414.978 159.046 415.83 159.01 416.406 159.01C419.526 159.01 421.866 159.658 423.426 160.954C424.986 162.25 425.766 164.158 425.766 166.678C425.766 169.39 424.89 171.49 423.138 172.978C421.41 174.466 419.118 175.21 416.262 175.21C415.71 175.21 414.834 175.174 413.634 175.102C410.994 174.982 409.566 174.922 409.35 174.922H403.266V172.762L406.542 172.402V150.874L403.266 150.406V148.174H423.426L423.786 155.302H420.69L419.574 150.802L411.798 150.478V159.298ZM411.798 172.582C412.302 172.702 412.734 172.786 413.094 172.834C413.478 172.882 414.018 172.906 414.714 172.906C416.634 172.906 418.038 172.378 418.926 171.322C419.838 170.266 420.294 168.814 420.294 166.966C420.294 165.046 419.838 163.642 418.926 162.754C418.038 161.842 416.694 161.386 414.894 161.386C414.342 161.386 413.766 161.41 413.166 161.458C412.59 161.482 412.134 161.518 411.798 161.566V172.582ZM441.488 159.874C441.728 157.402 442.388 155.266 443.468 153.466C444.572 151.642 445.976 150.25 447.68 149.29C449.408 148.33 451.328 147.85 453.44 147.85C457.28 147.85 460.172 149.002 462.116 151.306C464.06 153.61 465.032 156.814 465.032 160.918C465.032 163.822 464.528 166.366 463.52 168.55C462.512 170.71 461.108 172.378 459.308 173.554C457.508 174.706 455.456 175.282 453.152 175.282C449.36 175.282 446.48 174.166 444.512 171.934C442.544 169.678 441.512 166.57 441.416 162.61H436.196V172.366L439.22 172.762V174.922H428.132V172.762L430.94 172.366V150.874L428.204 150.406V148.174H439.112V150.406L436.196 150.874V159.874H441.488ZM453.332 150.082C451.412 150.082 449.9 151.054 448.796 152.998C447.716 154.918 447.176 157.81 447.176 161.674C447.176 165.346 447.704 168.154 448.76 170.098C449.816 172.042 451.34 173.014 453.332 173.014C455.228 173.014 456.68 172.018 457.688 170.026C458.72 168.01 459.236 165.058 459.236 161.17C459.236 157.522 458.732 154.762 457.724 152.89C456.716 151.018 455.252 150.082 453.332 150.082ZM476.324 150.55L471.176 150.73L469.772 158.578H466.748L467.36 148.174H490.58L491.012 158.578H488.168L486.764 150.73L481.688 150.55V172.402L486.728 172.762V174.922H471.716V172.762L476.324 172.402V150.55ZM496.085 150.874L493.421 150.406V148.174H504.365V150.406L501.341 150.874V159.91H512.285V150.874L509.513 150.406V148.174H520.313V150.406L517.577 150.874V172.402L520.313 172.762V174.922H509.477V172.762L512.285 172.402V162.646H501.341V172.402L504.365 172.762V174.922H493.349V172.762L496.085 172.402V150.874ZM531.687 148.03H537.195L545.511 172.402L547.599 172.762V174.922H536.979V172.762L539.679 172.402L538.275 167.722H528.951L527.547 172.438L530.463 172.762V174.922H521.283L521.247 172.762L523.407 172.402L531.687 148.03ZM534.171 154.114L533.523 151.306L532.839 154.15L529.635 165.202H537.555L534.171 154.114ZM559.197 163.438C558.597 163.798 558.033 164.542 557.505 165.67C557.001 166.774 556.401 168.274 555.705 170.17C555.105 171.802 554.613 173.002 554.229 173.77C553.869 174.538 553.521 174.922 553.185 174.922H547.101V172.798L548.397 172.402C548.733 172.306 549.069 171.982 549.405 171.43C549.741 170.878 550.173 170.038 550.701 168.91C551.517 167.182 552.261 165.802 552.933 164.77C553.605 163.738 554.397 163.018 555.309 162.61C553.629 162.178 552.333 161.302 551.421 159.982C550.509 158.662 550.053 157.138 550.053 155.41C550.053 152.698 550.881 150.778 552.537 149.65C554.193 148.498 556.737 147.922 560.169 147.922C561.033 147.922 562.089 147.97 563.337 148.066C563.601 148.066 564.009 148.09 564.561 148.138C565.113 148.162 565.617 148.174 566.073 148.174H571.689V150.406L568.809 150.874V172.402L571.905 172.798V174.922H560.277V172.798L563.553 172.402V163.438H559.197ZM563.553 150.37C563.385 150.346 563.049 150.31 562.545 150.262C562.065 150.19 561.393 150.154 560.529 150.154C558.921 150.154 557.685 150.538 556.821 151.306C555.981 152.05 555.561 153.382 555.561 155.302C555.561 157.27 555.981 158.758 556.821 159.766C557.685 160.75 558.933 161.242 560.565 161.242C562.101 161.242 563.097 161.194 563.553 161.098V150.37ZM594.441 148.174V150.406L591.129 150.874V167.65L593.541 163.618L602.721 151.738V150.874L599.697 150.406V148.174H610.713V150.406L607.941 150.874V172.402L610.821 172.762V174.922H599.697V172.762L602.721 172.402V155.41L600.561 159.298L591.129 171.286V172.402L594.333 172.762V174.922H583.101V172.762L585.945 172.402V150.874L583.173 150.406V148.174H594.441ZM638.094 172.366C638.094 173.086 637.986 174.814 637.77 177.55C637.554 180.31 637.422 181.798 637.374 182.014H634.458C634.434 181.39 634.29 180.106 634.026 178.162C633.762 176.218 633.558 175.138 633.414 174.922H617.574C617.406 175.138 617.106 176.146 616.674 177.946C616.266 179.746 615.99 181.114 615.846 182.05H612.858L612.894 180.43C613.014 176.398 613.122 173.71 613.218 172.366H615.81C616.386 171.574 617.01 170.362 617.682 168.73C618.354 167.098 618.942 164.914 619.446 162.178C619.95 159.442 620.202 156.25 620.202 152.602V150.874L616.458 150.406V148.174H638.166V150.406L634.71 150.874V172.366H638.094ZM622.83 152.818C622.854 156.106 622.674 159.094 622.29 161.782C621.906 164.446 621.45 166.654 620.922 168.406C620.394 170.158 619.89 171.478 619.41 172.366H629.49L629.526 150.622H622.83V152.818ZM643.775 150.874L640.895 150.406V148.174H660.083L660.551 154.222H658.031L656.843 150.658L649.067 150.334V160.018L654.071 159.91L654.647 156.958H656.951V165.67H654.647L654.071 162.574L649.067 162.466V172.618L657.779 172.186L659.867 167.578L662.567 168.334L661.631 174.922H640.931V172.762L643.775 172.402V150.874ZM675.177 163.438C674.577 163.798 674.013 164.542 673.485 165.67C672.981 166.774 672.381 168.274 671.685 170.17C671.085 171.802 670.593 173.002 670.209 173.77C669.849 174.538 669.501 174.922 669.165 174.922H663.081V172.798L664.377 172.402C664.713 172.306 665.049 171.982 665.385 171.43C665.721 170.878 666.153 170.038 666.681 168.91C667.497 167.182 668.241 165.802 668.913 164.77C669.585 163.738 670.377 163.018 671.289 162.61C669.609 162.178 668.313 161.302 667.401 159.982C666.489 158.662 666.033 157.138 666.033 155.41C666.033 152.698 666.861 150.778 668.517 149.65C670.173 148.498 672.717 147.922 676.149 147.922C677.013 147.922 678.069 147.97 679.317 148.066C679.581 148.066 679.989 148.09 680.541 148.138C681.093 148.162 681.597 148.174 682.053 148.174H687.669V150.406L684.789 150.874V172.402L687.885 172.798V174.922H676.257V172.798L679.533 172.402V163.438H675.177ZM679.533 150.37C679.365 150.346 679.029 150.31 678.525 150.262C678.045 150.19 677.373 150.154 676.509 150.154C674.901 150.154 673.665 150.538 672.801 151.306C671.961 152.05 671.541 153.382 671.541 155.302C671.541 157.27 671.961 158.758 672.801 159.766C673.665 160.75 674.913 161.242 676.545 161.242C678.081 161.242 679.077 161.194 679.533 161.098V150.37ZM701.987 162.862V165.49L693.527 173.302L691.438 172.222L697.091 164.194L691.438 155.914L693.527 154.87L701.987 162.862ZM711.743 162.862V165.49L703.823 173.302L701.735 172.222L706.847 164.194L701.735 155.914L703.823 154.87L711.743 162.862Z" fill="#F54932"/>
</svg>
