<svg width="653" height="141" viewBox="0 0 653 141" fill="none" xmlns="http://www.w3.org/2000/svg">
    <path d="M11.06 9.252V11.052L7.532 11.484V29.556L10.484 25.128L20.852 12.456V11.484L17.648 11.052V9.252H27.548V11.052L24.668 11.484V33.876L27.728 34.236V36H17.684V34.236L20.852 33.876V15.552L18.188 19.728L7.532 32.58V33.876L10.916 34.236V36H0.764V34.236L3.752 33.876V11.484L0.872 11.052V9.252H11.06ZM51.526 36.396C48.886 36.396 46.63 35.832 44.758 34.704C42.91 33.552 41.506 31.944 40.546 29.88C39.586 27.816 39.106 25.392 39.106 22.608C39.106 19.92 39.67 17.544 40.798 15.48C41.926 13.416 43.474 11.82 45.442 10.692C47.41 9.54 49.618 8.964 52.066 8.964C53.914 8.964 56.134 9.252 58.726 9.828L59.914 10.044L59.554 16.524H57.142L56.242 11.952C55.906 11.664 55.318 11.424 54.478 11.232C53.662 11.016 52.654 10.908 51.454 10.908C49.918 10.908 48.55 11.352 47.35 12.24C46.15 13.104 45.202 14.388 44.506 16.092C43.834 17.796 43.498 19.836 43.498 22.212C43.498 24.468 43.798 26.52 44.398 28.368C44.998 30.216 45.91 31.692 47.134 32.796C48.358 33.876 49.87 34.416 51.67 34.416C52.942 34.416 53.914 34.308 54.586 34.092C55.282 33.876 55.87 33.564 56.35 33.156L57.862 29.628L60.13 29.916L59.266 35.028C58.762 35.052 58.018 35.22 57.034 35.532C56.17 35.796 55.33 36 54.514 36.144C53.722 36.312 52.726 36.396 51.526 36.396ZM66.0815 11.484L63.1295 11.052V9.252H81.4535L81.9575 14.832H79.9055L78.8615 11.34L69.9335 11.124V21.276L75.9455 21.168L76.4495 18.18H78.4295V26.46H76.4495L75.9455 23.364L69.9335 23.256V33.984L80.0855 33.624L81.9935 29.088L84.1175 29.736L83.0735 36H63.0935V34.236L66.0815 33.876V11.484ZM95.3267 9.036H99.2867L108.035 33.876L110.267 34.236V36H100.763V34.236L103.751 33.876L102.059 28.548H91.5467L89.8547 33.876L92.9507 34.236V36H84.4187V34.236L86.6507 33.876L95.3267 9.036ZM97.5947 14.796L96.6947 11.628L95.8307 14.868L92.1947 26.424H101.375L97.5947 14.796ZM114.529 11.484L111.685 11.052V9.252H121.477V11.052L118.381 11.484V21.168H131.053V11.484L128.137 11.052V9.252H137.785V11.052L134.941 11.484V33.876L137.785 34.236V36H128.101V34.236L131.053 33.876V23.4H118.381V33.876L121.513 34.236V36H111.613V34.236L114.529 33.876V11.484ZM153.233 36.396C150.593 36.396 148.337 35.832 146.465 34.704C144.617 33.552 143.213 31.944 142.253 29.88C141.293 27.816 140.813 25.392 140.813 22.608C140.813 19.92 141.377 17.544 142.505 15.48C143.633 13.416 145.181 11.82 147.149 10.692C149.117 9.54 151.325 8.964 153.773 8.964C155.621 8.964 157.841 9.252 160.433 9.828L161.621 10.044L161.261 16.524H158.849L157.949 11.952C157.613 11.664 157.025 11.424 156.185 11.232C155.369 11.016 154.361 10.908 153.161 10.908C151.625 10.908 150.257 11.352 149.057 12.24C147.857 13.104 146.909 14.388 146.213 16.092C145.541 17.796 145.205 19.836 145.205 22.212C145.205 24.468 145.505 26.52 146.105 28.368C146.705 30.216 147.617 31.692 148.841 32.796C150.065 33.876 151.577 34.416 153.377 34.416C154.649 34.416 155.621 34.308 156.293 34.092C156.989 33.876 157.577 33.564 158.057 33.156L159.569 29.628L161.837 29.916L160.973 35.028C160.469 35.052 159.725 35.22 158.741 35.532C157.877 35.796 157.037 36 156.221 36.144C155.429 36.312 154.433 36.396 153.233 36.396ZM18.98 107.252L19.232 116.72H16.82L15.776 109.412L7.856 109.124V131.84L14.12 132.236V134H0.00800003V132.236L3.968 131.84V109.52L0.116 109.016V107.252H18.98ZM24.4582 109.484L21.6502 109.052V107.252H26.4382C27.3022 107.252 28.1542 107.216 28.9942 107.144C30.2902 107.048 31.5142 107 32.6662 107C36.1462 107.024 38.6062 107.672 40.0462 108.944C41.4862 110.216 42.2062 112.136 42.2062 114.704C42.2062 116.624 41.7622 118.292 40.8742 119.708C39.9862 121.124 38.7502 122.204 37.1662 122.948C35.6062 123.692 33.8062 124.064 31.7662 124.064C31.0702 124.064 30.3622 124.052 29.6422 124.028C28.9222 123.98 28.4782 123.944 28.3102 123.92V131.84L33.2422 132.236V134H21.4702V132.236L24.4582 131.876V109.484ZM28.3102 121.94C28.9822 122.06 30.1342 122.12 31.7662 122.12C33.6622 122.12 35.1982 121.544 36.3742 120.392C37.5742 119.24 38.1742 117.356 38.1742 114.74C38.1742 112.676 37.6582 111.2 36.6262 110.312C35.5942 109.4 33.9862 108.944 31.8022 108.944C31.0342 108.944 30.2182 108.992 29.3542 109.088C28.8262 109.136 28.4782 109.16 28.3102 109.16V121.94ZM55.6851 134.396C53.2371 134.396 51.1611 133.832 49.4571 132.704C47.7771 131.576 46.5051 129.992 45.6411 127.952C44.7771 125.888 44.3451 123.5 44.3451 120.788C44.3451 118.028 44.8611 115.604 45.8931 113.516C46.9491 111.428 48.3891 109.82 50.2131 108.692C52.0371 107.54 54.0891 106.964 56.3691 106.964C60.1131 106.964 62.9691 108.152 64.9371 110.528C66.9291 112.88 67.9251 116.144 67.9251 120.32C67.9251 123.128 67.3851 125.6 66.3051 127.736C65.2491 129.848 63.7851 131.492 61.9131 132.668C60.0651 133.82 57.9891 134.396 55.6851 134.396ZM56.1531 108.836C53.8251 108.836 51.9891 109.856 50.6451 111.896C49.3011 113.912 48.6291 116.876 48.6291 120.788C48.6291 124.388 49.2771 127.244 50.5731 129.356C51.8931 131.444 53.7291 132.488 56.0811 132.488C58.3851 132.488 60.2091 131.444 61.5531 129.356C62.9211 127.268 63.6051 124.268 63.6051 120.356C63.6051 116.732 62.9571 113.912 61.6611 111.896C60.3651 109.856 58.5291 108.836 56.1531 108.836ZM82.7096 134.396C80.0696 134.396 77.8136 133.832 75.9416 132.704C74.0936 131.552 72.6896 129.944 71.7296 127.88C70.7696 125.816 70.2896 123.392 70.2896 120.608C70.2896 117.92 70.8536 115.544 71.9816 113.48C73.1096 111.416 74.6576 109.82 76.6256 108.692C78.5936 107.54 80.8016 106.964 83.2496 106.964C85.0976 106.964 87.3176 107.252 89.9096 107.828L91.0976 108.044L90.7376 114.524H88.3256L87.4256 109.952C87.0896 109.664 86.5016 109.424 85.6616 109.232C84.8456 109.016 83.8376 108.908 82.6376 108.908C81.1016 108.908 79.7336 109.352 78.5336 110.24C77.3336 111.104 76.3856 112.388 75.6896 114.092C75.0176 115.796 74.6816 117.836 74.6816 120.212C74.6816 122.468 74.9816 124.52 75.5816 126.368C76.1816 128.216 77.0936 129.692 78.3176 130.796C79.5416 131.876 81.0536 132.416 82.8536 132.416C84.1256 132.416 85.0976 132.308 85.7696 132.092C86.4656 131.876 87.0536 131.564 87.5336 131.156L89.0456 127.628L91.3136 127.916L90.4496 133.028C89.9456 133.052 89.2016 133.22 88.2176 133.532C87.3536 133.796 86.5136 134 85.6976 134.144C84.9056 134.312 83.9096 134.396 82.7096 134.396ZM106.229 134.396C103.589 134.396 101.333 133.832 99.4611 132.704C97.6131 131.552 96.2091 129.944 95.2491 127.88C94.2891 125.816 93.8091 123.392 93.8091 120.608C93.8091 117.92 94.3731 115.544 95.5011 113.48C96.6291 111.416 98.1771 109.82 100.145 108.692C102.113 107.54 104.321 106.964 106.769 106.964C108.617 106.964 110.837 107.252 113.429 107.828L114.617 108.044L114.257 114.524H111.845L110.945 109.952C110.609 109.664 110.021 109.424 109.181 109.232C108.365 109.016 107.357 108.908 106.157 108.908C104.621 108.908 103.253 109.352 102.053 110.24C100.853 111.104 99.9051 112.388 99.2091 114.092C98.5371 115.796 98.2011 117.836 98.2011 120.212C98.2011 122.468 98.5011 124.52 99.1011 126.368C99.7011 128.216 100.613 129.692 101.837 130.796C103.061 131.876 104.573 132.416 106.373 132.416C107.645 132.416 108.617 132.308 109.289 132.092C109.985 131.876 110.573 131.564 111.053 131.156L112.565 127.628L114.833 127.916L113.969 133.028C113.465 133.052 112.721 133.22 111.737 133.532C110.873 133.796 110.033 134 109.217 134.144C108.425 134.312 107.429 134.396 106.229 134.396ZM122.045 109.484L118.121 109.052V107.252H127.661L132.737 123.452L133.925 128.024L135.005 123.452L140.045 107.252H149.513V109.052L145.553 109.484L148.433 131.84L151.565 132.236V134H141.197V132.236L144.473 131.876L142.853 115.712L142.097 108.764L140.585 113.948L134.573 132.776H132.233L126.401 115.532L124.277 108.728L123.629 115.712L122.189 131.876L125.753 132.236V134H116.357V132.236L119.417 131.876L122.045 109.484ZM156.433 109.484L153.481 109.052V107.252H171.805L172.309 112.832H170.257L169.213 109.34L160.285 109.124V119.276L166.297 119.168L166.801 116.18H168.781V124.46H166.801L166.297 121.364L160.285 121.256V131.984L170.437 131.624L172.345 127.088L174.469 127.736L173.425 134H153.445V132.236L156.433 131.876V109.484ZM187.298 107.252V109.052L183.77 109.484V127.556L186.722 123.128L197.09 110.456V109.484L193.886 109.052V107.252H203.786V109.052L200.906 109.484V131.876L203.966 132.236V134H193.922V132.236L197.09 131.876V113.552L194.426 117.728L183.77 130.58V131.876L187.154 132.236V134H177.002V132.236L179.99 131.876V109.484L177.11 109.052V107.252H187.298ZM186.542 98.612C186.926 98.612 187.118 99.08 187.118 100.016C187.118 101.024 187.382 101.804 187.91 102.356C188.462 102.908 189.41 103.184 190.754 103.184C192.098 103.184 193.034 102.908 193.562 102.356C194.114 101.804 194.39 101.024 194.39 100.016C194.39 99.08 194.57 98.612 194.93 98.612H197.63L197.666 99.404C197.666 101.204 197.066 102.572 195.866 103.508C194.69 104.42 192.986 104.876 190.754 104.876C188.546 104.876 186.842 104.408 185.642 103.472C184.442 102.536 183.842 101.18 183.842 99.404L183.878 98.612H186.542ZM219.221 134.396C216.581 134.396 214.325 133.832 212.453 132.704C210.605 131.552 209.201 129.944 208.241 127.88C207.281 125.816 206.801 123.392 206.801 120.608C206.801 117.92 207.365 115.544 208.493 113.48C209.621 111.416 211.169 109.82 213.137 108.692C215.105 107.54 217.313 106.964 219.761 106.964C221.609 106.964 223.829 107.252 226.421 107.828L227.609 108.044L227.249 114.524H224.837L223.937 109.952C223.601 109.664 223.013 109.424 222.173 109.232C221.357 109.016 220.349 108.908 219.149 108.908C217.613 108.908 216.245 109.352 215.045 110.24C213.845 111.104 212.897 112.388 212.201 114.092C211.529 115.796 211.193 117.836 211.193 120.212C211.193 122.468 211.493 124.52 212.093 126.368C212.693 128.216 213.605 129.692 214.829 130.796C216.053 131.876 217.565 132.416 219.365 132.416C220.637 132.416 221.609 132.308 222.281 132.092C222.977 131.876 223.565 131.564 224.045 131.156L225.557 127.628L227.825 127.916L226.961 133.028C226.457 133.052 225.713 133.22 224.729 133.532C223.865 133.796 223.025 134 222.209 134.144C221.417 134.312 220.421 134.396 219.221 134.396ZM239.573 109.16L233.381 109.376L232.121 116.9H229.745L230.357 107.252H252.785L253.217 116.9H250.949L249.761 109.376L243.533 109.16V131.876L248.645 132.236V134H234.893V132.236L239.573 131.876V109.16ZM258.703 109.484L255.751 109.052V107.252H274.075L274.579 112.832H272.527L271.483 109.34L262.555 109.124V119.276L268.567 119.168L269.071 116.18H271.051V124.46H269.071L268.567 121.364L262.555 121.256V131.984L272.707 131.624L274.615 127.088L276.739 127.736L275.695 134H255.715V132.236L258.703 131.876V109.484ZM282.224 109.484L279.416 109.052V107.252H284.204C285.068 107.252 285.92 107.216 286.76 107.144C288.056 107.048 289.28 107 290.432 107C293.912 107.024 296.372 107.672 297.812 108.944C299.252 110.216 299.972 112.136 299.972 114.704C299.972 116.624 299.528 118.292 298.64 119.708C297.752 121.124 296.516 122.204 294.932 122.948C293.372 123.692 291.572 124.064 289.532 124.064C288.836 124.064 288.128 124.052 287.408 124.028C286.688 123.98 286.244 123.944 286.076 123.92V131.84L291.008 132.236V134H279.236V132.236L282.224 131.876V109.484ZM286.076 121.94C286.748 122.06 287.9 122.12 289.532 122.12C291.428 122.12 292.964 121.544 294.14 120.392C295.34 119.24 295.94 117.356 295.94 114.74C295.94 112.676 295.424 111.2 294.392 110.312C293.36 109.4 291.752 108.944 289.568 108.944C288.8 108.944 287.984 108.992 287.12 109.088C286.592 109.136 286.244 109.16 286.076 109.16V121.94ZM311.327 107.036H315.287L324.035 131.876L326.267 132.236V134H316.763V132.236L319.751 131.876L318.059 126.548H307.547L305.855 131.876L308.951 132.236V134H300.419V132.236L302.651 131.876L311.327 107.036ZM313.595 112.796L312.695 109.628L311.831 112.868L308.195 124.424H317.375L313.595 112.796ZM346.919 134.396C344.471 134.396 342.395 133.832 340.691 132.704C339.011 131.576 337.739 129.992 336.875 127.952C336.011 125.888 335.579 123.5 335.579 120.788C335.579 118.028 336.095 115.604 337.127 113.516C338.183 111.428 339.623 109.82 341.447 108.692C343.271 107.54 345.323 106.964 347.603 106.964C351.347 106.964 354.203 108.152 356.171 110.528C358.163 112.88 359.159 116.144 359.159 120.32C359.159 123.128 358.619 125.6 357.539 127.736C356.483 129.848 355.019 131.492 353.147 132.668C351.299 133.82 349.223 134.396 346.919 134.396ZM347.387 108.836C345.059 108.836 343.223 109.856 341.879 111.896C340.535 113.912 339.863 116.876 339.863 120.788C339.863 124.388 340.511 127.244 341.807 129.356C343.127 131.444 344.963 132.488 347.315 132.488C349.619 132.488 351.443 131.444 352.787 129.356C354.155 127.268 354.839 124.268 354.839 120.356C354.839 116.732 354.191 113.912 352.895 111.896C351.599 109.856 349.763 108.836 347.387 108.836ZM364.908 134.36C364.284 134.36 363.744 134.144 363.288 133.712C362.832 133.28 362.604 132.728 362.604 132.056C362.604 131.312 362.868 130.688 363.396 130.184C363.948 129.68 364.584 129.428 365.304 129.428C366.048 129.428 366.612 129.656 366.996 130.112C367.404 130.544 367.608 131.084 367.608 131.732C367.608 132.524 367.344 133.16 366.816 133.64C366.288 134.12 365.652 134.36 364.908 134.36ZM386.938 118.232C387.322 118.16 388.018 118.088 389.026 118.016C390.058 117.92 390.934 117.872 391.654 117.872C394.678 117.872 396.958 118.544 398.494 119.888C400.054 121.232 400.834 123.152 400.834 125.648C400.834 128.432 399.958 130.568 398.206 132.056C396.478 133.544 394.174 134.288 391.294 134.288L388.954 134.18C386.746 134.06 385.498 134 385.21 134H379.522V132.236L383.122 131.876V109.484L379.558 109.052V107.252H398.962L399.322 114.02H396.874L395.758 109.412L386.938 109.124V118.232ZM386.938 131.984C387.058 132.008 387.406 132.068 387.982 132.164C388.582 132.26 389.422 132.308 390.502 132.308C392.566 132.308 394.126 131.756 395.182 130.652C396.262 129.548 396.802 127.964 396.802 125.9C396.802 121.964 394.726 119.996 390.574 119.996C389.878 119.996 389.17 120.02 388.45 120.068C387.754 120.116 387.25 120.164 386.938 120.212V131.984ZM406.675 109.484L403.723 109.052V107.252H422.047L422.551 112.832H420.499L419.455 109.34L410.527 109.124V119.276L416.539 119.168L417.043 116.18H419.023V124.46H417.043L416.539 121.364L410.527 121.256V131.984L420.679 131.624L422.587 127.088L424.711 127.736L423.667 134H403.687V132.236L406.675 131.876V109.484ZM430.196 109.484L427.352 109.052V107.252H437.144V109.052L434.048 109.484V119.168H446.72V109.484L443.804 109.052V107.252H453.452V109.052L450.608 109.484V131.876L453.452 132.236V134H443.768V132.236L446.72 131.876V121.4H434.048V131.876L437.18 132.236V134H427.28V132.236L430.196 131.876V109.484ZM480.061 131.84C480.061 132.152 479.929 133.688 479.665 136.448C479.401 139.208 479.257 140.624 479.233 140.696H476.929C476.881 139.808 476.773 138.512 476.605 136.808C476.461 135.104 476.353 134.168 476.281 134H459.829C459.733 134.096 459.493 135.008 459.109 136.736C458.749 138.464 458.473 139.796 458.281 140.732H455.941C455.965 139.772 456.013 138.332 456.085 136.412C456.181 134.516 456.265 132.992 456.337 131.84H458.965C459.541 131.12 460.165 129.944 460.837 128.312C461.533 126.656 462.157 124.424 462.709 121.616C463.261 118.784 463.537 115.472 463.537 111.68V109.484L459.829 109.052V107.252H480.205V109.052L476.821 109.484V131.84H480.061ZM465.769 111.896C465.793 115.304 465.589 118.4 465.157 121.184C464.725 123.944 464.209 126.224 463.609 128.024C463.033 129.824 462.505 131.096 462.025 131.84H473.005L473.041 109.34H465.769V111.896ZM486.374 109.484L483.422 109.052V107.252H501.746L502.25 112.832H500.198L499.154 109.34L490.226 109.124V119.276L496.238 119.168L496.742 116.18H498.722V124.46H496.742L496.238 121.364L490.226 121.256V131.984L500.378 131.624L502.286 127.088L504.41 127.736L503.366 134H483.386V132.236L486.374 131.876V109.484ZM509.896 109.484L507.088 109.052V107.252H511.876C512.74 107.252 513.592 107.216 514.432 107.144C515.728 107.048 516.952 107 518.104 107C521.584 107.024 524.044 107.672 525.484 108.944C526.924 110.216 527.644 112.136 527.644 114.704C527.644 116.624 527.2 118.292 526.312 119.708C525.424 121.124 524.188 122.204 522.604 122.948C521.044 123.692 519.244 124.064 517.204 124.064C516.508 124.064 515.8 124.052 515.08 124.028C514.36 123.98 513.916 123.944 513.748 123.92V131.84L518.68 132.236V134H506.908V132.236L509.896 131.876V109.484ZM513.748 121.94C514.42 122.06 515.572 122.12 517.204 122.12C519.1 122.12 520.636 121.544 521.812 120.392C523.012 119.24 523.612 117.356 523.612 114.74C523.612 112.676 523.096 111.2 522.064 110.312C521.032 109.4 519.424 108.944 517.24 108.944C516.472 108.944 515.656 108.992 514.792 109.088C514.264 109.136 513.916 109.16 513.748 109.16V121.94ZM538.999 107.036H542.959L551.707 131.876L553.939 132.236V134H544.435V132.236L547.423 131.876L545.731 126.548H535.219L533.527 131.876L536.623 132.236V134H528.091V132.236L530.323 131.876L538.999 107.036ZM541.267 112.796L540.367 109.628L539.503 112.868L535.867 124.424H545.047L541.267 112.796Z" fill="#313131"/>
    <path d="M184.468 36.396C180.556 36.396 177.628 35.172 175.684 32.724C173.74 30.276 172.768 26.94 172.768 22.716C172.768 19.956 173.272 17.532 174.28 15.444C175.312 13.356 176.752 11.748 178.6 10.62C180.448 9.492 182.572 8.928 184.972 8.928C188.932 8.928 191.896 10.104 193.864 12.456C195.856 14.784 196.852 18.048 196.852 22.248C196.852 25.032 196.324 27.504 195.268 29.664C194.236 31.8 192.784 33.456 190.912 34.632C189.04 35.808 186.892 36.396 184.468 36.396ZM184.828 11.124C182.86 11.124 181.324 12.096 180.22 14.04C179.116 15.984 178.564 18.864 178.564 22.68C178.564 26.448 179.092 29.316 180.148 31.284C181.228 33.228 182.764 34.2 184.756 34.2C186.7 34.2 188.224 33.18 189.328 31.14C190.432 29.076 190.984 26.112 190.984 22.248C190.984 18.504 190.456 15.72 189.4 13.896C188.344 12.048 186.82 11.124 184.828 11.124ZM223.727 33.444C223.727 34.164 223.619 35.892 223.403 38.628C223.187 41.388 223.055 42.876 223.007 43.092H220.091C220.067 42.468 219.923 41.184 219.659 39.24C219.395 37.296 219.191 36.216 219.047 36H203.207C203.039 36.216 202.739 37.224 202.307 39.024C201.899 40.824 201.623 42.192 201.479 43.128H198.491L198.527 41.508C198.647 37.476 198.755 34.788 198.851 33.444H201.443C202.019 32.652 202.643 31.44 203.315 29.808C203.987 28.176 204.575 25.992 205.079 23.256C205.583 20.52 205.835 17.328 205.835 13.68V11.952L202.091 11.484V9.252H223.799V11.484L220.343 11.952V33.444H223.727ZM208.463 13.896C208.487 17.184 208.307 20.172 207.923 22.86C207.539 25.524 207.083 27.732 206.555 29.484C206.027 31.236 205.523 32.556 205.043 33.444H215.123L215.159 11.7H208.463V13.896ZM229.444 11.952L226.78 11.484V9.252H237.724V11.484L234.7 11.952V20.988H245.644V11.952L242.872 11.484V9.252H253.672V11.484L250.936 11.952V33.48L253.672 33.84V36H242.836V33.84L245.644 33.48V23.724H234.7V33.48L237.724 33.84V36H226.708V33.84L229.444 33.48V11.952ZM267.999 36.396C264.087 36.396 261.159 35.172 259.215 32.724C257.271 30.276 256.299 26.94 256.299 22.716C256.299 19.956 256.803 17.532 257.811 15.444C258.843 13.356 260.283 11.748 262.131 10.62C263.979 9.492 266.103 8.928 268.503 8.928C272.463 8.928 275.427 10.104 277.395 12.456C279.387 14.784 280.383 18.048 280.383 22.248C280.383 25.032 279.855 27.504 278.799 29.664C277.767 31.8 276.315 33.456 274.443 34.632C272.571 35.808 270.423 36.396 267.999 36.396ZM268.359 11.124C266.391 11.124 264.855 12.096 263.751 14.04C262.647 15.984 262.095 18.864 262.095 22.68C262.095 26.448 262.623 29.316 263.679 31.284C264.759 33.228 266.295 34.2 268.287 34.2C270.231 34.2 271.755 33.18 272.859 31.14C273.963 29.076 274.515 26.112 274.515 22.248C274.515 18.504 273.987 15.72 272.931 13.896C271.875 12.048 270.351 11.124 268.359 11.124ZM285.658 11.952L282.85 11.484V9.252H288.214C289.03 9.252 290.086 9.204 291.382 9.108C291.694 9.084 292.066 9.06 292.498 9.036C292.93 9.012 293.434 9 294.01 9C297.634 9 300.166 9.516 301.606 10.548C303.07 11.556 303.802 13.068 303.802 15.084C303.802 16.86 303.262 18.348 302.182 19.548C301.126 20.724 299.734 21.444 298.006 21.708C300.382 21.684 302.242 22.224 303.586 23.328C304.954 24.432 305.638 25.968 305.638 27.936C305.638 30.432 304.762 32.436 303.01 33.948C301.258 35.46 298.33 36.216 294.226 36.216C293.146 36.216 292.15 36.18 291.238 36.108C290.998 36.108 290.59 36.084 290.014 36.036C289.438 36.012 288.85 36 288.25 36H282.814V33.84L285.658 33.48V11.952ZM290.878 20.916C291.142 20.94 291.682 20.952 292.498 20.952H294.19C295.654 20.952 296.746 20.496 297.466 19.584C298.186 18.672 298.546 17.388 298.546 15.732C298.546 14.148 298.174 12.996 297.43 12.276C296.686 11.556 295.45 11.196 293.722 11.196C293.266 11.196 292.318 11.244 290.878 11.34V20.916ZM290.878 33.624C291.43 33.84 292.486 33.948 294.046 33.948C296.086 33.948 297.562 33.468 298.474 32.508C299.386 31.548 299.842 30.156 299.842 28.332C299.842 26.58 299.422 25.332 298.582 24.588C297.766 23.82 296.458 23.436 294.658 23.436C292.642 23.436 291.382 23.46 290.878 23.508V33.624ZM311.077 11.952L308.377 11.484V9.252H313.813C314.317 9.252 315.097 9.228 316.153 9.18C317.545 9.084 318.805 9.036 319.933 9.036C322.429 9.036 324.397 9.348 325.837 9.972C327.301 10.572 328.333 11.448 328.933 12.6C329.557 13.728 329.869 15.168 329.869 16.92C329.869 19.944 328.921 22.296 327.025 23.976C325.153 25.656 322.549 26.496 319.213 26.496C317.893 26.496 316.945 26.46 316.369 26.388V33.48L321.193 33.84V36H308.233V33.84L311.077 33.48V11.952ZM316.333 24.084C316.885 24.204 317.821 24.264 319.141 24.264C320.749 24.264 322.033 23.712 322.993 22.608C323.977 21.48 324.469 19.62 324.469 17.028C324.469 15.012 324.025 13.548 323.137 12.636C322.273 11.7 320.941 11.232 319.141 11.232C318.469 11.232 317.773 11.28 317.053 11.376C316.717 11.424 316.477 11.448 316.333 11.448V24.084ZM334.842 11.952L331.962 11.484V9.252H351.15L351.618 15.3H349.098L347.91 11.736L340.134 11.412V21.096L345.138 20.988L345.714 18.036H348.018V26.748H345.714L345.138 23.652L340.134 23.544V33.696L348.846 33.264L350.934 28.656L353.634 29.412L352.698 36H331.998V33.84L334.842 33.48V11.952ZM359.944 11.952L356.056 11.484V9.252H367.288L371.572 24.732L372.58 28.944L373.444 24.732L377.692 9.252H388.816V11.484L384.892 11.952L387.772 33.444L390.688 33.84V36H379.204V33.84L382.372 33.48L380.788 17.712L380.104 11.124L378.772 16.668L373.552 34.884H369.736L364.408 17.604L362.572 11.124L362.032 17.712L360.664 33.48L364.3 33.84V36H354.292V33.84L357.316 33.48L359.944 11.952ZM395.029 11.952L392.149 11.484V9.252H411.337L411.805 15.3H409.285L408.097 11.736L400.321 11.412V21.096L405.325 20.988L405.901 18.036H408.205V26.748H405.901L405.325 23.652L400.321 23.544V33.696L409.033 33.264L411.121 28.656L413.821 29.412L412.885 36H392.185V33.84L395.029 33.48V11.952ZM418.655 11.952L415.991 11.484V9.252H426.935V11.484L423.911 11.952V20.988H434.855V11.952L432.083 11.484V9.252H442.883V11.484L440.147 11.952V33.48L442.883 33.84V36H432.047V33.84L434.855 33.48V23.724H423.911V33.48L426.935 33.84V36H415.919V33.84L418.655 33.48V11.952ZM448.714 11.952L446.05 11.484V9.252H456.994V11.484L453.97 11.952V20.988H464.914V11.952L462.142 11.484V9.252H472.942V11.484L470.206 11.952V33.48L472.942 33.84V36H462.106V33.84L464.914 33.48V23.724H453.97V33.48L456.994 33.84V36H445.978V33.84L448.714 33.48V11.952ZM487.268 36.396C483.356 36.396 480.428 35.172 478.484 32.724C476.54 30.276 475.568 26.94 475.568 22.716C475.568 19.956 476.072 17.532 477.08 15.444C478.112 13.356 479.552 11.748 481.4 10.62C483.248 9.492 485.372 8.928 487.772 8.928C491.732 8.928 494.696 10.104 496.664 12.456C498.656 14.784 499.652 18.048 499.652 22.248C499.652 25.032 499.124 27.504 498.068 29.664C497.036 31.8 495.584 33.456 493.712 34.632C491.84 35.808 489.692 36.396 487.268 36.396ZM487.628 11.124C485.66 11.124 484.124 12.096 483.02 14.04C481.916 15.984 481.364 18.864 481.364 22.68C481.364 26.448 481.892 29.316 482.948 31.284C484.028 33.228 485.564 34.2 487.556 34.2C489.5 34.2 491.024 33.18 492.128 31.14C493.232 29.076 493.784 26.112 493.784 22.248C493.784 18.504 493.256 15.72 492.2 13.896C491.144 12.048 489.62 11.124 487.628 11.124ZM513.496 9.252V11.484L510.184 11.952V28.728L512.596 24.696L521.776 12.816V11.952L518.752 11.484V9.252H529.768V11.484L526.996 11.952V33.48L529.876 33.84V36H518.752V33.84L521.776 33.48V16.488L519.616 20.376L510.184 32.364V33.48L513.388 33.84V36H502.156V33.84L505 33.48V11.952L502.228 11.484V9.252H513.496ZM512.488 0.611999C512.872 0.611999 513.064 1.176 513.064 2.304C513.064 3.216 513.316 3.924 513.82 4.428C514.324 4.908 515.152 5.148 516.304 5.148C517.432 5.148 518.236 4.908 518.716 4.428C519.22 3.924 519.472 3.216 519.472 2.304C519.472 1.872 519.508 1.488 519.58 1.152C519.676 0.791998 519.832 0.611999 520.048 0.611999H523.576L523.612 1.584C523.612 3.36 522.964 4.728 521.668 5.688C520.372 6.648 518.572 7.128 516.268 7.128C514.012 7.128 512.224 6.648 510.904 5.688C509.608 4.704 508.96 3.336 508.96 1.584L508.996 0.611999H512.488ZM552.66 9.252V11.484L549.348 11.952V28.728L551.76 24.696L560.94 12.816V11.952L557.916 11.484V9.252H568.932V11.484L566.16 11.952V33.48L569.04 33.84V36H557.916V33.84L560.94 33.48V16.488L558.78 20.376L549.348 32.364V33.48L552.552 33.84V36H541.32V33.84L544.164 33.48V11.952L541.392 11.484V9.252H552.66ZM591.165 9.252L591.597 19.368H588.501L587.277 11.916L580.653 11.556V33.444L586.557 33.876V36H571.437V33.876L575.361 33.444V11.988L571.509 11.448V9.252H591.165ZM596.124 11.952L593.424 11.484V9.252H598.86C599.364 9.252 600.144 9.228 601.2 9.18C602.592 9.084 603.852 9.036 604.98 9.036C607.476 9.036 609.444 9.348 610.884 9.972C612.348 10.572 613.38 11.448 613.98 12.6C614.604 13.728 614.916 15.168 614.916 16.92C614.916 19.944 613.968 22.296 612.072 23.976C610.2 25.656 607.596 26.496 604.26 26.496C602.94 26.496 601.992 26.46 601.416 26.388V33.48L606.24 33.84V36H593.28V33.84L596.124 33.48V11.952ZM601.38 24.084C601.932 24.204 602.868 24.264 604.188 24.264C605.796 24.264 607.08 23.712 608.04 22.608C609.024 21.48 609.516 19.62 609.516 17.028C609.516 15.012 609.072 13.548 608.184 12.636C607.32 11.7 605.988 11.232 604.188 11.232C603.516 11.232 602.82 11.28 602.1 11.376C601.764 11.424 601.524 11.448 601.38 11.448V24.084ZM625.181 19.908C626.333 19.86 627.893 19.836 629.861 19.836C632.861 19.836 635.129 20.52 636.665 21.888C638.201 23.256 638.969 25.176 638.969 27.648C638.969 29.448 638.549 30.996 637.709 32.292C636.893 33.588 635.753 34.584 634.289 35.28C632.849 35.952 631.205 36.288 629.357 36.288C628.829 36.288 627.821 36.24 626.333 36.144C624.605 36.048 623.249 36 622.265 36H617.081V33.84L619.925 33.48V11.916L617.153 11.412V9.252H628.853V11.412L625.181 11.916V19.908ZM652.829 9.252V11.484L649.697 11.952V33.48L652.829 33.876V36H641.345V33.84L644.405 33.48V11.952L641.309 11.484V9.252H652.829ZM625.181 33.696C625.997 33.888 626.969 33.984 628.097 33.984C629.945 33.984 631.313 33.444 632.201 32.364C633.089 31.26 633.533 29.784 633.533 27.936C633.533 24.144 631.793 22.248 628.313 22.248L625.181 22.284V33.696ZM3.248 60.952L0.44 60.484V58.252H5.804C6.62 58.252 7.676 58.204 8.972 58.108C9.284 58.084 9.656 58.06 10.088 58.036C10.52 58.012 11.024 58 11.6 58C15.224 58 17.756 58.516 19.196 59.548C20.66 60.556 21.392 62.068 21.392 64.084C21.392 65.86 20.852 67.348 19.772 68.548C18.716 69.724 17.324 70.444 15.596 70.708C17.972 70.684 19.832 71.224 21.176 72.328C22.544 73.432 23.228 74.968 23.228 76.936C23.228 79.432 22.352 81.436 20.6 82.948C18.848 84.46 15.92 85.216 11.816 85.216C10.736 85.216 9.74 85.18 8.828 85.108C8.588 85.108 8.18 85.084 7.604 85.036C7.028 85.012 6.44 85 5.84 85H0.404V82.84L3.248 82.48V60.952ZM8.468 69.916C8.732 69.94 9.272 69.952 10.088 69.952H11.78C13.244 69.952 14.336 69.496 15.056 68.584C15.776 67.672 16.136 66.388 16.136 64.732C16.136 63.148 15.764 61.996 15.02 61.276C14.276 60.556 13.04 60.196 11.312 60.196C10.856 60.196 9.908 60.244 8.468 60.34V69.916ZM8.468 82.624C9.02 82.84 10.076 82.948 11.636 82.948C13.676 82.948 15.152 82.468 16.064 81.508C16.976 80.548 17.432 79.156 17.432 77.332C17.432 75.58 17.012 74.332 16.172 73.588C15.356 72.82 14.048 72.436 12.248 72.436C10.232 72.436 8.972 72.46 8.468 72.508V82.624ZM45.3818 58.252V60.484L42.4658 60.952V82.48H50.8898V60.952L48.2258 60.484V58.252H58.7738V60.484L56.0738 60.952V82.48H64.3538V60.952L61.7618 60.484V58.252H72.4178V60.484L69.5738 60.952V82.48L72.6698 82.84V85H34.1138V82.84L37.2458 82.48V60.952L34.4018 60.484V58.252H45.3818ZM83.7108 58.108H89.2188L97.5348 82.48L99.6228 82.84V85H89.0028V82.84L91.7028 82.48L90.2988 77.8H80.9748L79.5708 82.516L82.4868 82.84V85H73.3068L73.2708 82.84L75.4308 82.48L83.7108 58.108ZM86.1948 64.192L85.5468 61.384L84.8628 64.228L81.6588 75.28H89.5788L86.1948 64.192ZM109.528 71.932L102.184 60.988L99.7002 60.484V58.252H111.472V60.484L108.412 60.988L113.344 69.16L118.42 60.952L115.324 60.484V58.252H124.576V60.484L121.66 60.988L114.676 70.78L122.524 82.48L125.044 82.84V85H113.308V82.84L116.332 82.48L110.932 73.66L105.748 82.48L109.204 82.84V85H99.3762V82.84L102.4 82.48L109.528 71.932ZM130.795 60.952L126.907 60.484V58.252H138.139L142.423 73.732L143.431 77.944L144.295 73.732L148.543 58.252H159.667V60.484L155.743 60.952L158.623 82.444L161.539 82.84V85H150.055V82.84L153.223 82.48L151.639 66.712L150.955 60.124L149.623 65.668L144.403 83.884H140.587L135.259 66.604L133.423 60.124L132.883 66.712L131.515 82.48L135.151 82.84V85H125.143V82.84L128.167 82.48L130.795 60.952ZM171.461 58.108H176.969L185.285 82.48L187.373 82.84V85H176.753V82.84L179.453 82.48L178.049 77.8H168.725L167.321 82.516L170.237 82.84V85H161.057L161.021 82.84L163.181 82.48L171.461 58.108ZM173.945 64.192L173.297 61.384L172.613 64.228L169.409 75.28H177.329L173.945 64.192ZM197.062 60.628L191.914 60.808L190.51 68.656H187.486L188.098 58.252H211.318L211.75 68.656H208.906L207.502 60.808L202.426 60.628V82.48L207.466 82.84V85H192.454V82.84L197.062 82.48V60.628ZM222.079 68.908C223.231 68.86 224.791 68.836 226.759 68.836C229.759 68.836 232.027 69.52 233.563 70.888C235.099 72.256 235.867 74.176 235.867 76.648C235.867 78.448 235.447 79.996 234.607 81.292C233.791 82.588 232.651 83.584 231.187 84.28C229.747 84.952 228.103 85.288 226.255 85.288C225.727 85.288 224.719 85.24 223.231 85.144C221.503 85.048 220.147 85 219.163 85H213.979V82.84L216.823 82.48V60.916L214.051 60.412V58.252H225.751V60.412L222.079 60.916V68.908ZM249.727 58.252V60.484L246.595 60.952V82.48L249.727 82.876V85H238.243V82.84L241.303 82.48V60.952L238.207 60.484V58.252H249.727ZM222.079 82.696C222.895 82.888 223.867 82.984 224.995 82.984C226.843 82.984 228.211 82.444 229.099 81.364C229.987 80.26 230.431 78.784 230.431 76.936C230.431 73.144 228.691 71.248 225.211 71.248L222.079 71.284V82.696ZM264.179 60.952L261.515 60.484V58.252H272.459V60.484L269.435 60.952V69.988H280.379V60.952L277.607 60.484V58.252H288.407V60.484L285.671 60.952V82.48L288.407 82.84V85H277.571V82.84L280.379 82.48V72.724H269.435V82.48L272.459 82.84V85H261.443V82.84L264.179 82.48V60.952ZM299.781 58.108H305.289L313.605 82.48L315.693 82.84V85H305.073V82.84L307.773 82.48L306.369 77.8H297.045L295.641 82.516L298.557 82.84V85H289.377L289.341 82.84L291.501 82.48L299.781 58.108ZM302.265 64.192L301.617 61.384L300.933 64.228L297.729 75.28H305.649L302.265 64.192ZM330.181 62.932C329.725 63.1 328.969 63.304 327.913 63.544C326.857 63.784 326.053 63.928 325.501 63.976L324.997 61.348C326.341 61.084 327.733 60.628 329.173 59.98C330.613 59.308 331.753 58.612 332.593 57.892H332.629L335.473 58.252V82.48L339.577 82.876V85H325.861V82.876L330.181 82.516V62.932ZM352.286 85.576C350.246 85.576 348.506 85.132 347.066 84.244C345.65 83.332 344.57 82.096 343.826 80.536C343.106 78.952 342.746 77.164 342.746 75.172C342.746 72.076 343.49 69.28 344.978 66.784C346.466 64.264 348.362 62.236 350.666 60.7C352.994 59.164 355.346 58.24 357.722 57.928L358.766 59.872C356.15 60.64 353.978 61.936 352.25 63.76C350.546 65.56 349.346 67.696 348.65 70.168C349.25 69.592 350.018 69.112 350.954 68.728C351.914 68.32 353.03 68.116 354.302 68.116C356.654 68.116 358.49 68.848 359.81 70.312C361.13 71.776 361.79 73.792 361.79 76.36C361.79 78.136 361.43 79.72 360.71 81.112C359.99 82.504 358.91 83.596 357.47 84.388C356.054 85.18 354.326 85.576 352.286 85.576ZM352.538 70.852C351.506 70.852 350.594 71.056 349.802 71.464C349.034 71.872 348.47 72.34 348.11 72.868C348.014 73.732 347.966 74.404 347.966 74.884C347.966 77.596 348.314 79.696 349.01 81.184C349.73 82.648 350.894 83.38 352.502 83.38C353.894 83.38 354.914 82.864 355.562 81.832C356.234 80.776 356.57 79.288 356.57 77.368C356.57 73.024 355.226 70.852 352.538 70.852ZM375.259 85.36C372.187 85.36 369.847 84.172 368.239 81.796C366.655 79.42 365.863 76.072 365.863 71.752C365.863 68.704 366.283 66.148 367.123 64.084C367.987 61.996 369.187 60.448 370.723 59.44C372.283 58.408 374.083 57.892 376.123 57.892C379.195 57.892 381.523 59.056 383.107 61.384C384.691 63.712 385.483 67.048 385.483 71.392C385.459 75.976 384.547 79.456 382.747 81.832C380.971 84.184 378.475 85.36 375.259 85.36ZM375.691 83.2C376.795 83.2 377.659 82.828 378.283 82.084C378.931 81.34 379.387 80.164 379.651 78.556C379.939 76.924 380.083 74.704 380.083 71.896C380.083 68.92 379.927 66.568 379.615 64.84C379.303 63.112 378.823 61.888 378.175 61.168C377.527 60.424 376.699 60.052 375.691 60.052C374.659 60.052 373.819 60.4 373.171 61.096C372.523 61.792 372.043 62.98 371.731 64.66C371.419 66.316 371.263 68.584 371.263 71.464C371.263 75.568 371.623 78.556 372.343 80.428C373.063 82.276 374.179 83.2 375.691 83.2ZM421.657 82.444C421.657 83.164 421.549 84.892 421.333 87.628C421.117 90.388 420.985 91.876 420.937 92.092H418.021C417.997 91.468 417.853 90.184 417.589 88.24C417.325 86.296 417.121 85.216 416.977 85H401.137C400.969 85.216 400.669 86.224 400.237 88.024C399.829 89.824 399.553 91.192 399.409 92.128H396.421L396.457 90.508C396.577 86.476 396.685 83.788 396.781 82.444H399.373C399.949 81.652 400.573 80.44 401.245 78.808C401.917 77.176 402.505 74.992 403.009 72.256C403.513 69.52 403.765 66.328 403.765 62.68V60.952L400.021 60.484V58.252H421.729V60.484L418.273 60.952V82.444H421.657ZM406.393 62.896C406.417 66.184 406.237 69.172 405.853 71.86C405.469 74.524 405.013 76.732 404.485 78.484C403.957 80.236 403.453 81.556 402.973 82.444H413.053L413.089 60.7H406.393V62.896ZM435.87 85.396C431.958 85.396 429.03 84.172 427.086 81.724C425.142 79.276 424.17 75.94 424.17 71.716C424.17 68.956 424.674 66.532 425.682 64.444C426.714 62.356 428.154 60.748 430.002 59.62C431.85 58.492 433.974 57.928 436.374 57.928C440.334 57.928 443.298 59.104 445.266 61.456C447.258 63.784 448.254 67.048 448.254 71.248C448.254 74.032 447.726 76.504 446.67 78.664C445.638 80.8 444.186 82.456 442.314 83.632C440.442 84.808 438.294 85.396 435.87 85.396ZM436.23 60.124C434.262 60.124 432.726 61.096 431.622 63.04C430.518 64.984 429.966 67.864 429.966 71.68C429.966 75.448 430.494 78.316 431.55 80.284C432.63 82.228 434.166 83.2 436.158 83.2C438.102 83.2 439.626 82.18 440.73 80.14C441.834 78.076 442.386 75.112 442.386 71.248C442.386 67.504 441.858 64.72 440.802 62.896C439.746 61.048 438.222 60.124 436.23 60.124ZM462.925 85.396C458.845 85.396 455.725 84.184 453.565 81.76C451.405 79.312 450.325 75.976 450.325 71.752C450.325 68.968 450.889 66.544 452.017 64.48C453.169 62.392 454.741 60.784 456.733 59.656C458.725 58.528 460.981 57.964 463.501 57.964C464.557 57.964 465.577 58.036 466.561 58.18C467.545 58.3 468.709 58.468 470.053 58.684C471.061 58.852 471.613 58.936 471.709 58.936L471.313 66.352H468.001L466.885 61.204C466.621 60.94 466.165 60.724 465.517 60.556C464.869 60.388 464.041 60.304 463.033 60.304C460.993 60.304 459.349 61.252 458.101 63.148C456.877 65.02 456.265 67.744 456.265 71.32C456.265 74.776 456.853 77.596 458.029 79.78C459.205 81.964 460.921 83.056 463.177 83.056C464.257 83.056 465.085 82.96 465.661 82.768C466.261 82.552 466.765 82.252 467.173 81.868L468.757 78.16L471.781 78.448L471.061 84.028C470.557 84.076 470.053 84.172 469.549 84.316C469.069 84.436 468.769 84.508 468.649 84.532C467.689 84.796 466.789 85 465.949 85.144C465.133 85.312 464.125 85.396 462.925 85.396ZM488.205 70.708C489.069 70.924 489.885 71.44 490.653 72.256C491.445 73.048 492.129 73.924 492.705 74.884C493.305 75.82 494.025 77.056 494.865 78.592C495.513 79.816 496.029 80.74 496.413 81.364C496.821 81.988 497.193 82.348 497.529 82.444L498.861 82.84V85H493.173C492.573 85 491.985 84.544 491.409 83.632C490.857 82.72 490.125 81.292 489.213 79.348C488.205 77.164 487.317 75.496 486.549 74.344C485.805 73.192 485.013 72.616 484.173 72.616H482.481V82.444L485.685 82.876V85H474.489V82.84L477.261 82.444V60.952L474.489 60.484V58.252H485.217V60.484L482.481 60.952V70.6H485.109L491.553 60.952L488.853 60.484V58.252H498.357V60.484L495.369 60.952L488.205 70.708ZM508.75 58.108H514.258L522.574 82.48L524.662 82.84V85H514.042V82.84L516.742 82.48L515.338 77.8H506.014L504.61 82.516L507.526 82.84V85H498.346L498.31 82.84L500.47 82.48L508.75 58.108ZM511.234 64.192L510.586 61.384L509.902 64.228L506.698 75.28H514.618L511.234 64.192ZM534.567 71.932L527.223 60.988L524.739 60.484V58.252H536.511V60.484L533.451 60.988L538.383 69.16L543.459 60.952L540.363 60.484V58.252H549.615V60.484L546.699 60.988L539.715 70.78L547.563 82.48L550.083 82.84V85H538.347V82.84L541.371 82.48L535.971 73.66L530.787 82.48L534.243 82.84V85H524.415V82.84L527.439 82.48L534.567 71.932Z" fill="#F54932"/>
</svg>
