<svg width="146" height="31" viewBox="0 0 146 31" fill="none" xmlns="http://www.w3.org/2000/svg">
    <path d="M0.834534 12V0.344114H3.83176V4.95652H4.66432L8.2277 0.344114H11.4913L6.9955 5.78908L11.6579 12H8.16109L4.66432 7.05457H3.83176V12H0.834534ZM13.323 12.2165C13.2342 12.2165 13.1065 12.2109 12.94 12.1998C12.7846 12.1998 12.6625 12.1887 12.5737 12.1665V9.53561C12.607 9.54671 12.6902 9.55226 12.8234 9.55226C13.0455 9.55226 13.2342 9.52451 13.3896 9.46901C13.5561 9.4024 13.6949 9.26919 13.8059 9.06938C13.9169 8.85846 14.0112 8.55319 14.0889 8.15356C14.1777 7.75393 14.2388 7.22109 14.2721 6.55504C14.3054 5.87788 14.3221 5.02867 14.3221 4.00739V0.344114H23.1472V12H20.1333V2.79185H17.1195V4.34042C17.1195 5.72802 17.064 6.89361 16.953 7.83718C16.8419 8.76965 16.6754 9.52451 16.4534 10.1018C16.2425 10.679 15.9816 11.123 15.6708 11.4339C15.36 11.7336 15.0048 11.9389 14.6051 12.05C14.2166 12.161 13.7892 12.2165 13.323 12.2165ZM27.8174 12.2165C27.6953 12.2165 27.5732 12.2109 27.4511 12.1998C27.3401 12.1998 27.2401 12.1832 27.1513 12.1499V9.66882C27.2401 9.67992 27.3289 9.69102 27.4178 9.70213C27.5066 9.71323 27.612 9.71878 27.7341 9.71878C28.0561 9.71878 28.3058 9.69658 28.4834 9.65217C28.6611 9.59667 28.7998 9.50786 28.8997 9.38575C28.9996 9.25254 29.0829 9.07493 29.1495 8.85291L24.4705 0.344114H27.5177L30.6148 6.25531L33.0459 0.344114H35.9765L32.0801 9.15263C31.8248 9.72988 31.5695 10.2128 31.3142 10.6013C31.0699 10.9898 30.7869 11.3062 30.4649 11.5504C30.1541 11.7835 29.7822 11.95 29.3493 12.05C28.9275 12.161 28.4168 12.2165 27.8174 12.2165ZM37.308 12V0.344114H45.8834V2.8085H40.3052V4.54023H42.2201C43.8408 4.54023 45.0341 4.87326 45.8001 5.53931C46.5772 6.19426 46.9657 7.07678 46.9657 8.18686C46.9657 9.38575 46.5772 10.3238 45.8001 11.0009C45.0341 11.667 43.8408 12 42.2201 12H37.308ZM40.3052 9.53561H41.8871C42.6086 9.53561 43.1192 9.41905 43.419 9.18594C43.7187 8.94172 43.8686 8.60869 43.8686 8.18686C43.8686 7.76503 43.7187 7.43755 43.419 7.20444C43.1192 6.96022 42.6086 6.83811 41.8871 6.83811H40.3052V9.53561ZM6.89559 30V25.3543C6.60697 25.543 6.22399 25.7151 5.74666 25.8705C5.28042 26.0148 4.72538 26.087 4.08153 26.087C2.87154 26.087 1.95572 25.7872 1.33407 25.1878C0.723525 24.5772 0.418252 23.6004 0.418252 22.2572V18.3441H3.41548V21.7576C3.41548 22.4126 3.55424 22.8844 3.83176 23.173C4.10928 23.4505 4.49781 23.5893 4.99735 23.5893C5.45248 23.5893 5.83546 23.5393 6.14629 23.4394C6.45711 23.3284 6.70688 23.2118 6.89559 23.0897V18.3441H9.90947V30H6.89559ZM12.2335 30V18.3441H20.7256V20.642H15.2307V22.9232H20.2261V25.0879H15.2307V27.7021H20.7256V30H12.2335ZM25.7132 30V20.8085H22.1332V18.3441H32.2905V20.8085H28.7104V30H25.7132ZM33.7956 30V18.3441H36.7928V22.2072H38.2082C39.8289 22.2072 41.0222 22.5569 41.7882 23.2562C42.5652 23.9556 42.9538 24.9047 42.9538 26.1036C42.9538 27.3025 42.5652 28.2516 41.7882 28.951C41.0222 29.6503 39.8289 30 38.2082 30H33.7956ZM36.7928 27.5356H37.8751C38.5745 27.5356 39.0796 27.4024 39.3904 27.136C39.7012 26.8696 39.8566 26.5254 39.8566 26.1036C39.8566 25.6818 39.7012 25.3376 39.3904 25.0712C39.0796 24.8048 38.5745 24.6716 37.8751 24.6716H36.7928V27.5356ZM43.7863 30V18.3441H46.7836V30H43.7863ZM49.1134 30V18.3441H53.8591C54.9469 18.3441 55.8406 18.5051 56.5399 18.827C57.2393 19.1378 57.7554 19.593 58.0885 20.1924C58.4326 20.7807 58.6047 21.4912 58.6047 22.3238C58.6047 23.1452 58.4326 23.8557 58.0885 24.4551C57.7554 25.0546 57.2393 25.5153 56.5399 25.8372C55.8406 26.148 54.9469 26.3034 53.8591 26.3034H52.1107V30H49.1134ZM52.1107 23.839H53.526C54.292 23.839 54.8304 23.7114 55.1412 23.4561C55.452 23.2007 55.6074 22.8233 55.6074 22.3238C55.6074 21.8242 55.452 21.4468 55.1412 21.1915C54.8304 20.9362 54.292 20.8085 53.526 20.8085H52.1107V23.839ZM60.2685 30V18.3441H68.7606V20.642H63.2657V22.9232H68.2611V25.0879H63.2657V27.7021H68.7606V30H60.2685ZM69.9223 30L73.7188 23.9223L70.0888 18.3441H73.4024L75.6837 21.8742L77.9982 18.3441H81.2452L77.6319 23.889L81.4117 30H78.0648L75.6337 25.9204L73.2026 30H69.9223ZM87.1518 30V18.3441H90.1491V22.9565H90.9816L94.545 18.3441H97.8086L93.3128 23.7891L97.9751 30H94.4784L90.9816 25.0546H90.1491V30H87.1518ZM104.479 30.2165C103.724 30.2165 103.002 30.1055 102.314 29.8834C101.626 29.6614 101.021 29.3117 100.499 28.8344C99.9775 28.3571 99.5668 27.741 99.2671 26.9861C98.9673 26.2202 98.8175 25.3099 98.8175 24.2553V23.9223C98.8175 22.901 98.9673 22.024 99.2671 21.2914C99.5668 20.5587 99.9775 19.9593 100.499 19.4931C101.021 19.0268 101.626 18.6827 102.314 18.4607C103.002 18.2387 103.724 18.1276 104.479 18.1276C105.256 18.1276 105.983 18.2387 106.66 18.4607C107.337 18.6827 107.937 19.0268 108.459 19.4931C108.98 19.9593 109.391 20.5587 109.691 21.2914C109.99 22.024 110.14 22.901 110.14 23.9223V24.2553C110.14 25.3099 109.99 26.2202 109.691 26.9861C109.391 27.741 108.98 28.3571 108.459 28.8344C107.937 29.3117 107.337 29.6614 106.66 29.8834C105.983 30.1055 105.256 30.2165 104.479 30.2165ZM104.462 27.7188C104.917 27.7188 105.339 27.6189 105.728 27.4191C106.116 27.2081 106.427 26.8585 106.66 26.37C106.904 25.8705 107.027 25.1656 107.027 24.2553V23.9223C107.027 23.0564 106.904 22.3848 106.66 21.9075C106.427 21.4301 106.116 21.0971 105.728 20.9084C105.339 20.7197 104.917 20.6253 104.462 20.6253C104.029 20.6253 103.619 20.7197 103.23 20.9084C102.842 21.0971 102.525 21.4301 102.281 21.9075C102.037 22.3848 101.915 23.0564 101.915 23.9223V24.2553C101.915 25.1656 102.037 25.8705 102.281 26.37C102.525 26.8585 102.842 27.2081 103.23 27.4191C103.619 27.6189 104.029 27.7188 104.462 27.7188ZM112.047 30V18.3441H115.045V22.7734H119.374V18.3441H122.371V30H119.374V25.2377H115.045V30H112.047ZM124.698 30V18.3441H133.191V20.642H127.696V22.9232H132.691V25.0879H127.696V27.7021H133.191V30H124.698ZM135.106 30V18.3441H138.103V25.3376L142.682 18.3441H145.429V30H142.432V23.0065L137.853 30H135.106ZM140.267 17.6947C139.49 17.6947 138.852 17.5893 138.353 17.3783C137.864 17.1563 137.503 16.8344 137.27 16.4126C137.048 15.9907 136.937 15.4634 136.937 14.8307H139.368C139.368 15.2969 139.435 15.6133 139.568 15.7798C139.712 15.9352 139.945 16.0129 140.267 16.0129C140.589 16.0129 140.817 15.9352 140.95 15.7798C141.094 15.6133 141.167 15.2969 141.167 14.8307H143.598C143.598 15.4634 143.481 15.9907 143.248 16.4126C143.026 16.8344 142.671 17.1563 142.182 17.3783C141.694 17.5893 141.056 17.6947 140.267 17.6947Z" fill="#595653"/>
</svg>
