<svg width="23" height="32" viewBox="0 0 23 32" fill="none" xmlns="http://www.w3.org/2000/svg">
    <path d="M21.3163 29.9437H20.7534C20.7534 29.9377 20.7506 29.9318 20.7495 29.9261L20.7341 29.8573C20.7242 29.812 20.7135 29.7671 20.7025 29.7226C20.6978 29.7016 20.6926 29.6806 20.6875 29.6597C20.6729 29.6009 20.6575 29.5422 20.6417 29.4834L20.637 29.4666C20.6196 29.4029 20.6014 29.3396 20.5825 29.2765L20.5635 29.2155C20.5505 29.172 20.5367 29.129 20.5241 29.086C20.5166 29.0624 20.5087 29.0392 20.5012 29.016C20.4874 28.9744 20.4731 28.9329 20.4585 28.8917C20.451 28.87 20.4431 28.8479 20.4356 28.8266C20.4172 28.775 20.3983 28.7237 20.3788 28.6728C20.3745 28.6619 20.3709 28.6515 20.3666 28.6406C20.3437 28.5807 20.3196 28.5212 20.2951 28.4617C20.2864 28.44 20.2773 28.4187 20.2683 28.3974C20.2517 28.3599 20.2351 28.3188 20.2181 28.2798L20.1862 28.2076C20.1696 28.1702 20.1526 28.1328 20.1352 28.0953C20.1246 28.0721 20.1135 28.0486 20.1025 28.0254C20.0823 27.9823 20.063 27.9397 20.0405 27.8974C20.0322 27.8813 20.0247 27.8648 20.0164 27.8483C19.9884 27.7926 19.9596 27.7361 19.9304 27.6822L19.8909 27.6122L19.8352 27.5108L19.7918 27.4359C19.7736 27.4045 19.7555 27.373 19.7369 27.3416C19.7223 27.3162 19.7073 27.2907 19.6923 27.2668C19.6718 27.2327 19.6529 27.1994 19.6304 27.1657L19.5735 27.0744C19.5467 27.0325 19.5198 26.9902 19.4922 26.9487C19.4748 26.9225 19.4575 26.8966 19.4397 26.8708C19.4219 26.845 19.4026 26.8154 19.3836 26.7881C19.3647 26.7608 19.3442 26.7335 19.3268 26.7065C19.3094 26.6796 19.2905 26.6553 19.2719 26.6317C19.2534 26.6081 19.2324 26.5767 19.2123 26.5493L19.1567 26.4745C19.1172 26.4247 19.0809 26.3749 19.0422 26.3248L18.9881 26.2563C18.9652 26.2275 18.9415 26.199 18.9182 26.1706L18.8661 26.1077C18.842 26.0789 18.8176 26.0505 18.7931 26.0217L18.7418 25.9625L18.6652 25.8757L18.6198 25.8256C18.5254 25.7219 18.4287 25.6197 18.3297 25.5202L18.2862 25.4764L18.1954 25.3877L18.1508 25.345C18.1192 25.3147 18.0877 25.2848 18.0557 25.2552L18.0229 25.2253C17.9112 25.1224 17.7963 25.0221 17.6795 24.9259L17.6475 24.8993C17.6115 24.8694 17.5752 24.8398 17.5386 24.8106L17.5023 24.7814C17.4628 24.7515 17.4269 24.7219 17.3886 24.6923L17.3692 24.6777C17.2401 24.5789 17.1079 24.4828 16.9745 24.3903L16.9559 24.3772C16.9137 24.3484 16.8714 24.32 16.8288 24.2919L16.8008 24.2736C16.7574 24.2447 16.7135 24.2167 16.6697 24.1886L16.6622 24.1841C16.517 24.0921 16.3689 24.0039 16.2181 23.9195L16.2122 23.9158C16.1645 23.8892 16.1167 23.8634 16.0689 23.8376L16.048 23.8263C15.7938 23.6904 15.5327 23.5656 15.2648 23.4521L15.2482 23.445C15.1776 23.415 15.1065 23.3862 15.0347 23.3578H16.4475C16.6776 23.3578 16.8643 23.1067 16.8643 22.7964C16.8643 22.4862 16.6776 22.2351 16.4475 22.2351H16.0267C16.0527 22.1722 16.0816 22.1011 16.1127 22.021C16.5106 21.786 17.2109 21.2852 17.9057 20.3653L17.9112 20.3582C17.9639 20.2894 18.0156 20.2181 18.0664 20.1445L18.0766 20.1299C18.1271 20.0577 18.1777 19.9832 18.2274 19.9054L18.2408 19.8848C18.2645 19.8474 18.2882 19.81 18.3119 19.7725C18.3119 19.7725 18.3119 19.7695 18.3147 19.7677C18.3391 19.7302 18.3632 19.6891 18.3873 19.649L18.4027 19.6232C18.4232 19.5888 18.4441 19.5536 18.4643 19.5181C18.4682 19.5117 18.4722 19.5053 18.4757 19.4986C18.499 19.4582 18.5223 19.417 18.5452 19.3755L18.561 19.3466C18.5799 19.3122 18.5985 19.2774 18.617 19.2422C18.6226 19.2325 18.6281 19.2224 18.6332 19.2123C18.6553 19.17 18.6774 19.1273 18.6995 19.0839L18.7149 19.0536C18.7323 19.0184 18.7501 18.9825 18.7674 18.9466L18.7864 18.9092C18.8077 18.865 18.8286 18.8201 18.8495 18.7748L18.8626 18.746C18.8799 18.7086 18.8969 18.6711 18.9139 18.6337L18.934 18.5888C18.9537 18.5435 18.9735 18.4979 18.9924 18.4518C18.996 18.4436 18.9995 18.435 19.0027 18.4268C19.0205 18.3845 19.0378 18.3414 19.0552 18.298L19.0749 18.2486C19.0911 18.2074 19.1073 18.1659 19.1231 18.1244L19.1349 18.0929C19.1535 18.0435 19.1716 17.993 19.1898 17.9432L19.2088 17.8901C19.223 17.8504 19.2368 17.81 19.2506 17.7696C19.2557 17.7546 19.2609 17.7396 19.2656 17.7247C19.283 17.673 19.3003 17.6203 19.3173 17.5675C19.3228 17.5492 19.3288 17.5301 19.3343 17.5128L19.3738 17.3897C19.3789 17.3718 19.3844 17.3523 19.3896 17.3362C19.4057 17.2819 19.4219 17.2266 19.4373 17.1708C19.4424 17.1532 19.4472 17.1352 19.4519 17.1173C19.4638 17.0742 19.4756 17.0312 19.4871 16.9874C19.4922 16.9676 19.4973 16.9477 19.5028 16.9279C19.5175 16.8703 19.5321 16.8123 19.5463 16.7535L19.5581 16.7045C19.5692 16.6577 19.5802 16.6105 19.5909 16.563L19.6051 16.4994C19.6185 16.4384 19.6319 16.3774 19.6446 16.3153C19.6473 16.3033 19.6497 16.2909 19.6521 16.2778C19.6631 16.2243 19.6738 16.1701 19.684 16.1158C19.6884 16.0937 19.6923 16.0716 19.6967 16.0496C19.7069 15.9938 19.7168 15.9373 19.7267 15.8815C19.7286 15.8695 19.731 15.8579 19.733 15.8463C19.744 15.7805 19.7548 15.7141 19.7654 15.6472C19.7689 15.6248 19.7725 15.6023 19.7756 15.5795C19.7839 15.5252 19.7918 15.4706 19.7997 15.4152L19.8068 15.3643C19.8163 15.2955 19.8254 15.2262 19.834 15.1559C19.8368 15.1338 19.8392 15.1117 19.8419 15.0892C19.8488 15.0334 19.8551 14.9772 19.8609 14.9208C19.8633 14.9006 19.8656 14.8808 19.8676 14.8606C19.8752 14.7882 19.8823 14.7153 19.8889 14.6417C19.8889 14.6211 19.8925 14.6005 19.894 14.5795C19.8992 14.5204 19.9043 14.4609 19.9086 14.401C19.9086 14.3789 19.9122 14.3569 19.9138 14.3348C19.9193 14.2584 19.9244 14.1816 19.9292 14.1042C19.9292 14.0867 19.9292 14.0668 19.9319 14.0511C19.9355 13.9867 19.939 13.922 19.9418 13.8569C19.9418 13.8333 19.9418 13.8097 19.945 13.7861C19.9481 13.7057 19.9513 13.6248 19.9537 13.5429C19.9537 13.5316 19.9537 13.52 19.9537 13.5084C19.9558 13.4356 19.9573 13.362 19.9584 13.2876C19.9584 13.2633 19.9584 13.239 19.9584 13.2147C19.9584 13.1348 19.9584 13.0545 19.9584 12.9737V12.9549C19.9584 12.8689 19.9584 12.7817 19.9584 12.693V12.6181C19.9584 12.5433 19.9552 12.4647 19.9533 12.3868V12.3445C19.9505 12.2547 19.9469 12.1638 19.9434 12.0725C19.9434 12.0489 19.941 12.0249 19.9402 12.0014C19.9368 11.9245 19.9329 11.8472 19.9284 11.7693C19.9284 11.7502 19.9284 11.7319 19.9252 11.7113C19.9197 11.6178 19.9136 11.5235 19.9071 11.4284L19.9023 11.3622C19.8964 11.2828 19.8905 11.2031 19.8838 11.1226C19.8838 11.0994 19.8802 11.0762 19.8783 11.053C19.87 10.9557 19.8609 10.8573 19.8514 10.7585C19.8514 10.7398 19.8475 10.7211 19.8459 10.702C19.8376 10.6178 19.8285 10.5328 19.8194 10.4471C19.8167 10.4213 19.8139 10.3959 19.8108 10.37C19.7997 10.2682 19.7879 10.1661 19.7752 10.0624C19.7752 10.0497 19.7717 10.037 19.7701 10.025C19.7588 9.93217 19.7468 9.83886 19.7342 9.74505C19.7302 9.71736 19.7267 9.68966 19.7227 9.66197C19.708 9.55569 19.6929 9.44852 19.6773 9.34049C18.0983 -1.31572 6.90876 0.413656 6.90876 0.413656L7.26719 2.70328L0.5 9.48083L0.795667 12.0979L3.35917 13.5949C3.47345 13.3195 3.62017 13.0573 3.79655 12.8131C5.45055 11.0044 8.65947 9.5845 9.57805 9.28997C9.76201 9.23121 9.86662 9.20165 9.86662 9.20165C5.47266 14.593 5.97241 20.7695 6.16821 22.2418C5.96452 22.2792 5.80701 22.5124 5.80701 22.7968C5.80701 23.1067 5.99373 23.3582 6.22387 23.3582H7.63668C5.28699 24.2906 3.42185 26.0665 2.44848 28.2982C2.44734 28.3012 2.44602 28.3042 2.44454 28.3072C2.37269 28.4728 2.30585 28.6409 2.24401 28.8113C2.24411 28.813 2.24411 28.8148 2.24401 28.8165C2.22743 28.8629 2.21124 28.9093 2.19545 28.9561C2.18953 28.9729 2.18361 28.9898 2.17808 29.007C2.16387 29.0489 2.15071 29.0912 2.13861 29.1339C2.1315 29.1556 2.12479 29.1777 2.11808 29.1994C2.10545 29.2394 2.09321 29.2798 2.08137 29.3202L2.06005 29.3951C2.049 29.4325 2.03795 29.4726 2.02768 29.5115C2.02018 29.5392 2.01308 29.5665 2.00597 29.5942C1.9965 29.6316 1.98663 29.669 1.97755 29.7065C1.96847 29.7439 1.95978 29.7813 1.9511 29.821C1.94241 29.8606 1.93136 29.9071 1.92189 29.9505H1.35858C1.25026 29.9482 1.14255 29.9665 1.04178 30.0042C0.941006 30.0419 0.8492 30.0984 0.771747 30.1702C0.694294 30.242 0.63275 30.3278 0.590736 30.4225C0.548723 30.5172 0.527081 30.6189 0.527081 30.7216C0.527081 30.8243 0.548723 30.926 0.590736 31.0207C0.63275 31.1154 0.694294 31.2011 0.771747 31.273C0.8492 31.3448 0.941006 31.4012 1.04178 31.439C1.14255 31.4767 1.25026 31.495 1.35858 31.4927H21.3234C21.4318 31.495 21.5395 31.4767 21.6402 31.439C21.741 31.4012 21.8328 31.3448 21.9103 31.273C21.9877 31.2011 22.0493 31.1154 22.0913 31.0207C22.1333 30.926 22.1549 30.8243 22.1549 30.7216C22.1549 30.6189 22.1333 30.5172 22.0913 30.4225C22.0493 30.3278 21.9877 30.242 21.9103 30.1702C21.8328 30.0984 21.741 30.0419 21.6402 30.0042C21.5395 29.9665 21.4318 29.9482 21.3234 29.9505L21.3163 29.9437Z" fill="#595653"/>
</svg>
