<svg width="699" height="107" viewBox="0 0 699 107" fill="none" xmlns="http://www.w3.org/2000/svg">
    <path d="M1.132 2.498C2.032 2.462 3.184 2.228 4.588 1.796C6.172 1.364 7.612 1.04 8.908 0.823999C10.24 0.571998 11.86 0.445997 13.768 0.445997C17.584 0.445997 20.86 1.328 23.596 3.092C26.332 4.82 28.402 7.25 29.806 10.382C31.246 13.514 31.966 17.132 31.966 21.236C31.966 25.268 31.174 28.832 29.59 31.928C28.006 34.988 25.774 37.364 22.894 39.056C20.014 40.748 16.684 41.594 12.904 41.594C11.392 41.594 10.078 41.486 8.962 41.27C7.846 41.054 6.568 40.748 5.128 40.352C3.508 39.848 2.266 39.596 1.402 39.596L0.43 31.604L4.156 31.01L6.316 36.356C7.108 36.968 8.044 37.49 9.124 37.922C10.24 38.354 11.752 38.57 13.66 38.57C15.928 38.57 17.926 37.94 19.654 36.68C21.418 35.384 22.804 33.512 23.812 31.064C24.82 28.58 25.342 25.61 25.378 22.154L7.72 22.64V18.266L25.216 18.752C24.856 14.216 23.668 10.526 21.652 7.682C19.672 4.838 16.918 3.416 13.39 3.416C11.554 3.416 10.132 3.65 9.124 4.118C8.116 4.55 7.18 5.144 6.316 5.9L4.858 11.084H1.024L1.132 2.498ZM49.4139 3.74L40.1259 4.064L38.2359 15.35H34.6719L35.5899 0.877998H69.2319L69.8799 15.35H66.4779L64.6959 4.064L55.3539 3.74V37.814L63.0219 38.354V41H42.3939V38.354L49.4139 37.814V3.74ZM86.8026 0.553999H92.7426L105.865 37.814L109.213 38.354V41H94.9566V38.354L99.4386 37.814L96.9006 29.822H81.1326L78.5946 37.814L83.2386 38.354V41H70.4406V38.354L73.7886 37.814L86.8026 0.553999ZM90.2046 9.194L88.8546 4.442L87.5586 9.302L82.1046 26.636H95.8746L90.2046 9.194ZM148.977 0.877998V3.578L144.387 4.28V37.76L149.409 38.354V41H134.181V38.354L138.663 37.76V4.064H121.383V37.814L126.405 38.354V41H111.285V38.354L115.659 37.814V4.226L111.069 3.578V0.877998H148.977ZM171.436 16.646C175.828 16.646 179.194 17.69 181.534 19.778C183.874 21.83 185.044 24.71 185.044 28.418C185.044 32.558 183.73 35.762 181.102 38.03C178.474 40.298 175 41.432 170.68 41.432C170.104 41.432 169.492 41.414 168.844 41.378C168.232 41.342 167.602 41.306 166.954 41.27C164.866 41.09 163.012 41 161.392 41H154.048V38.354L158.584 37.814V4.172L154.21 3.47V0.877998H169.6V3.47L164.308 4.172V16.7L171.436 16.646ZM205.348 0.877998V3.578L200.326 4.226V37.814L205.348 38.408V41H189.472V38.354L194.494 37.814V4.226L189.472 3.578V0.877998H205.348ZM164.308 38.03C165.244 38.21 166.054 38.336 166.738 38.408C167.458 38.48 168.43 38.516 169.654 38.516C172.678 38.516 174.982 37.67 176.566 35.978C178.186 34.286 178.996 31.874 178.996 28.742C178.996 25.754 178.204 23.522 176.62 22.046C175.036 20.534 172.768 19.778 169.816 19.778L164.308 19.832V38.03ZM261.512 0.877998V3.578L256.922 4.28V37.76L261.944 38.354V41H246.716V38.354L251.198 37.76V4.064H233.918V37.814L238.94 38.354V41H223.82V38.354L228.194 37.814V4.226L223.604 3.578V0.877998H261.512ZM271.119 4.226L266.907 3.578V0.877998H274.089C275.385 0.877998 276.663 0.823998 277.923 0.715997C279.867 0.571997 281.703 0.499997 283.431 0.499997C288.651 0.535998 292.341 1.508 294.501 3.416C296.661 5.324 297.741 8.204 297.741 12.056C297.741 14.936 297.075 17.438 295.743 19.562C294.411 21.686 292.557 23.306 290.181 24.422C287.841 25.538 285.141 26.096 282.081 26.096C281.037 26.096 279.975 26.078 278.895 26.042C277.815 25.97 277.149 25.916 276.897 25.88V37.76L284.295 38.354V41H266.637V38.354L271.119 37.814V4.226ZM276.897 22.91C277.905 23.09 279.633 23.18 282.081 23.18C284.925 23.18 287.229 22.316 288.993 20.588C290.793 18.86 291.693 16.034 291.693 12.11C291.693 9.014 290.919 6.8 289.371 5.468C287.823 4.1 285.411 3.416 282.135 3.416C280.983 3.416 279.759 3.488 278.463 3.632C277.671 3.704 277.149 3.74 276.897 3.74V22.91ZM306.079 4.226L301.651 3.578V0.877998H329.137L329.893 9.248H326.815L325.249 4.01L311.857 3.686V18.914L320.875 18.752L321.631 14.27H324.601V26.69H321.631L320.875 22.046L311.857 21.884V37.976L327.085 37.436L329.947 30.632L333.133 31.604L331.567 41H301.597V38.354L306.079 37.814V4.226ZM353.133 41.594C349.461 41.594 346.347 40.748 343.791 39.056C341.271 37.364 339.363 34.988 338.067 31.928C336.771 28.832 336.123 25.25 336.123 21.182C336.123 17.042 336.897 13.406 338.445 10.274C340.029 7.142 342.189 4.73 344.925 3.038C347.661 1.31 350.739 0.445997 354.159 0.445997C359.775 0.445997 364.059 2.228 367.011 5.792C369.999 9.32 371.493 14.216 371.493 20.48C371.493 24.692 370.683 28.4 369.063 31.604C367.479 34.772 365.283 37.238 362.475 39.002C359.703 40.73 356.589 41.594 353.133 41.594ZM353.835 3.254C350.343 3.254 347.589 4.784 345.573 7.844C343.557 10.868 342.549 15.314 342.549 21.182C342.549 26.582 343.521 30.866 345.465 34.034C347.445 37.166 350.199 38.732 353.727 38.732C357.183 38.732 359.919 37.166 361.935 34.034C363.987 30.902 365.013 26.402 365.013 20.534C365.013 15.098 364.041 10.868 362.097 7.844C360.153 4.784 357.399 3.254 353.835 3.254ZM386.056 17.348C386.632 17.24 387.676 17.132 389.188 17.024C390.736 16.88 392.05 16.808 393.13 16.808C397.666 16.808 401.086 17.816 403.39 19.832C405.73 21.848 406.9 24.728 406.9 28.472C406.9 32.648 405.586 35.852 402.958 38.084C400.366 40.316 396.91 41.432 392.59 41.432L389.08 41.27C385.768 41.09 383.896 41 383.464 41H374.932V38.354L380.332 37.814V4.226L374.986 3.578V0.877998H404.092L404.632 11.03H400.96L399.286 4.118L386.056 3.686V17.348ZM386.056 37.976C386.236 38.012 386.758 38.102 387.622 38.246C388.522 38.39 389.782 38.462 391.402 38.462C394.498 38.462 396.838 37.634 398.422 35.978C400.042 34.322 400.852 31.946 400.852 28.85C400.852 22.946 397.738 19.994 391.51 19.994C390.466 19.994 389.404 20.03 388.324 20.102C387.28 20.174 386.524 20.246 386.056 20.318V37.976ZM415.769 4.226L411.557 3.578V0.877998H418.739C420.035 0.877998 421.313 0.823998 422.573 0.715997C424.517 0.571997 426.353 0.499997 428.081 0.499997C433.301 0.535998 436.991 1.508 439.151 3.416C441.311 5.324 442.391 8.204 442.391 12.056C442.391 14.936 441.725 17.438 440.393 19.562C439.061 21.686 437.207 23.306 434.831 24.422C432.491 25.538 429.791 26.096 426.731 26.096C425.687 26.096 424.625 26.078 423.545 26.042C422.465 25.97 421.799 25.916 421.547 25.88V37.76L428.945 38.354V41H411.287V38.354L415.769 37.814V4.226ZM421.547 22.91C422.555 23.09 424.283 23.18 426.731 23.18C429.575 23.18 431.879 22.316 433.643 20.588C435.443 18.86 436.343 16.034 436.343 12.11C436.343 9.014 435.569 6.8 434.021 5.468C432.473 4.1 430.061 3.416 426.785 3.416C425.633 3.416 424.409 3.488 423.113 3.632C422.321 3.704 421.799 3.74 421.547 3.74V22.91ZM459.424 0.553999H465.364L478.486 37.814L481.834 38.354V41H467.578V38.354L472.06 37.814L469.522 29.822H453.754L451.216 37.814L455.86 38.354V41H443.062V38.354L446.41 37.814L459.424 0.553999ZM462.826 9.194L461.476 4.442L460.18 9.302L454.726 26.636H468.496L462.826 9.194ZM520.41 20.048C521.85 20.588 523.29 21.794 524.73 23.666C526.17 25.538 527.862 28.04 529.806 31.172C531.174 33.332 532.236 34.934 532.992 35.978C533.784 37.022 534.45 37.616 534.99 37.76L537.096 38.354V41H530.346C529.518 41 528.6 40.298 527.592 38.894C526.62 37.49 525.288 35.312 523.596 32.36C521.724 29.084 520.176 26.6 518.952 24.908C517.728 23.216 516.558 22.37 515.442 22.37H512.04V37.76L516.792 38.408V41H501.996V38.354L506.532 37.814V22.37H503.13C502.014 22.37 500.826 23.234 499.566 24.962C498.306 26.654 496.776 29.12 494.976 32.36C493.284 35.312 491.934 37.49 490.926 38.894C489.918 40.298 489 41 488.172 41H481.53V38.354L483.528 37.76C484.068 37.616 484.716 37.022 485.472 35.978C486.264 34.934 487.344 33.332 488.712 31.172C490.656 28.004 492.348 25.484 493.788 23.612C495.264 21.74 496.722 20.534 498.162 19.994L486.552 4.226L482.286 3.578V0.877998H495.354V3.578L491.142 4.226L501.834 19.778H506.532V4.226L502.05 3.578V0.877998H516.684V3.578L512.04 4.226V19.778H516.738L527.376 4.28L523.164 3.578V0.877998H536.34V3.578L532.02 4.226L520.41 20.048ZM544.386 4.226L539.958 3.578V0.877998H567.444L568.2 9.248H565.122L563.556 4.01L550.164 3.686V18.914L559.182 18.752L559.938 14.27H562.908V26.69H559.938L559.182 22.046L550.164 21.884V37.976L565.392 37.436L568.254 30.632L571.44 31.604L569.874 41H539.904V38.354L544.386 37.814V4.226ZM579.668 4.226L575.402 3.578V0.877998H590.09V3.578L585.446 4.226V18.752H604.454V4.226L600.08 3.578V0.877998H614.552V3.578L610.286 4.226V37.814L614.552 38.354V41H600.026V38.354L604.454 37.814V22.1H585.446V37.814L590.144 38.354V41H575.294V38.354L579.668 37.814V4.226ZM635.403 0.877998V3.578L630.111 4.226V31.334L634.539 24.692L650.091 5.684V4.226L645.285 3.578V0.877998H660.135V3.578L655.815 4.226V37.814L660.405 38.354V41H645.339V38.354L650.091 37.814V10.328L646.095 16.592L630.111 35.87V37.814L635.187 38.354V41H619.959V38.354L624.44 37.814V4.226L620.121 3.578V0.877998H635.403ZM682.909 23.45H680.263C679.399 24.062 678.517 25.196 677.617 26.852C676.753 28.508 675.763 30.668 674.647 33.332C673.531 35.888 672.613 37.814 671.893 39.11C671.209 40.37 670.579 41 670.003 41H662.659V38.354L664.765 37.76C665.305 37.652 665.863 37.148 666.439 36.248C667.051 35.312 667.933 33.8 669.085 31.712C670.273 29.336 671.371 27.392 672.379 25.88C673.387 24.368 674.413 23.324 675.457 22.748C673.009 22.064 671.083 20.768 669.679 18.86C668.311 16.916 667.627 14.594 667.627 11.894C667.627 7.574 668.905 4.586 671.461 2.93C674.053 1.274 677.743 0.445997 682.531 0.445997C683.575 0.445997 684.925 0.517998 686.581 0.661998C688.309 0.805998 689.623 0.877998 690.523 0.877998H698.353V3.578L693.817 4.226V37.814L698.785 38.354V41H682.855V38.354L688.039 37.814V23.45H682.909ZM686.635 3.632C685.015 3.452 683.575 3.362 682.315 3.362C679.507 3.362 677.347 3.956 675.835 5.144C674.359 6.332 673.621 8.456 673.621 11.516C673.621 14.432 674.359 16.664 675.835 18.212C677.347 19.76 679.507 20.534 682.315 20.534C685.195 20.534 687.103 20.48 688.039 20.372V3.794L686.635 3.632ZM4.966 69.226L0.538 68.578V65.878H7.828C9.052 65.878 10.6 65.806 12.472 65.662C14.2 65.518 15.478 65.446 16.306 65.446C21.274 65.446 24.82 66.22 26.944 67.768C29.104 69.316 30.184 71.584 30.184 74.572C30.184 77.128 29.446 79.324 27.97 81.16C26.494 82.996 24.478 84.148 21.922 84.616C25.378 84.544 28.096 85.354 30.076 87.046C32.056 88.738 33.046 91.042 33.046 93.958C33.046 97.594 31.75 100.564 29.158 102.868C26.602 105.172 22.354 106.324 16.414 106.324C15.118 106.324 13.876 106.27 12.688 106.162C9.88 106.054 8.206 106 7.666 106H0.484V103.354L4.966 102.814V69.226ZM10.69 83.59C11.194 83.626 12.22 83.644 13.768 83.644H16.738C19.258 83.644 21.166 82.942 22.462 81.538C23.758 80.134 24.406 78.136 24.406 75.544C24.406 73.024 23.758 71.188 22.462 70.036C21.166 68.848 18.952 68.254 15.82 68.254C14.524 68.254 13.192 68.326 11.824 68.47L10.69 68.578V83.59ZM10.69 102.976C11.518 103.264 13.39 103.408 16.306 103.408C19.942 103.408 22.57 102.67 24.19 101.194C25.846 99.682 26.674 97.522 26.674 94.714C26.674 91.942 25.954 89.926 24.514 88.666C23.11 87.406 20.824 86.776 17.656 86.776C13.984 86.776 11.662 86.812 10.69 86.884V102.976ZM50.6268 65.554H56.5668L69.6888 102.814L73.0368 103.354V106H58.7808V103.354L63.2628 102.814L60.7248 94.822H44.9568L42.4188 102.814L47.0628 103.354V106H34.2648V103.354L37.6128 102.814L50.6268 65.554ZM54.0288 74.194L52.6788 69.442L51.3828 74.302L45.9288 91.636H59.6988L54.0288 74.194ZM92.7675 106.594C88.8075 106.594 85.4235 105.748 82.6155 104.056C79.8435 102.328 77.7375 99.916 76.2975 96.82C74.8575 93.724 74.1375 90.088 74.1375 85.912C74.1375 81.88 74.9835 78.316 76.6755 75.22C78.3675 72.124 80.6895 69.73 83.6415 68.038C86.5935 66.31 89.9055 65.446 93.5775 65.446C96.3495 65.446 99.6795 65.878 103.567 66.742L105.349 67.066L104.809 76.786H101.191L99.8415 69.928C99.3375 69.496 98.4555 69.136 97.1955 68.848C95.9715 68.524 94.4595 68.362 92.6595 68.362C90.3555 68.362 88.3035 69.028 86.5035 70.36C84.7035 71.656 83.2815 73.582 82.2375 76.138C81.2295 78.694 80.7255 81.754 80.7255 85.318C80.7255 88.702 81.1755 91.78 82.0755 94.552C82.9755 97.324 84.3435 99.538 86.1795 101.194C88.0155 102.814 90.2835 103.624 92.9835 103.624C94.8915 103.624 96.3495 103.462 97.3575 103.138C98.4015 102.814 99.2835 102.346 100.003 101.734L102.271 96.442L105.673 96.874L104.377 104.542C103.621 104.578 102.505 104.83 101.029 105.298C99.7335 105.694 98.4735 106 97.2495 106.216C96.0615 106.468 94.5675 106.594 92.7675 106.594ZM129.235 83.752C129.595 79.972 130.621 76.696 132.313 73.924C134.005 71.152 136.129 69.046 138.685 67.606C141.277 66.13 144.067 65.41 147.055 65.446C150.583 65.446 153.589 66.274 156.073 67.93C158.593 69.55 160.501 71.836 161.797 74.788C163.093 77.704 163.741 81.106 163.741 84.994C163.741 89.35 162.967 93.166 161.419 96.442C159.907 99.682 157.819 102.166 155.155 103.894C152.527 105.622 149.575 106.486 146.299 106.486C142.663 106.486 139.567 105.694 137.011 104.11C134.455 102.49 132.511 100.222 131.179 97.306C129.847 94.354 129.163 90.916 129.127 86.992H120.487V102.76L125.131 103.354V106H110.281V103.354L114.709 102.76V69.226L110.389 68.578V65.878H124.915V68.578L120.433 69.226V83.752H129.235ZM146.677 68.362C143.257 68.362 140.521 69.856 138.469 72.844C136.417 75.832 135.391 80.314 135.391 86.29C135.391 91.51 136.363 95.686 138.307 98.818C140.287 101.95 143.059 103.516 146.623 103.516C150.043 103.516 152.689 102.004 154.561 98.98C156.469 95.92 157.423 91.42 157.423 85.48C157.423 80.26 156.487 76.102 154.615 73.006C152.743 69.91 150.097 68.362 146.677 68.362ZM186.701 84.994C188.141 85.534 189.581 86.74 191.021 88.612C192.461 90.448 194.189 92.95 196.205 96.118C197.573 98.35 198.635 99.988 199.391 101.032C200.147 102.04 200.795 102.616 201.335 102.76L203.387 103.354V106H196.691C195.863 106 194.927 105.298 193.883 103.894C192.875 102.454 191.561 100.276 189.941 97.36C188.105 94.084 186.575 91.6 185.351 89.908C184.127 88.216 182.957 87.37 181.841 87.37H178.385V102.76L183.191 103.408V106H168.395V103.3L172.769 102.76V69.226L168.395 68.578V65.878H182.867V68.578L178.385 69.226V84.778H183.029L193.937 69.226L189.401 68.578V65.878H202.685V68.578L198.419 69.226L186.701 84.994ZM222.563 106.594C218.891 106.594 215.777 105.748 213.221 104.056C210.701 102.364 208.793 99.988 207.497 96.928C206.201 93.832 205.553 90.25 205.553 86.182C205.553 82.042 206.327 78.406 207.875 75.274C209.459 72.142 211.619 69.73 214.355 68.038C217.091 66.31 220.169 65.446 223.589 65.446C229.205 65.446 233.489 67.228 236.441 70.792C239.429 74.32 240.923 79.216 240.923 85.48C240.923 89.692 240.113 93.4 238.493 96.604C236.909 99.772 234.713 102.238 231.905 104.002C229.133 105.73 226.019 106.594 222.563 106.594ZM223.265 68.254C219.773 68.254 217.019 69.784 215.003 72.844C212.987 75.868 211.979 80.314 211.979 86.182C211.979 91.582 212.951 95.866 214.895 99.034C216.875 102.166 219.629 103.732 223.157 103.732C226.613 103.732 229.349 102.166 231.365 99.034C233.417 95.902 234.443 91.402 234.443 85.534C234.443 80.098 233.471 75.868 231.527 72.844C229.583 69.784 226.829 68.254 223.265 68.254ZM249.654 69.226L245.226 68.578V65.878H252.516C253.74 65.878 255.288 65.806 257.16 65.662C258.888 65.518 260.166 65.446 260.994 65.446C265.962 65.446 269.508 66.22 271.632 67.768C273.792 69.316 274.872 71.584 274.872 74.572C274.872 77.128 274.134 79.324 272.658 81.16C271.182 82.996 269.166 84.148 266.61 84.616C270.066 84.544 272.784 85.354 274.764 87.046C276.744 88.738 277.734 91.042 277.734 93.958C277.734 97.594 276.438 100.564 273.846 102.868C271.29 105.172 267.042 106.324 261.102 106.324C259.806 106.324 258.564 106.27 257.376 106.162C254.568 106.054 252.894 106 252.354 106H245.172V103.354L249.654 102.814V69.226ZM255.378 83.59C255.882 83.626 256.908 83.644 258.456 83.644H261.426C263.946 83.644 265.854 82.942 267.15 81.538C268.446 80.134 269.094 78.136 269.094 75.544C269.094 73.024 268.446 71.188 267.15 70.036C265.854 68.848 263.64 68.254 260.508 68.254C259.212 68.254 257.88 68.326 256.512 68.47L255.378 68.578V83.59ZM255.378 102.976C256.206 103.264 258.078 103.408 260.994 103.408C264.63 103.408 267.258 102.67 268.878 101.194C270.534 99.682 271.362 97.522 271.362 94.714C271.362 91.942 270.642 89.926 269.202 88.666C267.798 87.406 265.512 86.776 262.344 86.776C258.672 86.776 256.35 86.812 255.378 86.884V102.976Z" fill="#313131"/>
</svg>
